<svg width="86" height="39" viewBox="0 0 86 39" fill="none" xmlns="http://www.w3.org/2000/svg">
<path d="M14.4219 0C16.6459 0 18.6475 0.343684 20.4267 1.03105C22.206 1.71842 23.7114 2.7151 24.9432 4.0211C26.2092 5.29273 27.1672 6.80494 27.8173 8.55773C28.5016 10.3105 28.8438 12.2351 28.8438 14.3316C28.8438 17.0124 28.2963 19.3666 27.2014 21.3943C26.1408 23.4221 24.6524 25.003 22.7363 26.1372C20.8202 27.2713 18.6475 27.8384 16.2182 27.8384C15.2602 27.8384 14.3364 27.7181 13.4467 27.4775C12.5571 27.237 11.7531 26.8933 11.0345 26.4465C10.316 25.9653 9.68303 25.3982 9.13558 24.7452H8.93028V38.3036H0V14.4347C0 11.5134 0.598774 8.97015 1.79632 6.80494C2.99387 4.63973 4.67044 2.97286 6.82602 1.80434C9.01582 0.601447 11.5478 0 14.4219 0ZM14.4219 7.78444C13.3954 7.78444 12.4716 8.05939 11.6504 8.60928C10.8293 9.12481 10.1963 9.84654 9.75146 10.7745C9.30666 11.6681 9.08425 12.7163 9.08425 13.9192C9.08425 15.019 9.30666 16.0329 9.75146 16.9608C10.1963 17.8544 10.8293 18.5761 11.6504 19.126C12.4716 19.6415 13.3954 19.8993 14.4219 19.8993C15.5168 19.8993 16.4577 19.6415 17.2447 19.126C18.0659 18.5761 18.6817 17.8544 19.0923 16.9608C19.5371 16.0329 19.7595 15.019 19.7595 13.9192C19.7595 12.7163 19.5371 11.6681 19.0923 10.7745C18.6817 9.84654 18.0659 9.12481 17.2447 8.60928C16.4577 8.05939 15.5168 7.78444 14.4219 7.78444Z" fill="white"/>
<path d="M39.8579 27.8899C37.5654 27.8899 35.5296 27.3057 33.7504 26.1372C31.9712 24.9686 30.5683 23.3705 29.5419 21.3428C28.5496 19.2807 28.0535 16.9436 28.0535 14.3316C28.0535 11.5821 28.6523 9.12481 29.8498 6.9596C31.0816 4.79439 32.7924 3.11034 34.9822 1.90744C37.172 0.670183 39.7552 0.0515525 42.732 0.0515525C45.6403 0.0515525 48.1381 0.652999 50.2252 1.85589C52.3466 3.05879 53.9889 4.70847 55.1523 6.80494C56.3156 8.90141 56.8973 11.3072 56.8973 14.0223V27.2198H48.3263V23.0956H48.121C47.6419 24.0235 47.0261 24.8483 46.2733 25.5701C45.5206 26.2918 44.6139 26.8589 43.5532 27.2713C42.5267 27.6837 41.2949 27.8899 39.8579 27.8899ZM42.5267 20.1055C43.6216 20.1055 44.5625 19.8477 45.3495 19.3322C46.1365 18.7823 46.7523 18.0434 47.1971 17.1155C47.6419 16.1875 47.8643 15.1393 47.8643 13.9708C47.8643 12.8022 47.6419 11.7884 47.1971 10.9291C46.7523 10.0356 46.1365 9.33102 45.3495 8.81549C44.5625 8.2656 43.6216 7.99065 42.5267 7.99065C41.466 7.99065 40.5251 8.2656 39.7039 8.81549C38.917 9.33102 38.3011 10.0356 37.8563 10.9291C37.4115 11.7884 37.1891 12.8022 37.1891 13.9708C37.1891 15.1393 37.4115 16.1875 37.8563 17.1155C38.3011 18.0434 38.917 18.7823 39.7039 19.3322C40.5251 19.8477 41.466 20.1055 42.5267 20.1055Z" fill="white"/>
<path d="M55.8467 27.2198L64.0072 15.672C62.6043 14.9159 61.4239 14.0395 60.4659 13.0428C59.5078 12.0118 58.7722 10.8776 58.2589 9.64033C57.7799 8.40307 57.5404 7.04552 57.5404 5.56768V0.670181H66.4194V4.69129C66.4194 5.44739 66.5562 6.13476 66.83 6.75339C67.1379 7.37202 67.5143 7.90473 67.9591 8.35152C68.4381 8.76394 68.9513 9.07325 69.4988 9.27946L74.9904 0.670181H85.2551L77.6079 11.754C79.1476 12.4414 80.4307 13.3178 81.4572 14.3832C82.5178 15.4142 83.3048 16.5999 83.818 17.9403C84.3655 19.2807 84.6392 20.7241 84.6392 22.2707V27.2198H75.7603V22.7862C75.7603 21.9614 75.5721 21.2225 75.1957 20.5695C74.8535 19.8821 74.3916 19.3322 73.81 18.9198C73.2283 18.473 72.5953 18.2152 71.911 18.1465L66.1114 27.2198H55.8467Z" fill="white"/>
</svg>
