<svg width="320" height="248" viewBox="0 0 320 248" fill="none" xmlns="http://www.w3.org/2000/svg">
<path d="M0 32C0 14.3269 14.3269 0 32 0H288C305.673 0 320 14.3269 320 32V252.722H0V32Z" fill="white"/>
<path d="M41.6994 51.16C40.966 51.16 40.226 51.1333 39.4794 51.08C38.7327 51.04 38.0794 50.9467 37.5194 50.8V37.34C37.8127 37.2867 38.126 37.24 38.4594 37.2C38.7927 37.1467 39.1327 37.1067 39.4794 37.08C39.826 37.0533 40.166 37.0333 40.4994 37.02C40.846 37.0067 41.1727 37 41.4794 37C42.3194 37 43.0994 37.0667 43.8194 37.2C44.5394 37.32 45.1594 37.5267 45.6794 37.82C46.2127 38.1133 46.626 38.5 46.9194 38.98C47.2127 39.46 47.3594 40.0533 47.3594 40.76C47.3594 41.4133 47.1994 41.9733 46.8794 42.44C46.5727 42.9067 46.1394 43.28 45.5794 43.56C46.4194 43.84 47.0394 44.2533 47.4394 44.8C47.8394 45.3467 48.0394 46.04 48.0394 46.88C48.0394 48.3067 47.5194 49.38 46.4794 50.1C45.4394 50.8067 43.846 51.16 41.6994 51.16ZM39.9994 44.76V48.98C40.2794 49.0067 40.5794 49.0267 40.8994 49.04C41.2194 49.0533 41.5127 49.06 41.7794 49.06C42.2994 49.06 42.7794 49.0267 43.2194 48.96C43.6727 48.8933 44.0594 48.78 44.3794 48.62C44.7127 48.4467 44.9727 48.22 45.1594 47.94C45.3594 47.66 45.4594 47.3 45.4594 46.86C45.4594 46.0733 45.1727 45.5267 44.5994 45.22C44.026 44.9133 43.2327 44.76 42.2194 44.76H39.9994ZM39.9994 42.78H41.7794C42.7394 42.78 43.4927 42.6467 44.0394 42.38C44.586 42.1 44.8594 41.6067 44.8594 40.9C44.8594 40.2333 44.5727 39.76 43.9994 39.48C43.4394 39.2 42.706 39.06 41.7994 39.06C41.4127 39.06 41.066 39.0667 40.7594 39.08C40.466 39.0933 40.2127 39.1133 39.9994 39.14V42.78ZM54.7039 51.2C54.3172 51.2 53.9239 51.1867 53.5239 51.16C53.1239 51.1333 52.7372 51.1 52.3639 51.06C52.0039 51.02 51.6639 50.98 51.3439 50.94C51.0239 50.8867 50.7572 50.8333 50.5439 50.78V40.68C50.7572 40.6267 51.0239 40.58 51.3439 40.54C51.6639 40.4867 52.0039 40.4467 52.3639 40.42C52.7372 40.38 53.1239 40.3533 53.5239 40.34C53.9239 40.3133 54.3172 40.3 54.7039 40.3C56.1172 40.3 57.2172 40.56 58.0039 41.08C58.7906 41.5867 59.1839 42.3 59.1839 43.22C59.1839 43.7 59.0639 44.1267 58.8239 44.5C58.5839 44.8733 58.2706 45.1533 57.8839 45.34C58.3639 45.5267 58.7772 45.82 59.1239 46.22C59.4706 46.62 59.6439 47.1867 59.6439 47.92C59.6439 48.9733 59.2306 49.7867 58.4039 50.36C57.5772 50.92 56.3439 51.2 54.7039 51.2ZM54.7639 44.74C55.3639 44.74 55.8572 44.6533 56.2439 44.48C56.6439 44.3067 56.8439 43.96 56.8439 43.44C56.8439 43.1867 56.7772 42.98 56.6439 42.82C56.5239 42.66 56.3572 42.5333 56.1439 42.44C55.9306 42.3467 55.6839 42.2867 55.4039 42.26C55.1239 42.22 54.8306 42.2 54.5239 42.2C54.2839 42.2 54.0039 42.2067 53.6839 42.22C53.3772 42.2333 53.1306 42.2533 52.9439 42.28V44.74H54.7639ZM52.9439 49.2C53.1039 49.2267 53.3639 49.2533 53.7239 49.28C54.0972 49.2933 54.4439 49.3 54.7639 49.3C55.4839 49.3 56.0772 49.2 56.5439 49C57.0239 48.8 57.2639 48.42 57.2639 47.86C57.2639 47.3133 57.0439 46.94 56.6039 46.74C56.1772 46.5267 55.6172 46.42 54.9239 46.42H52.9439V49.2ZM61.3506 45.82C61.3506 44.9 61.484 44.0933 61.7506 43.4C62.0306 42.7067 62.3973 42.1333 62.8506 41.68C63.304 41.2133 63.824 40.8667 64.4106 40.64C64.9973 40.4 65.5973 40.28 66.2106 40.28C67.6506 40.28 68.7706 40.7267 69.5706 41.62C70.384 42.5133 70.7906 43.8467 70.7906 45.62C70.7906 45.7533 70.784 45.9067 70.7706 46.08C70.7706 46.24 70.764 46.3867 70.7506 46.52H63.8506C63.9173 47.36 64.2106 48.0133 64.7306 48.48C65.264 48.9333 66.0306 49.16 67.0306 49.16C67.6173 49.16 68.1506 49.1067 68.6306 49C69.124 48.8933 69.5106 48.78 69.7906 48.66L70.1106 50.64C69.9773 50.7067 69.7906 50.78 69.5506 50.86C69.324 50.9267 69.0573 50.9867 68.7506 51.04C68.4573 51.1067 68.1373 51.16 67.7906 51.2C67.444 51.24 67.0906 51.26 66.7306 51.26C65.8106 51.26 65.0106 51.1267 64.3306 50.86C63.6506 50.58 63.0906 50.2 62.6506 49.72C62.2106 49.2267 61.884 48.6533 61.6706 48C61.4573 47.3333 61.3506 46.6067 61.3506 45.82ZM68.3706 44.74C68.3706 44.4067 68.324 44.0933 68.2306 43.8C68.1373 43.4933 67.9973 43.2333 67.8106 43.02C67.6373 42.7933 67.4173 42.62 67.1506 42.5C66.8973 42.3667 66.5906 42.3 66.2306 42.3C65.8573 42.3 65.5306 42.3733 65.2506 42.52C64.9706 42.6533 64.7306 42.8333 64.5306 43.06C64.344 43.2867 64.1973 43.5467 64.0906 43.84C63.984 44.1333 63.9106 44.4333 63.8706 44.74H68.3706ZM72.0764 49.02H73.2764C73.6897 48.4733 74.0097 47.8667 74.2364 47.2C74.4764 46.52 74.6497 45.8133 74.7564 45.08C74.8631 44.3333 74.9297 43.5733 74.9564 42.8C74.9831 42.0267 75.0031 41.2733 75.0164 40.54H82.5164V49.02H84.1164V53.96H81.9564V51H74.2164V53.96H72.0764V49.02ZM80.0964 49.02V42.54H77.2564C77.2297 43.0867 77.1964 43.6467 77.1564 44.22C77.1164 44.78 77.0431 45.34 76.9364 45.9C76.8297 46.4467 76.6831 46.9867 76.4964 47.52C76.3231 48.04 76.0897 48.54 75.7964 49.02H80.0964ZM95.1727 40.54V51H92.7727C92.7727 50.24 92.7727 49.4867 92.7727 48.74C92.786 47.9933 92.7927 47.3 92.7927 46.66C92.806 46.02 92.8127 45.4667 92.8127 45C92.826 44.52 92.8327 44.1667 92.8327 43.94C92.4327 44.46 92.0193 45.0333 91.5927 45.66C91.166 46.2867 90.7393 46.9133 90.3127 47.54C89.8993 48.1667 89.506 48.78 89.1327 49.38C88.7593 49.98 88.4327 50.52 88.1527 51H86.0127V40.54H88.3927C88.3927 41.3133 88.386 42.0533 88.3727 42.76C88.3727 43.4533 88.3727 44.0867 88.3727 44.66C88.3727 45.2333 88.366 45.7333 88.3527 46.16C88.3527 46.5867 88.3527 46.9133 88.3527 47.14C88.726 46.5667 89.1127 45.98 89.5127 45.38C89.9127 44.7667 90.3127 44.1733 90.7127 43.6C91.126 43.0133 91.5327 42.46 91.9327 41.94C92.3327 41.42 92.7193 40.9533 93.0927 40.54H95.1727ZM106.139 42.56H102.759V51H100.339V42.56H96.9788V40.54H106.139V42.56ZM107.366 45.82C107.366 44.9 107.5 44.0933 107.766 43.4C108.046 42.7067 108.413 42.1333 108.866 41.68C109.32 41.2133 109.84 40.8667 110.426 40.64C111.013 40.4 111.613 40.28 112.226 40.28C113.666 40.28 114.786 40.7267 115.586 41.62C116.4 42.5133 116.806 43.8467 116.806 45.62C116.806 45.7533 116.8 45.9067 116.786 46.08C116.786 46.24 116.78 46.3867 116.766 46.52H109.866C109.933 47.36 110.226 48.0133 110.746 48.48C111.28 48.9333 112.046 49.16 113.046 49.16C113.633 49.16 114.166 49.1067 114.646 49C115.14 48.8933 115.526 48.78 115.806 48.66L116.126 50.64C115.993 50.7067 115.806 50.78 115.566 50.86C115.34 50.9267 115.073 50.9867 114.766 51.04C114.473 51.1067 114.153 51.16 113.806 51.2C113.46 51.24 113.106 51.26 112.746 51.26C111.826 51.26 111.026 51.1267 110.346 50.86C109.666 50.58 109.106 50.2 108.666 49.72C108.226 49.2267 107.9 48.6533 107.686 48C107.473 47.3333 107.366 46.6067 107.366 45.82ZM114.386 44.74C114.386 44.4067 114.34 44.0933 114.246 43.8C114.153 43.4933 114.013 43.2333 113.826 43.02C113.653 42.7933 113.433 42.62 113.166 42.5C112.913 42.3667 112.606 42.3 112.246 42.3C111.873 42.3 111.546 42.3733 111.266 42.52C110.986 42.6533 110.746 42.8333 110.546 43.06C110.36 43.2867 110.213 43.5467 110.106 43.84C110 44.1333 109.926 44.4333 109.886 44.74H114.386ZM132.82 51H130.4V46.62H126.46V51H124.04V40.54H126.46V44.62H130.4V40.54H132.82V51ZM145.355 45.76C145.355 46.5867 145.235 47.34 144.995 48.02C144.755 48.7 144.415 49.28 143.975 49.76C143.535 50.24 143.002 50.6133 142.375 50.88C141.762 51.1467 141.082 51.28 140.335 51.28C139.589 51.28 138.909 51.1467 138.295 50.88C137.682 50.6133 137.155 50.24 136.715 49.76C136.275 49.28 135.929 48.7 135.675 48.02C135.435 47.34 135.315 46.5867 135.315 45.76C135.315 44.9333 135.435 44.1867 135.675 43.52C135.929 42.84 136.275 42.26 136.715 41.78C137.169 41.3 137.702 40.9333 138.315 40.68C138.929 40.4133 139.602 40.28 140.335 40.28C141.069 40.28 141.742 40.4133 142.355 40.68C142.982 40.9333 143.515 41.3 143.955 41.78C144.395 42.26 144.735 42.84 144.975 43.52C145.229 44.1867 145.355 44.9333 145.355 45.76ZM142.875 45.76C142.875 44.72 142.649 43.9 142.195 43.3C141.755 42.6867 141.135 42.38 140.335 42.38C139.535 42.38 138.909 42.6867 138.455 43.3C138.015 43.9 137.795 44.72 137.795 45.76C137.795 46.8133 138.015 47.6467 138.455 48.26C138.909 48.8733 139.535 49.18 140.335 49.18C141.135 49.18 141.755 48.8733 142.195 48.26C142.649 47.6467 142.875 46.8133 142.875 45.76ZM150.289 44.14C150.249 44.7 150.209 45.2867 150.169 45.9C150.129 46.5 150.095 47.1 150.069 47.7C150.042 48.3 150.015 48.88 149.989 49.44C149.962 50 149.942 50.52 149.929 51H147.589C147.615 50.2267 147.655 49.3933 147.709 48.5C147.762 47.5933 147.822 46.68 147.889 45.76C147.969 44.8267 148.049 43.9133 148.129 43.02C148.209 42.1267 148.295 41.3 148.389 40.54H150.489C150.995 41.3533 151.509 42.3133 152.029 43.42C152.549 44.5133 153.129 45.76 153.769 47.16C154.435 45.7333 155.042 44.4467 155.589 43.3C156.135 42.14 156.622 41.22 157.049 40.54H159.169C159.262 41.3 159.349 42.1267 159.429 43.02C159.522 43.9133 159.602 44.8267 159.669 45.76C159.735 46.68 159.795 47.5933 159.849 48.5C159.902 49.3933 159.942 50.2267 159.969 51H157.569C157.542 49.9067 157.495 48.78 157.429 47.62C157.375 46.4467 157.309 45.2867 157.229 44.14C157.029 44.54 156.809 44.9867 156.569 45.48C156.342 45.9733 156.115 46.4733 155.889 46.98C155.662 47.4867 155.442 47.98 155.229 48.46C155.015 48.9267 154.829 49.34 154.669 49.7H152.869C152.709 49.34 152.515 48.92 152.289 48.44C152.075 47.96 151.855 47.4667 151.629 46.96C151.402 46.4533 151.169 45.96 150.929 45.48C150.702 44.9867 150.489 44.54 150.289 44.14ZM162.21 45.82C162.21 44.9 162.343 44.0933 162.61 43.4C162.89 42.7067 163.257 42.1333 163.71 41.68C164.163 41.2133 164.683 40.8667 165.27 40.64C165.857 40.4 166.457 40.28 167.07 40.28C168.51 40.28 169.63 40.7267 170.43 41.62C171.243 42.5133 171.65 43.8467 171.65 45.62C171.65 45.7533 171.643 45.9067 171.63 46.08C171.63 46.24 171.623 46.3867 171.61 46.52H164.71C164.777 47.36 165.07 48.0133 165.59 48.48C166.123 48.9333 166.89 49.16 167.89 49.16C168.477 49.16 169.01 49.1067 169.49 49C169.983 48.8933 170.37 48.78 170.65 48.66L170.97 50.64C170.837 50.7067 170.65 50.78 170.41 50.86C170.183 50.9267 169.917 50.9867 169.61 51.04C169.317 51.1067 168.997 51.16 168.65 51.2C168.303 51.24 167.95 51.26 167.59 51.26C166.67 51.26 165.87 51.1267 165.19 50.86C164.51 50.58 163.95 50.2 163.51 49.72C163.07 49.2267 162.743 48.6533 162.53 48C162.317 47.3333 162.21 46.6067 162.21 45.82ZM169.23 44.74C169.23 44.4067 169.183 44.0933 169.09 43.8C168.997 43.4933 168.857 43.2333 168.67 43.02C168.497 42.7933 168.277 42.62 168.01 42.5C167.757 42.3667 167.45 42.3 167.09 42.3C166.717 42.3 166.39 42.3733 166.11 42.52C165.83 42.6533 165.59 42.8333 165.39 43.06C165.203 43.2867 165.057 43.5467 164.95 43.84C164.843 44.1333 164.77 44.4333 164.73 44.74H169.23ZM181.156 45.82C181.156 44.74 180.909 43.9 180.416 43.3C179.936 42.7 179.156 42.4 178.076 42.4C177.849 42.4 177.609 42.4133 177.356 42.44C177.116 42.4533 176.876 42.4933 176.636 42.56V48.54C176.849 48.6867 177.129 48.8267 177.476 48.96C177.836 49.08 178.216 49.14 178.616 49.14C179.496 49.14 180.136 48.84 180.536 48.24C180.949 47.64 181.156 46.8333 181.156 45.82ZM183.636 45.78C183.636 46.58 183.529 47.3133 183.316 47.98C183.116 48.6467 182.822 49.22 182.436 49.7C182.049 50.18 181.562 50.5533 180.976 50.82C180.402 51.0867 179.749 51.22 179.016 51.22C178.522 51.22 178.069 51.16 177.656 51.04C177.242 50.92 176.902 50.7867 176.636 50.64V54.7H174.216V40.88C174.709 40.7467 175.316 40.62 176.036 40.5C176.756 40.38 177.516 40.32 178.316 40.32C179.142 40.32 179.882 40.4467 180.536 40.7C181.189 40.9533 181.742 41.32 182.196 41.8C182.662 42.2667 183.016 42.84 183.256 43.52C183.509 44.1867 183.636 44.94 183.636 45.78ZM198.678 42.56H195.298V51H192.878V42.56H189.518V40.54H198.678V42.56ZM199.905 45.82C199.905 44.9 200.039 44.0933 200.305 43.4C200.585 42.7067 200.952 42.1333 201.405 41.68C201.859 41.2133 202.379 40.8667 202.965 40.64C203.552 40.4 204.152 40.28 204.765 40.28C206.205 40.28 207.325 40.7267 208.125 41.62C208.939 42.5133 209.345 43.8467 209.345 45.62C209.345 45.7533 209.339 45.9067 209.325 46.08C209.325 46.24 209.319 46.3867 209.305 46.52H202.405C202.472 47.36 202.765 48.0133 203.285 48.48C203.819 48.9333 204.585 49.16 205.585 49.16C206.172 49.16 206.705 49.1067 207.185 49C207.679 48.8933 208.065 48.78 208.345 48.66L208.665 50.64C208.532 50.7067 208.345 50.78 208.105 50.86C207.879 50.9267 207.612 50.9867 207.305 51.04C207.012 51.1067 206.692 51.16 206.345 51.2C205.999 51.24 205.645 51.26 205.285 51.26C204.365 51.26 203.565 51.1267 202.885 50.86C202.205 50.58 201.645 50.2 201.205 49.72C200.765 49.2267 200.439 48.6533 200.225 48C200.012 47.3333 199.905 46.6067 199.905 45.82ZM206.925 44.74C206.925 44.4067 206.879 44.0933 206.785 43.8C206.692 43.4933 206.552 43.2333 206.365 43.02C206.192 42.7933 205.972 42.62 205.705 42.5C205.452 42.3667 205.145 42.3 204.785 42.3C204.412 42.3 204.085 42.3733 203.805 42.52C203.525 42.6533 203.285 42.8333 203.085 43.06C202.899 43.2867 202.752 43.5467 202.645 43.84C202.539 44.1333 202.465 44.4333 202.425 44.74H206.925ZM216.011 42.54C215.998 43.1267 215.978 43.74 215.951 44.38C215.924 45.0067 215.858 45.6267 215.751 46.24C215.658 46.8533 215.504 47.44 215.291 48C215.078 48.56 214.778 49.0667 214.391 49.52C214.018 49.96 213.544 50.3333 212.971 50.64C212.411 50.9333 211.724 51.12 210.911 51.2L210.571 49.18C211.251 49.0467 211.778 48.8333 212.151 48.54C212.524 48.2333 212.811 47.8467 213.011 47.38C213.171 47.0333 213.291 46.64 213.371 46.2C213.464 45.76 213.531 45.3 213.571 44.82C213.624 44.3267 213.658 43.8267 213.671 43.32C213.684 42.8133 213.691 42.32 213.691 41.84V40.54H221.091V51H218.671V42.54H216.011ZM223.597 45.82C223.597 44.9 223.73 44.0933 223.997 43.4C224.277 42.7067 224.643 42.1333 225.097 41.68C225.55 41.2133 226.07 40.8667 226.657 40.64C227.243 40.4 227.843 40.28 228.457 40.28C229.897 40.28 231.017 40.7267 231.817 41.62C232.63 42.5133 233.037 43.8467 233.037 45.62C233.037 45.7533 233.03 45.9067 233.017 46.08C233.017 46.24 233.01 46.3867 232.997 46.52H226.097C226.163 47.36 226.457 48.0133 226.977 48.48C227.51 48.9333 228.277 49.16 229.277 49.16C229.863 49.16 230.397 49.1067 230.877 49C231.37 48.8933 231.757 48.78 232.037 48.66L232.357 50.64C232.223 50.7067 232.037 50.78 231.797 50.86C231.57 50.9267 231.303 50.9867 230.997 51.04C230.703 51.1067 230.383 51.16 230.037 51.2C229.69 51.24 229.337 51.26 228.977 51.26C228.057 51.26 227.257 51.1267 226.577 50.86C225.897 50.58 225.337 50.2 224.897 49.72C224.457 49.2267 224.13 48.6533 223.917 48C223.703 47.3333 223.597 46.6067 223.597 45.82ZM230.617 44.74C230.617 44.4067 230.57 44.0933 230.477 43.8C230.383 43.4933 230.243 43.2333 230.057 43.02C229.883 42.7933 229.663 42.62 229.397 42.5C229.143 42.3667 228.837 42.3 228.477 42.3C228.103 42.3 227.777 42.3733 227.497 42.52C227.217 42.6533 226.977 42.8333 226.777 43.06C226.59 43.2867 226.443 43.5467 226.337 43.84C226.23 44.1333 226.157 44.4333 226.117 44.74H230.617ZM240.683 42.58C239.736 42.6333 238.963 42.9333 238.363 43.48C237.763 44.0133 237.463 44.7933 237.463 45.82C237.463 46.8467 237.756 47.62 238.343 48.14C238.943 48.66 239.723 48.9533 240.683 49.02V42.58ZM243.023 49.02C243.449 49.0067 243.856 48.94 244.243 48.82C244.643 48.6867 244.989 48.4867 245.283 48.22C245.576 47.9533 245.809 47.62 245.983 47.22C246.156 46.82 246.243 46.3467 246.243 45.8C246.243 45.2533 246.156 44.78 245.983 44.38C245.809 43.98 245.576 43.6533 245.283 43.4C244.989 43.1333 244.643 42.9333 244.243 42.8C243.856 42.6667 243.449 42.5933 243.023 42.58V49.02ZM243.023 54.7H240.683V51.06C239.829 51.02 239.049 50.8667 238.343 50.6C237.649 50.3333 237.056 49.9733 236.562 49.52C236.069 49.0533 235.683 48.5067 235.403 47.88C235.136 47.2533 235.003 46.56 235.003 45.8C235.003 45.0533 235.136 44.3733 235.403 43.76C235.669 43.1467 236.043 42.6133 236.523 42.16C237.016 41.7067 237.609 41.3467 238.303 41.08C239.009 40.8 239.803 40.6267 240.683 40.56V35.9L243.023 35.48V40.56C243.783 40.6 244.503 40.74 245.183 40.98C245.876 41.22 246.483 41.56 247.003 42C247.523 42.44 247.936 42.98 248.243 43.62C248.549 44.2467 248.703 44.9733 248.703 45.8C248.703 46.64 248.549 47.38 248.243 48.02C247.949 48.66 247.543 49.2 247.023 49.64C246.503 50.0667 245.896 50.4 245.203 50.64C244.523 50.88 243.796 51.02 243.023 51.06V54.7ZM260.648 45.76C260.648 46.5867 260.528 47.34 260.288 48.02C260.048 48.7 259.708 49.28 259.268 49.76C258.828 50.24 258.295 50.6133 257.668 50.88C257.055 51.1467 256.375 51.28 255.628 51.28C254.882 51.28 254.202 51.1467 253.588 50.88C252.975 50.6133 252.448 50.24 252.008 49.76C251.568 49.28 251.222 48.7 250.968 48.02C250.728 47.34 250.608 46.5867 250.608 45.76C250.608 44.9333 250.728 44.1867 250.968 43.52C251.222 42.84 251.568 42.26 252.008 41.78C252.462 41.3 252.995 40.9333 253.608 40.68C254.222 40.4133 254.895 40.28 255.628 40.28C256.362 40.28 257.035 40.4133 257.648 40.68C258.275 40.9333 258.808 41.3 259.248 41.78C259.688 42.26 260.028 42.84 260.268 43.52C260.522 44.1867 260.648 44.9333 260.648 45.76ZM258.168 45.76C258.168 44.72 257.942 43.9 257.488 43.3C257.048 42.6867 256.428 42.38 255.628 42.38C254.828 42.38 254.202 42.6867 253.748 43.3C253.308 43.9 253.088 44.72 253.088 45.76C253.088 46.8133 253.308 47.6467 253.748 48.26C254.202 48.8733 254.828 49.18 255.628 49.18C256.428 49.18 257.048 48.8733 257.488 48.26C257.942 47.6467 258.168 46.8133 258.168 45.76ZM271.922 51H269.502V46.62H265.562V51H263.142V40.54H265.562V44.62H269.502V40.54H271.922V51ZM278.677 49.3C279.424 49.3 279.99 49.26 280.377 49.18V46.5C280.244 46.46 280.05 46.42 279.797 46.38C279.544 46.34 279.264 46.32 278.957 46.32C278.69 46.32 278.417 46.34 278.137 46.38C277.87 46.42 277.624 46.4933 277.397 46.6C277.184 46.7067 277.01 46.86 276.877 47.06C276.744 47.2467 276.677 47.4867 276.677 47.78C276.677 48.3533 276.857 48.7533 277.217 48.98C277.577 49.1933 278.064 49.3 278.677 49.3ZM278.477 40.28C279.277 40.28 279.95 40.38 280.497 40.58C281.044 40.78 281.477 41.06 281.797 41.42C282.13 41.78 282.364 42.22 282.497 42.74C282.644 43.2467 282.717 43.8067 282.717 44.42V50.76C282.344 50.84 281.777 50.9333 281.017 51.04C280.27 51.16 279.424 51.22 278.477 51.22C277.85 51.22 277.277 51.16 276.757 51.04C276.237 50.92 275.79 50.7267 275.417 50.46C275.057 50.1933 274.77 49.8467 274.557 49.42C274.357 48.9933 274.257 48.4667 274.257 47.84C274.257 47.24 274.37 46.7333 274.597 46.32C274.837 45.9067 275.157 45.5733 275.557 45.32C275.957 45.0533 276.417 44.8667 276.937 44.76C277.47 44.64 278.024 44.58 278.597 44.58C278.864 44.58 279.144 44.6 279.437 44.64C279.73 44.6667 280.044 44.72 280.377 44.8V44.4C280.377 44.12 280.344 43.8533 280.277 43.6C280.21 43.3467 280.09 43.1267 279.917 42.94C279.757 42.74 279.537 42.5867 279.257 42.48C278.99 42.3733 278.65 42.32 278.237 42.32C277.677 42.32 277.164 42.36 276.697 42.44C276.23 42.52 275.85 42.6133 275.557 42.72L275.257 40.76C275.564 40.6533 276.01 40.5467 276.597 40.44C277.184 40.3333 277.81 40.28 278.477 40.28Z" fill="#151515"/>
<path opacity="0.5" d="M72.95 76.9435C72.7844 76.9435 72.603 76.9396 72.4058 76.9317C72.2165 76.9238 72.0233 76.912 71.8261 76.8962C71.6368 76.8804 71.4476 76.8607 71.2583 76.8371C71.069 76.8134 70.8955 76.7819 70.7377 76.7424V68.7926C70.8955 68.7532 71.069 68.7216 71.2583 68.698C71.4476 68.6743 71.6368 68.6546 71.8261 68.6388C72.0233 68.623 72.2165 68.6112 72.4058 68.6033C72.5951 68.5954 72.7725 68.5915 72.9381 68.5915C73.4114 68.5915 73.853 68.627 74.2631 68.698C74.6811 68.7689 75.04 68.8912 75.3397 69.0647C75.6472 69.2303 75.8878 69.4511 76.0613 69.7272C76.2348 70.0032 76.3216 70.3423 76.3216 70.7446C76.3216 71.1941 76.2151 71.5648 76.0021 71.8566C75.7892 72.1405 75.5053 72.3535 75.1504 72.4954C75.6315 72.6374 76.014 72.8622 76.2979 73.1697C76.5818 73.4773 76.7238 73.9111 76.7238 74.471C76.7238 75.2913 76.4201 75.9104 75.8129 76.3284C75.2135 76.7385 74.2592 76.9435 72.95 76.9435ZM71.8734 73.0514V75.938C71.9602 75.9459 72.0627 75.9538 72.181 75.9616C72.2835 75.9695 72.4019 75.9774 72.5359 75.9853C72.6779 75.9853 72.8396 75.9853 73.021 75.9853C73.3601 75.9853 73.6795 75.9656 73.9792 75.9262C74.2868 75.8788 74.5549 75.8 74.7836 75.6895C75.0124 75.5791 75.1938 75.4253 75.3278 75.2282C75.4698 75.031 75.5408 74.7826 75.5408 74.4829C75.5408 74.2147 75.4895 73.99 75.387 73.8086C75.2845 73.6193 75.1346 73.4694 74.9374 73.359C74.7482 73.2486 74.5194 73.1697 74.2513 73.1224C73.9831 73.0751 73.6834 73.0514 73.3522 73.0514H71.8734ZM71.8734 72.1287H73.0801C73.364 72.1287 73.6322 72.109 73.8846 72.0695C74.1369 72.0301 74.3538 71.9591 74.5352 71.8566C74.7245 71.7541 74.8704 71.62 74.9729 71.4544C75.0833 71.2887 75.1385 71.0798 75.1385 70.8274C75.1385 70.5908 75.0833 70.3936 74.9729 70.2359C74.8625 70.0702 74.7087 69.9401 74.5116 69.8455C74.3223 69.7429 74.0975 69.668 73.8372 69.6207C73.577 69.5734 73.3009 69.5497 73.0091 69.5497C72.7173 69.5497 72.4886 69.5537 72.323 69.5616C72.1574 69.5694 72.0075 69.5813 71.8734 69.597V72.1287ZM80.3506 76.0799C80.6109 76.0799 80.8396 76.076 81.0368 76.0681C81.2418 76.0523 81.4114 76.0287 81.5455 75.9971V74.1635C81.4666 74.124 81.3365 74.0925 81.1551 74.0688C80.9816 74.0373 80.7686 74.0215 80.5163 74.0215C80.3506 74.0215 80.1732 74.0333 79.9839 74.057C79.8025 74.0807 79.6329 74.1319 79.4752 74.2108C79.3254 74.2818 79.1992 74.3843 79.0966 74.5184C78.9941 74.6446 78.9429 74.8141 78.9429 75.0271C78.9429 75.4214 79.069 75.6974 79.3214 75.8552C79.5738 76.005 79.9169 76.0799 80.3506 76.0799ZM80.256 70.5671C80.6977 70.5671 81.0683 70.6263 81.368 70.7446C81.6756 70.855 81.9201 71.0167 82.1015 71.2296C82.2908 71.4347 82.4248 71.6831 82.5037 71.9749C82.5826 72.2588 82.622 72.5743 82.622 72.9213V76.7661C82.5274 76.7819 82.3933 76.8055 82.2198 76.8371C82.0542 76.8607 81.8649 76.8844 81.6519 76.908C81.439 76.9317 81.2063 76.9514 80.954 76.9672C80.7095 76.9909 80.465 77.0027 80.2205 77.0027C79.8735 77.0027 79.5541 76.9672 79.2623 76.8962C78.9705 76.8252 78.7181 76.7148 78.5051 76.565C78.2922 76.4072 78.1266 76.2022 78.0083 75.9498C77.89 75.6974 77.8308 75.3938 77.8308 75.0389C77.8308 74.6998 77.8979 74.408 78.0319 74.1635C78.1739 73.919 78.3632 73.7218 78.5998 73.572C78.8364 73.4221 79.1124 73.3117 79.4279 73.2407C79.7434 73.1697 80.0746 73.1342 80.4216 73.1342C80.532 73.1342 80.6464 73.1421 80.7647 73.1579C80.883 73.1658 80.9934 73.1816 81.0959 73.2052C81.2063 73.221 81.301 73.2368 81.3799 73.2525C81.4587 73.2683 81.5139 73.2801 81.5455 73.288V72.9805C81.5455 72.7991 81.5258 72.6216 81.4863 72.4481C81.4469 72.2667 81.3759 72.109 81.2734 71.9749C81.1709 71.8329 81.0289 71.7225 80.8475 71.6437C80.674 71.5569 80.4453 71.5135 80.1614 71.5135C79.7986 71.5135 79.4792 71.5411 79.2031 71.5963C78.935 71.6437 78.7339 71.6949 78.5998 71.7501L78.4696 70.8392C78.6116 70.7761 78.8482 70.717 79.1795 70.6618C79.5107 70.5987 79.8695 70.5671 80.256 70.5671ZM85.6205 72.3416C85.5416 73.1224 85.4825 73.9032 85.443 74.684C85.4036 75.4569 85.372 76.1864 85.3484 76.8726H84.2955C84.3113 76.3915 84.3349 75.8907 84.3665 75.3701C84.398 74.8417 84.4335 74.3133 84.473 73.7849C84.5124 73.2486 84.5558 72.7241 84.6031 72.2115C84.6504 71.691 84.7017 71.1941 84.7569 70.7209H85.7624C86.0148 71.131 86.3106 71.6949 86.6497 72.4126C86.9888 73.1224 87.3792 73.9426 87.8209 74.8733C88.2625 73.9426 88.6529 73.1224 88.9921 72.4126C89.3312 71.6949 89.6269 71.131 89.8793 70.7209H90.8967C90.9519 71.1941 91.0032 71.691 91.0505 72.2115C91.0978 72.7241 91.1412 73.2486 91.1806 73.7849C91.2201 74.3133 91.2556 74.8417 91.2871 75.3701C91.3186 75.8907 91.3423 76.3915 91.3581 76.8726H90.2697C90.2461 76.1864 90.2145 75.4569 90.1751 74.684C90.1356 73.9032 90.0765 73.1224 89.9976 72.3416C89.8714 72.5861 89.7255 72.8819 89.5599 73.2289C89.3943 73.568 89.2287 73.915 89.063 74.2699C88.9053 74.6248 88.7555 74.964 88.6135 75.2873C88.4715 75.6107 88.3611 75.867 88.2823 76.0563H87.3595C87.2728 75.8591 87.1545 75.5989 87.0046 75.2755C86.8626 74.9521 86.7089 74.613 86.5432 74.2581C86.3855 73.8953 86.2238 73.5444 86.0582 73.2052C85.8926 72.8582 85.7467 72.5703 85.6205 72.3416ZM100.785 76.8726H99.6852V71.6437H96.9406V76.8726H95.8404V70.7209H100.785V76.8726ZM106.95 73.8086C106.95 73.0909 106.773 72.5388 106.418 72.1523C106.063 71.7659 105.59 71.5727 104.998 71.5727C104.667 71.5727 104.407 71.5845 104.218 71.6082C104.036 71.6318 103.89 71.6594 103.78 71.691V75.5712C103.914 75.6817 104.107 75.7881 104.36 75.8907C104.612 75.9932 104.888 76.0445 105.188 76.0445C105.503 76.0445 105.771 75.9892 105.992 75.8788C106.221 75.7605 106.406 75.6028 106.548 75.4056C106.69 75.2006 106.793 74.964 106.856 74.6958C106.919 74.4198 106.95 74.124 106.95 73.8086ZM108.098 73.8086C108.098 74.2739 108.035 74.7037 107.909 75.098C107.79 75.4924 107.613 75.8315 107.376 76.1154C107.14 76.3994 106.848 76.6202 106.501 76.7779C106.162 76.9357 105.771 77.0145 105.33 77.0145C104.975 77.0145 104.659 76.9672 104.383 76.8726C104.115 76.7779 103.914 76.6872 103.78 76.6005V79.0611H102.68V70.9102C102.94 70.8471 103.263 70.7801 103.65 70.7091C104.044 70.6302 104.498 70.5908 105.01 70.5908C105.483 70.5908 105.909 70.6657 106.288 70.8155C106.666 70.9654 106.99 71.1783 107.258 71.4544C107.526 71.7304 107.731 72.0695 107.873 72.4718C108.023 72.8661 108.098 73.3117 108.098 73.8086ZM114.816 70.7209V76.8726H113.751V72.1878C113.514 72.4875 113.254 72.8385 112.97 73.2407C112.686 73.6429 112.402 74.0609 112.119 74.4947C111.835 74.9206 111.563 75.3425 111.302 75.7605C111.042 76.1785 110.817 76.5492 110.628 76.8726H109.646V70.7209H110.711V75.1454C110.916 74.8062 111.148 74.4356 111.409 74.0333C111.669 73.6232 111.937 73.221 112.213 72.8267C112.497 72.4244 112.777 72.0419 113.053 71.6791C113.337 71.3085 113.601 70.9891 113.846 70.7209H114.816ZM115.948 75.9735H116.61C116.87 75.5949 117.076 75.2045 117.225 74.8023C117.383 74.4001 117.501 73.986 117.58 73.5601C117.659 73.1264 117.71 72.6768 117.734 72.2115C117.758 71.7383 117.773 71.2414 117.781 70.7209H121.815V75.9735H122.644V78.5879H121.602V76.8726H116.989V78.5879H115.948V75.9735ZM120.715 75.9735V71.6437H118.787C118.779 72.0143 118.759 72.3889 118.728 72.7675C118.696 73.1382 118.645 73.5089 118.574 73.8795C118.503 74.2423 118.4 74.6012 118.266 74.9561C118.14 75.3031 117.979 75.6422 117.781 75.9735H120.715ZM123.49 73.8086C123.49 73.2644 123.569 72.7912 123.726 72.3889C123.884 71.9788 124.093 71.6397 124.353 71.3716C124.614 71.1034 124.913 70.9023 125.253 70.7682C125.592 70.6341 125.939 70.5671 126.294 70.5671C127.122 70.5671 127.757 70.8274 128.198 71.3479C128.64 71.8605 128.861 72.6453 128.861 73.7021C128.861 73.7494 128.861 73.8125 128.861 73.8914C128.861 73.9624 128.857 74.0294 128.849 74.0925H124.637C124.685 74.7313 124.87 75.2163 125.193 75.5476C125.517 75.8788 126.021 76.0445 126.708 76.0445C127.094 76.0445 127.417 76.0129 127.678 75.9498C127.946 75.8788 128.147 75.8118 128.281 75.7487L128.435 76.6714C128.301 76.7424 128.064 76.8174 127.725 76.8962C127.394 76.9751 127.015 77.0145 126.589 77.0145C126.053 77.0145 125.588 76.9357 125.193 76.7779C124.807 76.6123 124.488 76.3875 124.235 76.1036C123.983 75.8197 123.793 75.4845 123.667 75.098C123.549 74.7037 123.49 74.2739 123.49 73.8086ZM127.713 73.2052C127.721 72.7084 127.595 72.3022 127.335 71.9867C127.082 71.6634 126.731 71.5017 126.282 71.5017C126.029 71.5017 125.805 71.553 125.607 71.6555C125.418 71.7501 125.256 71.8763 125.122 72.034C124.988 72.1918 124.882 72.3732 124.803 72.5782C124.732 72.7833 124.685 72.9923 124.661 73.2052H127.713ZM134.783 70.7209V71.6437H132.784V76.8726H131.683V71.6437H129.684V70.7209H134.783ZM140.903 73.5246C141.147 73.6981 141.412 73.919 141.696 74.1871C141.979 74.4474 142.256 74.7313 142.524 75.0389C142.8 75.3465 143.056 75.6619 143.293 75.9853C143.529 76.3008 143.73 76.5965 143.896 76.8726H142.595C142.421 76.6044 142.216 76.3323 141.979 76.0563C141.751 75.7724 141.51 75.5003 141.258 75.24C141.005 74.9797 140.749 74.7392 140.489 74.5184C140.229 74.2975 139.984 74.1122 139.755 73.9624V76.8726H138.655V70.7209H139.755V73.359C139.945 73.1776 140.162 72.9686 140.406 72.732C140.651 72.4875 140.895 72.243 141.14 71.9986C141.392 71.7462 141.625 71.5096 141.838 71.2887C142.05 71.06 142.224 70.8708 142.358 70.7209H143.636C143.462 70.9102 143.257 71.1271 143.021 71.3716C142.792 71.6082 142.551 71.8527 142.299 72.105C142.054 72.3574 141.81 72.6098 141.565 72.8622C141.321 73.1066 141.1 73.3275 140.903 73.5246ZM150.093 73.7967C150.093 74.2857 150.022 74.7274 149.88 75.1217C149.738 75.516 149.537 75.8552 149.276 76.1391C149.024 76.423 148.72 76.6438 148.366 76.8016C148.011 76.9514 147.624 77.0263 147.206 77.0263C146.788 77.0263 146.402 76.9514 146.047 76.8016C145.692 76.6438 145.384 76.423 145.124 76.1391C144.872 75.8552 144.675 75.516 144.533 75.1217C144.391 74.7274 144.32 74.2857 144.32 73.7967C144.32 73.3156 144.391 72.8779 144.533 72.4836C144.675 72.0814 144.872 71.7383 145.124 71.4544C145.384 71.1704 145.692 70.9536 146.047 70.8037C146.402 70.646 146.788 70.5671 147.206 70.5671C147.624 70.5671 148.011 70.646 148.366 70.8037C148.72 70.9536 149.024 71.1704 149.276 71.4544C149.537 71.7383 149.738 72.0814 149.88 72.4836C150.022 72.8779 150.093 73.3156 150.093 73.7967ZM148.945 73.7967C148.945 73.1027 148.787 72.5546 148.472 72.1523C148.164 71.7422 147.742 71.5372 147.206 71.5372C146.67 71.5372 146.244 71.7422 145.929 72.1523C145.621 72.5546 145.467 73.1027 145.467 73.7967C145.467 74.4908 145.621 75.0428 145.929 75.4529C146.244 75.8552 146.67 76.0563 147.206 76.0563C147.742 76.0563 148.164 75.8552 148.472 75.4529C148.787 75.0428 148.945 74.4908 148.945 73.7967ZM150.883 75.9735H151.546C151.806 75.5949 152.011 75.2045 152.161 74.8023C152.319 74.4001 152.437 73.986 152.516 73.5601C152.595 73.1264 152.646 72.6768 152.67 72.2115C152.693 71.7383 152.709 71.2414 152.717 70.7209H156.751V75.9735H157.579V78.5879H156.538V76.8726H151.925V78.5879H150.883V75.9735ZM155.651 75.9735V71.6437H153.723C153.715 72.0143 153.695 72.3889 153.664 72.7675C153.632 73.1382 153.581 73.5089 153.51 73.8795C153.439 74.2423 153.336 74.6012 153.202 74.9561C153.076 75.3031 152.914 75.6422 152.717 75.9735H155.651ZM166.452 76.8726H165.351V71.6437H162.607V76.8726H161.507V70.7209H166.452V76.8726ZM173.776 73.7967C173.776 74.2857 173.705 74.7274 173.563 75.1217C173.421 75.516 173.22 75.8552 172.96 76.1391C172.707 76.423 172.404 76.6438 172.049 76.8016C171.694 76.9514 171.307 77.0263 170.889 77.0263C170.471 77.0263 170.085 76.9514 169.73 76.8016C169.375 76.6438 169.068 76.423 168.807 76.1391C168.555 75.8552 168.358 75.516 168.216 75.1217C168.074 74.7274 168.003 74.2857 168.003 73.7967C168.003 73.3156 168.074 72.8779 168.216 72.4836C168.358 72.0814 168.555 71.7383 168.807 71.4544C169.068 71.1704 169.375 70.9536 169.73 70.8037C170.085 70.646 170.471 70.5671 170.889 70.5671C171.307 70.5671 171.694 70.646 172.049 70.8037C172.404 70.9536 172.707 71.1704 172.96 71.4544C173.22 71.7383 173.421 72.0814 173.563 72.4836C173.705 72.8779 173.776 73.3156 173.776 73.7967ZM172.629 73.7967C172.629 73.1027 172.471 72.5546 172.155 72.1523C171.848 71.7422 171.426 71.5372 170.889 71.5372C170.353 71.5372 169.927 71.7422 169.612 72.1523C169.304 72.5546 169.15 73.1027 169.15 73.7967C169.15 74.4908 169.304 75.0428 169.612 75.4529C169.927 75.8552 170.353 76.0563 170.889 76.0563C171.426 76.0563 171.848 75.8552 172.155 75.4529C172.471 75.0428 172.629 74.4908 172.629 73.7967ZM174.567 75.9735H175.229C175.49 75.5949 175.695 75.2045 175.844 74.8023C176.002 74.4001 176.12 73.986 176.199 73.5601C176.278 73.1264 176.329 72.6768 176.353 72.2115C176.377 71.7383 176.393 71.2414 176.4 70.7209H180.435V75.9735H181.263V78.5879H180.222V76.8726H175.608V78.5879H174.567V75.9735ZM179.334 75.9735V71.6437H177.406C177.398 72.0143 177.378 72.3889 177.347 72.7675C177.315 73.1382 177.264 73.5089 177.193 73.8795C177.122 74.2423 177.02 74.6012 176.885 74.9561C176.759 75.3031 176.598 75.6422 176.4 75.9735H179.334ZM186.794 70.7209V71.6437H184.794V76.8726H183.694V71.6437H181.695V70.7209H186.794ZM189.005 76.0445C189.052 76.0523 189.119 76.0602 189.206 76.0681C189.292 76.076 189.391 76.0839 189.501 76.0918C189.612 76.0918 189.726 76.0957 189.845 76.1036C189.971 76.1036 190.089 76.1036 190.199 76.1036C190.428 76.1036 190.645 76.0878 190.85 76.0563C191.063 76.0247 191.244 75.9695 191.394 75.8907C191.552 75.8118 191.674 75.7093 191.761 75.5831C191.856 75.449 191.903 75.2794 191.903 75.0744C191.903 74.8772 191.86 74.7155 191.773 74.5893C191.694 74.4553 191.584 74.3488 191.442 74.2699C191.3 74.1911 191.13 74.1359 190.933 74.1043C190.744 74.0728 190.539 74.057 190.318 74.057H189.005V76.0445ZM190.176 73.2407C190.389 73.2407 190.582 73.2289 190.755 73.2052C190.937 73.1737 191.091 73.1224 191.217 73.0514C191.351 72.9805 191.453 72.8858 191.524 72.7675C191.603 72.6492 191.643 72.4994 191.643 72.318C191.643 72.1287 191.595 71.9788 191.501 71.8684C191.406 71.758 191.28 71.6752 191.122 71.62C190.972 71.5569 190.799 71.5175 190.602 71.5017C190.412 71.478 190.219 71.4662 190.022 71.4662C189.841 71.4662 189.655 71.4701 189.466 71.478C189.285 71.4859 189.131 71.4938 189.005 71.5017V73.2407H190.176ZM190.152 76.979C189.687 76.979 189.257 76.9554 188.863 76.908C188.468 76.8686 188.157 76.8213 187.928 76.7661V70.7801C188.157 70.7248 188.468 70.6775 188.863 70.6381C189.257 70.5908 189.687 70.5671 190.152 70.5671C190.475 70.5671 190.791 70.5947 191.099 70.6499C191.406 70.7051 191.678 70.7998 191.915 70.9338C192.151 71.06 192.341 71.2375 192.483 71.4662C192.633 71.687 192.707 71.9631 192.707 72.2943C192.707 72.594 192.633 72.8503 192.483 73.0633C192.333 73.2762 192.132 73.4418 191.879 73.5601C192.218 73.6784 192.487 73.8559 192.684 74.0925C192.889 74.3212 192.991 74.6446 192.991 75.0626C192.991 75.4332 192.916 75.7408 192.767 75.9853C192.625 76.2298 192.424 76.427 192.163 76.5768C191.911 76.7267 191.611 76.8292 191.264 76.8844C190.917 76.9475 190.546 76.979 190.152 76.979ZM194.066 73.8086C194.066 73.2644 194.145 72.7912 194.303 72.3889C194.46 71.9788 194.669 71.6397 194.93 71.3716C195.19 71.1034 195.49 70.9023 195.829 70.7682C196.168 70.6341 196.515 70.5671 196.87 70.5671C197.698 70.5671 198.333 70.8274 198.775 71.3479C199.216 71.8605 199.437 72.6453 199.437 73.7021C199.437 73.7494 199.437 73.8125 199.437 73.8914C199.437 73.9624 199.433 74.0294 199.425 74.0925H195.214C195.261 74.7313 195.446 75.2163 195.77 75.5476C196.093 75.8788 196.598 76.0445 197.284 76.0445C197.67 76.0445 197.994 76.0129 198.254 75.9498C198.522 75.8788 198.723 75.8118 198.857 75.7487L199.011 76.6714C198.877 76.7424 198.64 76.8174 198.301 76.8962C197.97 76.9751 197.592 77.0145 197.166 77.0145C196.629 77.0145 196.164 76.9357 195.77 76.7779C195.383 76.6123 195.064 76.3875 194.811 76.1036C194.559 75.8197 194.37 75.4845 194.244 75.098C194.125 74.7037 194.066 74.2739 194.066 73.8086ZM198.289 73.2052C198.297 72.7084 198.171 72.3022 197.911 71.9867C197.659 71.6634 197.308 71.5017 196.858 71.5017C196.606 71.5017 196.381 71.553 196.184 71.6555C195.994 71.7501 195.833 71.8763 195.699 72.034C195.565 72.1918 195.458 72.3732 195.379 72.5782C195.308 72.7833 195.261 72.9923 195.237 73.2052H198.289ZM205.288 73.8086C205.288 73.0909 205.111 72.5388 204.756 72.1523C204.401 71.7659 203.928 71.5727 203.336 71.5727C203.005 71.5727 202.745 71.5845 202.555 71.6082C202.374 71.6318 202.228 71.6594 202.118 71.691V75.5712C202.252 75.6817 202.445 75.7881 202.697 75.8907C202.95 75.9932 203.226 76.0445 203.525 76.0445C203.841 76.0445 204.109 75.9892 204.33 75.8788C204.559 75.7605 204.744 75.6028 204.886 75.4056C205.028 75.2006 205.13 74.964 205.193 74.6958C205.257 74.4198 205.288 74.124 205.288 73.8086ZM206.436 73.8086C206.436 74.2739 206.373 74.7037 206.246 75.098C206.128 75.4924 205.951 75.8315 205.714 76.1154C205.477 76.3994 205.186 76.6202 204.839 76.7779C204.499 76.9357 204.109 77.0145 203.667 77.0145C203.312 77.0145 202.997 76.9672 202.721 76.8726C202.453 76.7779 202.252 76.6872 202.118 76.6005V79.0611H201.017V70.9102C201.278 70.8471 201.601 70.7801 201.987 70.7091C202.382 70.6302 202.835 70.5908 203.348 70.5908C203.821 70.5908 204.247 70.6657 204.626 70.8155C205.004 70.9654 205.328 71.1783 205.596 71.4544C205.864 71.7304 206.069 72.0695 206.211 72.4718C206.361 72.8661 206.436 73.3117 206.436 73.8086ZM215.301 70.7209C215.143 70.9181 214.966 71.135 214.769 71.3716C214.572 71.6003 214.367 71.8408 214.154 72.0932C213.941 72.3377 213.724 72.5822 213.503 72.8267C213.29 73.0712 213.085 73.3038 212.888 73.5246C213.124 73.7534 213.369 74.0018 213.621 74.2699C213.874 74.5381 214.118 74.8181 214.355 75.1099C214.599 75.3938 214.832 75.6895 215.053 75.9971C215.274 76.2968 215.467 76.5886 215.632 76.8726H214.402C214.236 76.6123 214.043 76.3402 213.822 76.0563C213.609 75.7645 213.385 75.4845 213.148 75.2163C212.919 74.9482 212.687 74.6998 212.45 74.471C212.221 74.2344 212.008 74.0412 211.811 73.8914V76.8726H210.758V73.8914C210.561 74.0412 210.344 74.2344 210.108 74.471C209.879 74.6998 209.646 74.9482 209.41 75.2163C209.181 75.4845 208.956 75.7645 208.735 76.0563C208.523 76.3402 208.333 76.6123 208.168 76.8726H206.949C207.115 76.5886 207.304 76.2968 207.517 75.9971C207.738 75.6974 207.967 75.4056 208.203 75.1217C208.448 74.8299 208.696 74.5499 208.948 74.2818C209.201 74.0136 209.445 73.7652 209.682 73.5365C209.485 73.3156 209.276 73.083 209.055 72.8385C208.842 72.594 208.629 72.3495 208.416 72.105C208.203 71.8527 207.998 71.6121 207.801 71.3834C207.604 71.1468 207.422 70.926 207.257 70.7209H208.475C208.759 71.0758 209.086 71.4701 209.457 71.9039C209.828 72.3377 210.262 72.8385 210.758 73.4063V70.7209H211.811V73.4063C212.308 72.8385 212.742 72.3377 213.113 71.9039C213.483 71.4701 213.811 71.0758 214.095 70.7209H215.301ZM216.261 75.9735H216.923C217.184 75.5949 217.389 75.2045 217.539 74.8023C217.696 74.4001 217.815 73.986 217.894 73.5601C217.972 73.1264 218.024 72.6768 218.047 72.2115C218.071 71.7383 218.087 71.2414 218.095 70.7209H222.129V75.9735H222.957V78.5879H221.916V76.8726H217.302V78.5879H216.261V75.9735ZM221.029 75.9735V71.6437H219.1C219.092 72.0143 219.073 72.3889 219.041 72.7675C219.009 73.1382 218.958 73.5089 218.887 73.8795C218.816 74.2423 218.714 74.6012 218.58 74.9561C218.453 75.3031 218.292 75.6422 218.095 75.9735H221.029ZM223.803 73.8086C223.803 73.2644 223.882 72.7912 224.04 72.3889C224.197 71.9788 224.406 71.6397 224.667 71.3716C224.927 71.1034 225.227 70.9023 225.566 70.7682C225.905 70.6341 226.252 70.5671 226.607 70.5671C227.435 70.5671 228.07 70.8274 228.512 71.3479C228.953 71.8605 229.174 72.6453 229.174 73.7021C229.174 73.7494 229.174 73.8125 229.174 73.8914C229.174 73.9624 229.17 74.0294 229.162 74.0925H224.951C224.998 74.7313 225.183 75.2163 225.507 75.5476C225.83 75.8788 226.335 76.0445 227.021 76.0445C227.407 76.0445 227.731 76.0129 227.991 75.9498C228.259 75.8788 228.46 75.8118 228.594 75.7487L228.748 76.6714C228.614 76.7424 228.377 76.8174 228.038 76.8962C227.707 76.9751 227.329 77.0145 226.903 77.0145C226.366 77.0145 225.901 76.9357 225.507 76.7779C225.12 76.6123 224.801 76.3875 224.548 76.1036C224.296 75.8197 224.107 75.4845 223.981 75.098C223.862 74.7037 223.803 74.2739 223.803 73.8086ZM228.026 73.2052C228.034 72.7084 227.908 72.3022 227.648 71.9867C227.396 71.6634 227.045 71.5017 226.595 71.5017C226.343 71.5017 226.118 71.553 225.921 71.6555C225.731 71.7501 225.57 71.8763 225.436 72.034C225.302 72.1918 225.195 72.3732 225.116 72.5782C225.045 72.7833 224.998 72.9923 224.974 73.2052H228.026ZM235.794 76.8726H234.694V74.1516H231.855V76.8726H230.754V70.7209H231.855V73.2289H234.694V70.7209H235.794V76.8726ZM242.856 70.7209V76.8726H241.791V72.1878C241.555 72.4875 241.294 72.8385 241.01 73.2407C240.726 73.6429 240.443 74.0609 240.159 74.4947C239.875 74.9206 239.603 75.3425 239.342 75.7605C239.082 76.1785 238.857 76.5492 238.668 76.8726H237.686V70.7209H238.751V75.1454C238.956 74.8062 239.189 74.4356 239.449 74.0333C239.709 73.6232 239.977 73.221 240.253 72.8267C240.537 72.4244 240.817 72.0419 241.093 71.6791C241.377 71.3085 241.641 70.9891 241.886 70.7209H242.856ZM247.288 74.4829C247.17 74.4829 247.056 74.4829 246.945 74.4829C246.835 74.475 246.728 74.4671 246.626 74.4592C246.374 74.8378 246.129 75.2439 245.892 75.6777C245.664 76.1036 245.459 76.5019 245.277 76.8726H244.165C244.26 76.6438 244.37 76.4112 244.496 76.1746C244.623 75.9301 244.749 75.6935 244.875 75.4648C245.009 75.2361 245.143 75.0192 245.277 74.8141C245.411 74.6091 245.538 74.4237 245.656 74.2581C245.435 74.1792 245.254 74.0846 245.112 73.9742C244.97 73.8559 244.855 73.7258 244.769 73.5838C244.682 73.4418 244.619 73.292 244.579 73.1342C244.548 72.9686 244.532 72.803 244.532 72.6374C244.532 72.2904 244.595 71.9867 244.721 71.7265C244.855 71.4662 245.037 71.2533 245.265 71.0876C245.494 70.9141 245.762 70.784 246.07 70.6972C246.385 70.6105 246.728 70.5671 247.099 70.5671C247.62 70.5671 248.061 70.5908 248.424 70.6381C248.787 70.6854 249.09 70.7406 249.335 70.8037V76.8726H248.247V74.4829H247.288ZM248.247 71.5372C248.16 71.5214 248.014 71.5056 247.809 71.4899C247.612 71.4741 247.383 71.4662 247.123 71.4662C246.673 71.4662 246.31 71.5608 246.034 71.7501C245.758 71.9315 245.62 72.2233 245.62 72.6256C245.62 73.0199 245.762 73.292 246.046 73.4418C246.33 73.5917 246.697 73.6666 247.146 73.6666H248.247V71.5372Z" fill="#151515"/>
<rect x="32.3697" y="109.817" width="255.261" height="40.8784" rx="8.50289" stroke="#AFC4D1" stroke-width="0.739382"/>
<path d="M47.4151 130.746H49.651V128.309H50.5974V130.746H52.8333V131.681H50.5974V134.13H49.651V131.681H47.4151V130.746ZM55.3939 134.757C55.4413 134.126 55.5517 133.463 55.7252 132.769C55.9066 132.067 56.1274 131.389 56.3877 130.734C56.6479 130.072 56.9318 129.461 57.2394 128.901C57.5549 128.333 57.8625 127.871 58.1622 127.517H54.1754V126.558H59.3925V127.469C59.1322 127.769 58.8444 128.183 58.5289 128.711C58.2134 129.232 57.9137 129.819 57.6298 130.474C57.3538 131.121 57.1132 131.815 56.9082 132.556C56.711 133.29 56.5888 134.023 56.5415 134.757H55.3939Z" fill="#151515"/>
<path opacity="0.5" d="M70.2517 130.652C70.2517 129.279 70.4922 128.222 70.9733 127.481C71.4623 126.74 72.1366 126.369 72.9962 126.369C73.8559 126.369 74.5263 126.74 75.0074 127.481C75.4963 128.222 75.7408 129.279 75.7408 130.652C75.7408 132.024 75.4963 133.081 75.0074 133.822C74.5263 134.563 73.8559 134.934 72.9962 134.934C72.1366 134.934 71.4623 134.563 70.9733 133.822C70.4922 133.081 70.2517 132.024 70.2517 130.652ZM74.5815 130.652C74.5815 130.202 74.5539 129.776 74.4987 129.374C74.4513 128.972 74.3646 128.621 74.2384 128.321C74.1201 128.021 73.9584 127.785 73.7534 127.611C73.5483 127.43 73.2959 127.339 72.9962 127.339C72.6965 127.339 72.4442 127.43 72.2391 127.611C72.0341 127.785 71.8684 128.021 71.7423 128.321C71.624 128.621 71.5372 128.972 71.482 129.374C71.4347 129.776 71.411 130.202 71.411 130.652C71.411 131.101 71.4347 131.527 71.482 131.929C71.5372 132.331 71.624 132.682 71.7423 132.982C71.8684 133.282 72.0341 133.522 72.2391 133.704C72.4442 133.877 72.6965 133.964 72.9962 133.964C73.2959 133.964 73.5483 133.877 73.7534 133.704C73.9584 133.522 74.1201 133.282 74.2384 132.982C74.3646 132.682 74.4513 132.331 74.4987 131.929C74.5539 131.527 74.5815 131.101 74.5815 130.652ZM76.9292 130.652C76.9292 129.279 77.1697 128.222 77.6508 127.481C78.1398 126.74 78.8141 126.369 79.6738 126.369C80.5334 126.369 81.2038 126.74 81.6849 127.481C82.1739 128.222 82.4184 129.279 82.4184 130.652C82.4184 132.024 82.1739 133.081 81.6849 133.822C81.2038 134.563 80.5334 134.934 79.6738 134.934C78.8141 134.934 78.1398 134.563 77.6508 133.822C77.1697 133.081 76.9292 132.024 76.9292 130.652ZM81.259 130.652C81.259 130.202 81.2314 129.776 81.1762 129.374C81.1289 128.972 81.0421 128.621 80.9159 128.321C80.7976 128.021 80.636 127.785 80.4309 127.611C80.2259 127.43 79.9735 127.339 79.6738 127.339C79.3741 127.339 79.1217 127.43 78.9167 127.611C78.7116 127.785 78.546 128.021 78.4198 128.321C78.3015 128.621 78.2147 128.972 78.1595 129.374C78.1122 129.776 78.0886 130.202 78.0886 130.652C78.0886 131.101 78.1122 131.527 78.1595 131.929C78.2147 132.331 78.3015 132.682 78.4198 132.982C78.546 133.282 78.7116 133.522 78.9167 133.704C79.1217 133.877 79.3741 133.964 79.6738 133.964C79.9735 133.964 80.2259 133.877 80.4309 133.704C80.636 133.522 80.7976 133.282 80.9159 132.982C81.0421 132.682 81.1289 132.331 81.1762 131.929C81.2314 131.527 81.259 131.101 81.259 130.652ZM83.6067 130.652C83.6067 129.279 83.8473 128.222 84.3284 127.481C84.8174 126.74 85.4917 126.369 86.3513 126.369C87.211 126.369 87.8814 126.74 88.3624 127.481C88.8514 128.222 89.0959 129.279 89.0959 130.652C89.0959 132.024 88.8514 133.081 88.3624 133.822C87.8814 134.563 87.211 134.934 86.3513 134.934C85.4917 134.934 84.8174 134.563 84.3284 133.822C83.8473 133.081 83.6067 132.024 83.6067 130.652ZM87.9366 130.652C87.9366 130.202 87.909 129.776 87.8537 129.374C87.8064 128.972 87.7197 128.621 87.5935 128.321C87.4752 128.021 87.3135 127.785 87.1085 127.611C86.9034 127.43 86.651 127.339 86.3513 127.339C86.0516 127.339 85.7993 127.43 85.5942 127.611C85.3891 127.785 85.2235 128.021 85.0973 128.321C84.979 128.621 84.8923 128.972 84.8371 129.374C84.7898 129.776 84.7661 130.202 84.7661 130.652C84.7661 131.101 84.7898 131.527 84.8371 131.929C84.8923 132.331 84.979 132.682 85.0973 132.982C85.2235 133.282 85.3891 133.522 85.5942 133.704C85.7993 133.877 86.0516 133.964 86.3513 133.964C86.651 133.964 86.9034 133.877 87.1085 133.704C87.3135 133.522 87.4752 133.282 87.5935 132.982C87.7197 132.682 87.8064 132.331 87.8537 131.929C87.909 131.527 87.9366 131.101 87.9366 130.652ZM93.0223 130.652C93.0223 129.279 93.2628 128.222 93.7439 127.481C94.2329 126.74 94.9072 126.369 95.7669 126.369C96.6265 126.369 97.2969 126.74 97.778 127.481C98.267 128.222 98.5115 129.279 98.5115 130.652C98.5115 132.024 98.267 133.081 97.778 133.822C97.2969 134.563 96.6265 134.934 95.7669 134.934C94.9072 134.934 94.2329 134.563 93.7439 133.822C93.2628 133.081 93.0223 132.024 93.0223 130.652ZM97.3521 130.652C97.3521 130.202 97.3245 129.776 97.2693 129.374C97.222 128.972 97.1352 128.621 97.009 128.321C96.8907 128.021 96.7291 127.785 96.524 127.611C96.319 127.43 96.0666 127.339 95.7669 127.339C95.4672 127.339 95.2148 127.43 95.0098 127.611C94.8047 127.785 94.6391 128.021 94.5129 128.321C94.3946 128.621 94.3078 128.972 94.2526 129.374C94.2053 129.776 94.1817 130.202 94.1817 130.652C94.1817 131.101 94.2053 131.527 94.2526 131.929C94.3078 132.331 94.3946 132.682 94.5129 132.982C94.6391 133.282 94.8047 133.522 95.0098 133.704C95.2148 133.877 95.4672 133.964 95.7669 133.964C96.0666 133.964 96.319 133.877 96.524 133.704C96.7291 133.522 96.8907 133.282 97.009 132.982C97.1352 132.682 97.222 132.331 97.2693 131.929C97.3245 131.527 97.3521 131.101 97.3521 130.652ZM99.6998 130.652C99.6998 129.279 99.9404 128.222 100.421 127.481C100.91 126.74 101.585 126.369 102.444 126.369C103.304 126.369 103.974 126.74 104.456 127.481C104.945 128.222 105.189 129.279 105.189 130.652C105.189 132.024 104.945 133.081 104.456 133.822C103.974 134.563 103.304 134.934 102.444 134.934C101.585 134.934 100.91 134.563 100.421 133.822C99.9404 133.081 99.6998 132.024 99.6998 130.652ZM104.03 130.652C104.03 130.202 104.002 129.776 103.947 129.374C103.9 128.972 103.813 128.621 103.687 128.321C103.568 128.021 103.407 127.785 103.202 127.611C102.996 127.43 102.744 127.339 102.444 127.339C102.145 127.339 101.892 127.43 101.687 127.611C101.482 127.785 101.317 128.021 101.19 128.321C101.072 128.621 100.985 128.972 100.93 129.374C100.883 129.776 100.859 130.202 100.859 130.652C100.859 131.101 100.883 131.527 100.93 131.929C100.985 132.331 101.072 132.682 101.19 132.982C101.317 133.282 101.482 133.522 101.687 133.704C101.892 133.877 102.145 133.964 102.444 133.964C102.744 133.964 102.996 133.877 103.202 133.704C103.407 133.522 103.568 133.282 103.687 132.982C103.813 132.682 103.9 132.331 103.947 131.929C104.002 131.527 104.03 131.101 104.03 130.652ZM109.115 130.652C109.115 129.279 109.356 128.222 109.837 127.481C110.326 126.74 111 126.369 111.86 126.369C112.72 126.369 113.39 126.74 113.871 127.481C114.36 128.222 114.605 129.279 114.605 130.652C114.605 132.024 114.36 133.081 113.871 133.822C113.39 134.563 112.72 134.934 111.86 134.934C111 134.934 110.326 134.563 109.837 133.822C109.356 133.081 109.115 132.024 109.115 130.652ZM113.445 130.652C113.445 130.202 113.418 129.776 113.362 129.374C113.315 128.972 113.228 128.621 113.102 128.321C112.984 128.021 112.822 127.785 112.617 127.611C112.412 127.43 112.16 127.339 111.86 127.339C111.56 127.339 111.308 127.43 111.103 127.611C110.898 127.785 110.732 128.021 110.606 128.321C110.488 128.621 110.401 128.972 110.346 129.374C110.298 129.776 110.275 130.202 110.275 130.652C110.275 131.101 110.298 131.527 110.346 131.929C110.401 132.331 110.488 132.682 110.606 132.982C110.732 133.282 110.898 133.522 111.103 133.704C111.308 133.877 111.56 133.964 111.86 133.964C112.16 133.964 112.412 133.877 112.617 133.704C112.822 133.522 112.984 133.282 113.102 132.982C113.228 132.682 113.315 132.331 113.362 131.929C113.418 131.527 113.445 131.101 113.445 130.652ZM115.793 130.652C115.793 129.279 116.033 128.222 116.515 127.481C117.004 126.74 117.678 126.369 118.538 126.369C119.397 126.369 120.068 126.74 120.549 127.481C121.038 128.222 121.282 129.279 121.282 130.652C121.282 132.024 121.038 133.081 120.549 133.822C120.068 134.563 119.397 134.934 118.538 134.934C117.678 134.934 117.004 134.563 116.515 133.822C116.033 133.081 115.793 132.024 115.793 130.652ZM120.123 130.652C120.123 130.202 120.095 129.776 120.04 129.374C119.993 128.972 119.906 128.621 119.78 128.321C119.661 128.021 119.5 127.785 119.295 127.611C119.09 127.43 118.837 127.339 118.538 127.339C118.238 127.339 117.985 127.43 117.78 127.611C117.575 127.785 117.41 128.021 117.284 128.321C117.165 128.621 117.078 128.972 117.023 129.374C116.976 129.776 116.952 130.202 116.952 130.652C116.952 131.101 116.976 131.527 117.023 131.929C117.078 132.331 117.165 132.682 117.284 132.982C117.41 133.282 117.575 133.522 117.78 133.704C117.985 133.877 118.238 133.964 118.538 133.964C118.837 133.964 119.09 133.877 119.295 133.704C119.5 133.522 119.661 133.282 119.78 132.982C119.906 132.682 119.993 132.331 120.04 131.929C120.095 131.527 120.123 131.101 120.123 130.652Z" fill="#151515"/>
<rect x="32" y="174.726" width="256" height="45.9964" rx="8.87258" fill="#0788F1"/>
<path d="M129.768 193.315V201.513H127.922V194.876H124.87V201.513H123.025V193.315H129.768ZM135.535 198.449C135.535 197.905 135.412 197.471 135.168 197.148C134.923 196.817 134.561 196.651 134.08 196.651C133.922 196.651 133.776 196.659 133.642 196.675C133.508 196.683 133.397 196.694 133.311 196.71V199.892C133.421 199.963 133.563 200.023 133.736 200.07C133.918 200.117 134.099 200.141 134.281 200.141C135.117 200.141 135.535 199.577 135.535 198.449ZM137.333 198.402C137.333 198.883 137.274 199.321 137.155 199.715C137.037 200.109 136.864 200.448 136.635 200.732C136.406 201.016 136.122 201.237 135.783 201.395C135.444 201.553 135.054 201.631 134.612 201.631C134.367 201.631 134.139 201.608 133.926 201.561C133.713 201.513 133.508 201.446 133.311 201.359V203.702H131.548V195.503C131.706 195.456 131.887 195.413 132.092 195.373C132.297 195.326 132.51 195.287 132.731 195.255C132.96 195.224 133.188 195.2 133.417 195.184C133.654 195.16 133.878 195.149 134.091 195.149C134.604 195.149 135.061 195.227 135.464 195.385C135.866 195.535 136.205 195.752 136.481 196.036C136.757 196.312 136.966 196.651 137.108 197.053C137.258 197.455 137.333 197.905 137.333 198.402ZM144.508 198.39C144.508 198.879 144.437 199.329 144.295 199.739C144.153 200.141 143.948 200.488 143.68 200.78C143.412 201.064 143.088 201.284 142.71 201.442C142.339 201.6 141.921 201.679 141.456 201.679C140.998 201.679 140.58 201.6 140.202 201.442C139.831 201.284 139.512 201.064 139.244 200.78C138.975 200.488 138.766 200.141 138.617 199.739C138.467 199.329 138.392 198.879 138.392 198.39C138.392 197.901 138.467 197.455 138.617 197.053C138.774 196.651 138.987 196.308 139.255 196.024C139.531 195.74 139.855 195.519 140.225 195.362C140.604 195.204 141.014 195.125 141.456 195.125C141.905 195.125 142.315 195.204 142.686 195.362C143.065 195.519 143.388 195.74 143.656 196.024C143.924 196.308 144.133 196.651 144.283 197.053C144.433 197.455 144.508 197.901 144.508 198.39ZM142.71 198.39C142.71 197.846 142.599 197.42 142.379 197.112C142.166 196.797 141.858 196.639 141.456 196.639C141.054 196.639 140.742 196.797 140.521 197.112C140.3 197.42 140.19 197.846 140.19 198.39C140.19 198.934 140.3 199.368 140.521 199.691C140.742 200.007 141.054 200.165 141.456 200.165C141.858 200.165 142.166 200.007 142.379 199.691C142.599 199.368 142.71 198.934 142.71 198.39ZM145.282 200.07H146.051C146.272 199.802 146.441 199.471 146.56 199.076C146.686 198.674 146.773 198.252 146.82 197.81C146.875 197.361 146.907 196.915 146.914 196.474C146.922 196.032 146.926 195.638 146.926 195.291H151.777V200.07H152.83V203.288H151.327V201.513H146.784V203.288H145.282V200.07ZM150.014 200.07V196.734H148.571C148.555 197.01 148.535 197.298 148.512 197.597C148.496 197.889 148.46 198.181 148.405 198.473C148.358 198.757 148.291 199.037 148.204 199.313C148.117 199.589 148.003 199.841 147.861 200.07H150.014ZM159.711 198.39C159.711 198.879 159.641 199.329 159.499 199.739C159.357 200.141 159.152 200.488 158.883 200.78C158.615 201.064 158.292 201.284 157.913 201.442C157.543 201.6 157.125 201.679 156.659 201.679C156.202 201.679 155.784 201.6 155.405 201.442C155.035 201.284 154.715 201.064 154.447 200.78C154.179 200.488 153.97 200.141 153.82 199.739C153.67 199.329 153.595 198.879 153.595 198.39C153.595 197.901 153.67 197.455 153.82 197.053C153.978 196.651 154.191 196.308 154.459 196.024C154.735 195.74 155.058 195.519 155.429 195.362C155.808 195.204 156.218 195.125 156.659 195.125C157.109 195.125 157.519 195.204 157.89 195.362C158.268 195.519 158.592 195.74 158.86 196.024C159.128 196.308 159.337 196.651 159.487 197.053C159.637 197.455 159.711 197.901 159.711 198.39ZM157.913 198.39C157.913 197.846 157.803 197.42 157.582 197.112C157.369 196.797 157.062 196.639 156.659 196.639C156.257 196.639 155.946 196.797 155.725 197.112C155.504 197.42 155.394 197.846 155.394 198.39C155.394 198.934 155.504 199.368 155.725 199.691C155.946 200.007 156.257 200.165 156.659 200.165C157.062 200.165 157.369 200.007 157.582 199.691C157.803 199.368 157.913 198.934 157.913 198.39ZM163.869 196.734C163.861 196.963 163.849 197.207 163.833 197.467C163.825 197.72 163.806 197.976 163.774 198.236C163.743 198.489 163.699 198.737 163.644 198.982C163.597 199.226 163.534 199.455 163.455 199.668C163.36 199.92 163.238 200.157 163.088 200.377C162.946 200.59 162.761 200.784 162.532 200.957C162.311 201.131 162.039 201.277 161.716 201.395C161.4 201.505 161.03 201.58 160.604 201.62L160.367 200.153C160.769 200.074 161.081 199.963 161.302 199.821C161.523 199.672 161.688 199.482 161.799 199.254C161.885 199.056 161.952 198.828 162 198.567C162.055 198.307 162.094 198.035 162.118 197.751C162.142 197.459 162.153 197.164 162.153 196.864C162.161 196.564 162.165 196.276 162.165 196V195.291H166.838V201.513H165.076V196.734H163.869ZM167.784 201.513C168.178 200.874 168.585 200.287 169.003 199.75C169.421 199.214 169.866 198.694 170.339 198.189C169.843 197.676 169.389 197.175 168.979 196.687C168.577 196.19 168.218 195.724 167.902 195.291H169.961C170.166 195.582 170.41 195.921 170.694 196.308C170.986 196.687 171.365 197.168 171.83 197.751V195.291H173.545V197.751C174.026 197.175 174.409 196.694 174.693 196.308C174.977 195.914 175.221 195.574 175.426 195.291H177.461C177.169 195.74 176.826 196.205 176.432 196.687C176.038 197.16 175.576 197.657 175.048 198.177C175.332 198.477 175.584 198.761 175.805 199.029C176.034 199.289 176.247 199.549 176.444 199.81C176.649 200.07 176.842 200.342 177.023 200.626C177.205 200.902 177.394 201.198 177.591 201.513H175.627C175.036 200.622 174.342 199.683 173.545 198.698V201.513H171.83V198.698C171.428 199.234 171.045 199.739 170.682 200.212C170.32 200.685 170.008 201.119 169.748 201.513H167.784ZM184.2 195.291V201.513H182.425C182.425 201.119 182.429 200.728 182.437 200.342C182.445 199.948 182.453 199.585 182.461 199.254C182.469 198.922 182.477 198.635 182.485 198.39C182.5 198.138 182.508 197.952 182.508 197.834C182.279 198.157 182.051 198.485 181.822 198.816C181.593 199.147 181.373 199.474 181.16 199.798C180.955 200.113 180.757 200.417 180.568 200.709C180.387 201.001 180.225 201.269 180.083 201.513H178.533V195.291H180.296C180.296 195.685 180.292 196.063 180.284 196.426C180.284 196.781 180.28 197.104 180.272 197.396C180.264 197.688 180.257 197.944 180.249 198.165C180.241 198.378 180.237 198.544 180.237 198.662C180.71 197.968 181.144 197.345 181.538 196.793C181.94 196.241 182.331 195.74 182.709 195.291H184.2ZM191.004 196.734H189.016V201.513H187.254V196.734H185.266V195.291H191.004V196.734ZM194.711 200.283C195.035 200.283 195.287 200.224 195.468 200.105C195.658 199.979 195.752 199.778 195.752 199.502C195.752 199.36 195.721 199.242 195.658 199.147C195.595 199.045 195.508 198.966 195.397 198.911C195.287 198.847 195.157 198.804 195.007 198.78C194.865 198.757 194.711 198.745 194.546 198.745C194.427 198.745 194.297 198.753 194.155 198.769C194.013 198.784 193.907 198.8 193.836 198.816V200.236C193.931 200.251 194.057 200.263 194.214 200.271C194.372 200.279 194.538 200.283 194.711 200.283ZM193.836 197.503C193.946 197.471 194.088 197.448 194.262 197.432C194.443 197.408 194.648 197.396 194.877 197.396C195.248 197.396 195.591 197.44 195.906 197.526C196.23 197.613 196.509 197.747 196.746 197.929C196.983 198.102 197.168 198.327 197.302 198.603C197.436 198.871 197.503 199.187 197.503 199.549C197.503 199.912 197.44 200.228 197.314 200.496C197.188 200.756 197.006 200.973 196.77 201.146C196.533 201.312 196.249 201.434 195.918 201.513C195.595 201.6 195.232 201.643 194.83 201.643C194.309 201.643 193.832 201.616 193.398 201.561C192.964 201.513 192.523 201.434 192.073 201.324V195.291H193.836V197.503Z" fill="white"/>
</svg>
