<svg width="320" height="248" viewBox="0 0 320 248" fill="none" xmlns="http://www.w3.org/2000/svg">
<rect width="320" height="342" rx="24" fill="white"/>
<rect x="12" y="12" width="296" height="36" rx="12" fill="#F3F8FD"/>
<path opacity="0.5" d="M98.7461 25.298V35H97.3881V26.46H92.7261V35H91.3681V25.298H98.7461ZM107.499 31.36C107.499 31.9387 107.415 32.4613 107.247 32.928C107.079 33.3947 106.841 33.796 106.533 34.132C106.234 34.468 105.875 34.7293 105.455 34.916C105.035 35.0933 104.578 35.182 104.083 35.182C103.588 35.182 103.131 35.0933 102.711 34.916C102.291 34.7293 101.927 34.468 101.619 34.132C101.32 33.796 101.087 33.3947 100.919 32.928C100.751 32.4613 100.667 31.9387 100.667 31.36C100.667 30.7907 100.751 30.2727 100.919 29.806C101.087 29.33 101.32 28.924 101.619 28.588C101.927 28.252 102.291 27.9953 102.711 27.818C103.131 27.6313 103.588 27.538 104.083 27.538C104.578 27.538 105.035 27.6313 105.455 27.818C105.875 27.9953 106.234 28.252 106.533 28.588C106.841 28.924 107.079 29.33 107.247 29.806C107.415 30.2727 107.499 30.7907 107.499 31.36ZM106.141 31.36C106.141 30.5387 105.954 29.89 105.581 29.414C105.217 28.9287 104.718 28.686 104.083 28.686C103.448 28.686 102.944 28.9287 102.571 29.414C102.207 29.89 102.025 30.5387 102.025 31.36C102.025 32.1813 102.207 32.8347 102.571 33.32C102.944 33.796 103.448 34.034 104.083 34.034C104.718 34.034 105.217 33.796 105.581 33.32C105.954 32.8347 106.141 32.1813 106.141 31.36ZM115.295 35H113.993V31.78H110.633V35H109.331V27.72H110.633V30.688H113.993V27.72H115.295V35ZM117.128 31.374C117.128 30.73 117.221 30.17 117.408 29.694C117.595 29.2087 117.842 28.8073 118.15 28.49C118.458 28.1727 118.813 27.9347 119.214 27.776C119.615 27.6173 120.026 27.538 120.446 27.538C121.426 27.538 122.177 27.846 122.7 28.462C123.223 29.0687 123.484 29.9973 123.484 31.248C123.484 31.304 123.484 31.3787 123.484 31.472C123.484 31.556 123.479 31.6353 123.47 31.71H118.486C118.542 32.466 118.761 33.04 119.144 33.432C119.527 33.824 120.124 34.02 120.936 34.02C121.393 34.02 121.776 33.9827 122.084 33.908C122.401 33.824 122.639 33.7447 122.798 33.67L122.98 34.762C122.821 34.846 122.541 34.9347 122.14 35.028C121.748 35.1213 121.3 35.168 120.796 35.168C120.161 35.168 119.611 35.0747 119.144 34.888C118.687 34.692 118.309 34.426 118.01 34.09C117.711 33.754 117.487 33.3573 117.338 32.9C117.198 32.4333 117.128 31.9247 117.128 31.374ZM122.126 30.66C122.135 30.072 121.986 29.5913 121.678 29.218C121.379 28.8353 120.964 28.644 120.432 28.644C120.133 28.644 119.867 28.7047 119.634 28.826C119.41 28.938 119.219 29.0873 119.06 29.274C118.901 29.4607 118.775 29.6753 118.682 29.918C118.598 30.1607 118.542 30.408 118.514 30.66H122.126ZM124.458 33.936H125.242C125.55 33.488 125.793 33.026 125.97 32.55C126.157 32.074 126.297 31.584 126.39 31.08C126.484 30.5667 126.544 30.0347 126.572 29.484C126.6 28.924 126.619 28.336 126.628 27.72H131.402V33.936H132.382V37.03H131.15V35H125.69V37.03H124.458V33.936ZM130.1 33.936V28.812H127.818C127.809 29.2507 127.786 29.694 127.748 30.142C127.711 30.5807 127.65 31.0193 127.566 31.458C127.482 31.8873 127.361 32.312 127.202 32.732C127.053 33.1427 126.862 33.544 126.628 33.936H130.1ZM133.384 31.374C133.384 30.73 133.477 30.17 133.664 29.694C133.851 29.2087 134.098 28.8073 134.406 28.49C134.714 28.1727 135.069 27.9347 135.47 27.776C135.871 27.6173 136.282 27.538 136.702 27.538C137.682 27.538 138.433 27.846 138.956 28.462C139.479 29.0687 139.74 29.9973 139.74 31.248C139.74 31.304 139.74 31.3787 139.74 31.472C139.74 31.556 139.735 31.6353 139.726 31.71H134.742C134.798 32.466 135.017 33.04 135.4 33.432C135.783 33.824 136.38 34.02 137.192 34.02C137.649 34.02 138.032 33.9827 138.34 33.908C138.657 33.824 138.895 33.7447 139.054 33.67L139.236 34.762C139.077 34.846 138.797 34.9347 138.396 35.028C138.004 35.1213 137.556 35.168 137.052 35.168C136.417 35.168 135.867 35.0747 135.4 34.888C134.943 34.692 134.565 34.426 134.266 34.09C133.967 33.754 133.743 33.3573 133.594 32.9C133.454 32.4333 133.384 31.9247 133.384 31.374ZM138.382 30.66C138.391 30.072 138.242 29.5913 137.934 29.218C137.635 28.8353 137.22 28.644 136.688 28.644C136.389 28.644 136.123 28.7047 135.89 28.826C135.666 28.938 135.475 29.0873 135.316 29.274C135.157 29.4607 135.031 29.6753 134.938 29.918C134.854 30.1607 134.798 30.408 134.77 30.66H138.382ZM144.144 28.812C144.144 29.12 144.135 29.4513 144.116 29.806C144.107 30.1513 144.084 30.5013 144.046 30.856C144.009 31.2013 143.958 31.5467 143.892 31.892C143.827 32.228 143.743 32.5453 143.64 32.844C143.538 33.1427 143.407 33.4227 143.248 33.684C143.099 33.9453 142.912 34.1787 142.688 34.384C142.464 34.58 142.203 34.748 141.904 34.888C141.606 35.0187 141.256 35.1027 140.854 35.14L140.672 34.048C141.13 33.9547 141.489 33.782 141.75 33.53C142.021 33.278 142.236 32.97 142.394 32.606C142.534 32.2887 142.637 31.9293 142.702 31.528C142.768 31.1267 142.814 30.7113 142.842 30.282C142.87 29.8433 142.884 29.4047 142.884 28.966C142.894 28.5273 142.898 28.112 142.898 27.72H147.742V35H146.44V28.812H144.144ZM152.735 34.09C153.286 34.09 153.72 33.9827 154.037 33.768C154.355 33.5533 154.513 33.208 154.513 32.732C154.513 32.4987 154.467 32.298 154.373 32.13C154.28 31.962 154.149 31.8267 153.981 31.724C153.823 31.612 153.636 31.5327 153.421 31.486C153.207 31.43 152.978 31.402 152.735 31.402C152.483 31.402 152.222 31.4113 151.951 31.43C151.69 31.4393 151.466 31.4673 151.279 31.514V34.02C151.335 34.0293 151.419 34.0387 151.531 34.048C151.643 34.0573 151.765 34.0667 151.895 34.076C152.035 34.076 152.175 34.0807 152.315 34.09C152.465 34.09 152.605 34.09 152.735 34.09ZM149.977 34.846V27.72H151.279V30.506C151.354 30.4873 151.452 30.4687 151.573 30.45C151.704 30.4313 151.839 30.4127 151.979 30.394C152.129 30.3753 152.283 30.3613 152.441 30.352C152.6 30.3427 152.749 30.338 152.889 30.338C153.291 30.338 153.669 30.3847 154.023 30.478C154.378 30.562 154.686 30.702 154.947 30.898C155.218 31.0847 155.433 31.332 155.591 31.64C155.75 31.9387 155.829 32.298 155.829 32.718C155.829 33.1567 155.755 33.53 155.605 33.838C155.456 34.146 155.241 34.398 154.961 34.594C154.681 34.79 154.345 34.93 153.953 35.014C153.571 35.1073 153.141 35.154 152.665 35.154C152.199 35.154 151.741 35.126 151.293 35.07C150.845 35.0233 150.407 34.9487 149.977 34.846ZM163.338 35H162.036V31.78H158.676V35H157.374V27.72H158.676V30.688H162.036V27.72H163.338V35ZM171.695 27.72V35H170.435V29.456C170.155 29.8107 169.847 30.226 169.511 30.702C169.175 31.178 168.839 31.6727 168.503 32.186C168.167 32.69 167.845 33.1893 167.537 33.684C167.229 34.1787 166.963 34.6173 166.739 35H165.577V27.72H166.837V32.956C167.08 32.5547 167.355 32.116 167.663 31.64C167.971 31.1547 168.288 30.6787 168.615 30.212C168.951 29.736 169.282 29.2833 169.609 28.854C169.945 28.4153 170.258 28.0373 170.547 27.72H171.695ZM176.591 31.038C176.88 31.2433 177.193 31.5047 177.529 31.822C177.865 32.13 178.191 32.466 178.509 32.83C178.835 33.194 179.139 33.5673 179.419 33.95C179.699 34.3233 179.937 34.6733 180.133 35H178.593C178.387 34.6827 178.145 34.3607 177.865 34.034C177.594 33.698 177.309 33.376 177.011 33.068C176.712 32.76 176.409 32.4753 176.101 32.214C175.793 31.9527 175.503 31.7333 175.233 31.556V35H173.931V27.72H175.233V30.842C175.457 30.6273 175.713 30.38 176.003 30.1C176.292 29.8107 176.581 29.5213 176.871 29.232C177.169 28.9333 177.445 28.6533 177.697 28.392C177.949 28.1213 178.154 27.8973 178.313 27.72H179.825C179.619 27.944 179.377 28.2007 179.097 28.49C178.826 28.77 178.541 29.0593 178.243 29.358C177.953 29.6567 177.664 29.9553 177.375 30.254C177.085 30.5433 176.824 30.8047 176.591 31.038ZM182.822 33.404C182.831 33.4787 182.836 33.5533 182.836 33.628C182.836 33.6933 182.836 33.7633 182.836 33.838C182.836 34.426 182.747 35.0047 182.57 35.574C182.402 36.1527 182.169 36.7033 181.87 37.226L180.862 36.904C181.095 36.428 181.249 35.9427 181.324 35.448C181.399 34.9627 181.436 34.5053 181.436 34.076C181.436 33.9547 181.431 33.838 181.422 33.726C181.422 33.614 181.417 33.5067 181.408 33.404H182.822ZM193.554 27.776C193.554 28.112 193.484 28.4387 193.344 28.756C193.213 29.064 193.036 29.372 192.812 29.68C192.588 29.9787 192.336 30.2773 192.056 30.576C191.776 30.8653 191.496 31.15 191.216 31.43C191.057 31.5887 190.87 31.7753 190.656 31.99C190.45 32.2047 190.254 32.4287 190.068 32.662C189.881 32.8953 189.722 33.1193 189.592 33.334C189.47 33.5487 189.41 33.7353 189.41 33.894H193.876V35H187.996C187.986 34.944 187.982 34.888 187.982 34.832C187.982 34.776 187.982 34.7247 187.982 34.678C187.982 34.2393 188.052 33.8333 188.192 33.46C188.341 33.0773 188.532 32.718 188.766 32.382C188.999 32.046 189.26 31.7287 189.55 31.43C189.839 31.1313 190.124 30.842 190.404 30.562C190.637 30.338 190.856 30.1187 191.062 29.904C191.276 29.68 191.463 29.4607 191.622 29.246C191.79 29.022 191.92 28.7933 192.014 28.56C192.116 28.3267 192.168 28.0793 192.168 27.818C192.168 27.538 192.121 27.3 192.028 27.104C191.944 26.908 191.827 26.7447 191.678 26.614C191.528 26.4833 191.351 26.39 191.146 26.334C190.95 26.2687 190.74 26.236 190.516 26.236C190.245 26.236 189.998 26.2733 189.774 26.348C189.55 26.4227 189.349 26.5113 189.172 26.614C188.994 26.7073 188.845 26.81 188.724 26.922C188.602 27.0247 188.509 27.104 188.444 27.16L187.8 26.236C187.884 26.1427 188.01 26.0307 188.178 25.9C188.346 25.76 188.546 25.6293 188.78 25.508C189.013 25.3867 189.274 25.284 189.564 25.2C189.853 25.116 190.166 25.074 190.502 25.074C191.519 25.074 192.28 25.312 192.784 25.788C193.297 26.2547 193.554 26.9173 193.554 27.776ZM201.456 27.776C201.456 28.112 201.386 28.4387 201.246 28.756C201.115 29.064 200.938 29.372 200.714 29.68C200.49 29.9787 200.238 30.2773 199.958 30.576C199.678 30.8653 199.398 31.15 199.118 31.43C198.959 31.5887 198.773 31.7753 198.558 31.99C198.353 32.2047 198.157 32.4287 197.97 32.662C197.783 32.8953 197.625 33.1193 197.494 33.334C197.373 33.5487 197.312 33.7353 197.312 33.894H201.778V35H195.898C195.889 34.944 195.884 34.888 195.884 34.832C195.884 34.776 195.884 34.7247 195.884 34.678C195.884 34.2393 195.954 33.8333 196.094 33.46C196.243 33.0773 196.435 32.718 196.668 32.382C196.901 32.046 197.163 31.7287 197.452 31.43C197.741 31.1313 198.026 30.842 198.306 30.562C198.539 30.338 198.759 30.1187 198.964 29.904C199.179 29.68 199.365 29.4607 199.524 29.246C199.692 29.022 199.823 28.7933 199.916 28.56C200.019 28.3267 200.07 28.0793 200.07 27.818C200.07 27.538 200.023 27.3 199.93 27.104C199.846 26.908 199.729 26.7447 199.58 26.614C199.431 26.4833 199.253 26.39 199.048 26.334C198.852 26.2687 198.642 26.236 198.418 26.236C198.147 26.236 197.9 26.2733 197.676 26.348C197.452 26.4227 197.251 26.5113 197.074 26.614C196.897 26.7073 196.747 26.81 196.626 26.922C196.505 27.0247 196.411 27.104 196.346 27.16L195.702 26.236C195.786 26.1427 195.912 26.0307 196.08 25.9C196.248 25.76 196.449 25.6293 196.682 25.508C196.915 25.3867 197.177 25.284 197.466 25.2C197.755 25.116 198.068 25.074 198.404 25.074C199.421 25.074 200.182 25.312 200.686 25.788C201.199 26.2547 201.456 26.9173 201.456 27.776ZM206.285 33.936H207.069C207.377 33.488 207.619 33.026 207.797 32.55C207.983 32.074 208.123 31.584 208.217 31.08C208.31 30.5667 208.371 30.0347 208.399 29.484C208.427 28.924 208.445 28.336 208.455 27.72H213.229V33.936H214.209V37.03H212.977V35H207.517V37.03H206.285V33.936ZM211.927 33.936V28.812H209.645C209.635 29.2507 209.612 29.694 209.575 30.142C209.537 30.5807 209.477 31.0193 209.393 31.458C209.309 31.8873 209.187 32.312 209.029 32.732C208.879 33.1427 208.688 33.544 208.455 33.936H211.927ZM215.21 31.374C215.21 30.73 215.303 30.17 215.49 29.694C215.677 29.2087 215.924 28.8073 216.232 28.49C216.54 28.1727 216.895 27.9347 217.296 27.776C217.697 27.6173 218.108 27.538 218.528 27.538C219.508 27.538 220.259 27.846 220.782 28.462C221.305 29.0687 221.566 29.9973 221.566 31.248C221.566 31.304 221.566 31.3787 221.566 31.472C221.566 31.556 221.561 31.6353 221.552 31.71H216.568C216.624 32.466 216.843 33.04 217.226 33.432C217.609 33.824 218.206 34.02 219.018 34.02C219.475 34.02 219.858 33.9827 220.166 33.908C220.483 33.824 220.721 33.7447 220.88 33.67L221.062 34.762C220.903 34.846 220.623 34.9347 220.222 35.028C219.83 35.1213 219.382 35.168 218.878 35.168C218.243 35.168 217.693 35.0747 217.226 34.888C216.769 34.692 216.391 34.426 216.092 34.09C215.793 33.754 215.569 33.3573 215.42 32.9C215.28 32.4333 215.21 31.9247 215.21 31.374ZM220.208 30.66C220.217 30.072 220.068 29.5913 219.76 29.218C219.461 28.8353 219.046 28.644 218.514 28.644C218.215 28.644 217.949 28.7047 217.716 28.826C217.492 28.938 217.301 29.0873 217.142 29.274C216.983 29.4607 216.857 29.6753 216.764 29.918C216.68 30.1607 216.624 30.408 216.596 30.66H220.208ZM226.096 31.038C226.386 31.2433 226.698 31.5047 227.034 31.822C227.37 32.13 227.697 32.466 228.014 32.83C228.341 33.194 228.644 33.5673 228.924 33.95C229.204 34.3233 229.442 34.6733 229.638 35H228.098C227.893 34.6827 227.65 34.3607 227.37 34.034C227.1 33.698 226.815 33.376 226.516 33.068C226.218 32.76 225.914 32.4753 225.606 32.214C225.298 31.9527 225.009 31.7333 224.738 31.556V35H223.436V27.72H224.738V30.842C224.962 30.6273 225.219 30.38 225.508 30.1C225.798 29.8107 226.087 29.5213 226.376 29.232C226.675 28.9333 226.95 28.6533 227.202 28.392C227.454 28.1213 227.66 27.8973 227.818 27.72H229.33C229.125 27.944 228.882 28.2007 228.602 28.49C228.332 28.77 228.047 29.0593 227.748 29.358C227.459 29.6567 227.17 29.9553 226.88 30.254C226.591 30.5433 226.33 30.8047 226.096 31.038Z" fill="#151515"/>
<rect x="12" y="60" width="142" height="82" rx="12" fill="#F3F8FD"/>
<path d="M29.362 79.146C29.334 79.7713 29.2967 80.4013 29.25 81.036C29.2127 81.6613 29.138 82.268 29.026 82.856C28.9233 83.444 28.7693 83.9947 28.564 84.508C28.368 85.0213 28.0927 85.474 27.738 85.866C27.3927 86.258 26.9587 86.5707 26.436 86.804C25.9133 87.0373 25.274 87.168 24.518 87.196L24.28 85.292C24.952 85.2173 25.47 85.0493 25.834 84.788C26.198 84.5173 26.4733 84.1067 26.66 83.556C26.8933 82.8747 27.0567 81.9973 27.15 80.924C27.2527 79.8413 27.304 78.6327 27.304 77.298H33.926V87H31.742V79.146H29.362ZM35.6769 83.374C35.6769 82.7207 35.7749 82.1513 35.9709 81.666C36.1762 81.1713 36.4422 80.7607 36.7689 80.434C37.0955 80.1073 37.4689 79.86 37.8889 79.692C38.3182 79.524 38.7569 79.44 39.2049 79.44C40.2502 79.44 41.0762 79.762 41.6829 80.406C42.2895 81.0407 42.5929 81.9787 42.5929 83.22C42.5929 83.3413 42.5882 83.4767 42.5789 83.626C42.5695 83.766 42.5602 83.892 42.5509 84.004H37.8189C37.8655 84.4333 38.0662 84.774 38.4209 85.026C38.7755 85.278 39.2515 85.404 39.8489 85.404C40.2315 85.404 40.6049 85.3713 40.9689 85.306C41.3422 85.2313 41.6455 85.1427 41.8789 85.04L42.1589 86.734C42.0469 86.79 41.8975 86.846 41.7109 86.902C41.5242 86.958 41.3142 87.0047 41.0809 87.042C40.8569 87.0887 40.6142 87.126 40.3529 87.154C40.0915 87.182 39.8302 87.196 39.5689 87.196C38.9062 87.196 38.3275 87.098 37.8329 86.902C37.3475 86.706 36.9415 86.44 36.6149 86.104C36.2975 85.7587 36.0595 85.3527 35.9009 84.886C35.7515 84.4193 35.6769 83.9153 35.6769 83.374ZM40.5769 82.576C40.5675 82.3987 40.5349 82.226 40.4789 82.058C40.4322 81.89 40.3529 81.7407 40.2409 81.61C40.1382 81.4793 40.0029 81.372 39.8349 81.288C39.6762 81.204 39.4755 81.162 39.2329 81.162C38.9995 81.162 38.7989 81.204 38.6309 81.288C38.4629 81.3627 38.3229 81.4653 38.2109 81.596C38.0989 81.7267 38.0102 81.8807 37.9449 82.058C37.8889 82.226 37.8469 82.3987 37.8189 82.576H40.5769ZM46.2887 85.46C46.4193 85.4787 46.592 85.4973 46.8067 85.516C47.0307 85.5253 47.236 85.53 47.4227 85.53C47.8893 85.53 48.2533 85.474 48.5147 85.362C48.776 85.2407 48.9067 85.026 48.9067 84.718C48.9067 84.4193 48.7853 84.214 48.5427 84.102C48.3093 83.9807 47.964 83.92 47.5067 83.92H46.2887V85.46ZM47.4647 82.52C47.81 82.52 48.09 82.478 48.3047 82.394C48.5193 82.3007 48.6267 82.1047 48.6267 81.806C48.6267 81.526 48.5053 81.3347 48.2627 81.232C48.02 81.1293 47.7027 81.078 47.3107 81.078C47.18 81.078 47.0073 81.0873 46.7927 81.106C46.5873 81.1153 46.4193 81.1293 46.2887 81.148V82.52H47.4647ZM47.3947 87.14C47.1333 87.14 46.8533 87.1307 46.5547 87.112C46.256 87.0933 45.962 87.0653 45.6727 87.028C45.3833 87 45.108 86.9673 44.8467 86.93C44.5947 86.8833 44.38 86.8413 44.2027 86.804V79.748C44.38 79.7107 44.5947 79.678 44.8467 79.65C45.108 79.6127 45.3833 79.58 45.6727 79.552C45.962 79.524 46.256 79.5053 46.5547 79.496C46.8533 79.4773 47.1333 79.468 47.3947 79.468C48.0013 79.468 48.51 79.5287 48.9207 79.65C49.3407 79.7713 49.6767 79.93 49.9287 80.126C50.19 80.322 50.3767 80.5413 50.4887 80.784C50.6007 81.0267 50.6567 81.2693 50.6567 81.512C50.6567 81.8387 50.5773 82.1373 50.4187 82.408C50.26 82.6787 50.0593 82.8747 49.8167 82.996C49.9473 83.052 50.078 83.1313 50.2087 83.234C50.3487 83.3367 50.4747 83.4627 50.5867 83.612C50.6987 83.752 50.7873 83.9247 50.8527 84.13C50.9273 84.326 50.9647 84.5547 50.9647 84.816C50.9647 85.1147 50.904 85.404 50.7827 85.684C50.6707 85.964 50.4747 86.2113 50.1947 86.426C49.9147 86.6407 49.546 86.8133 49.0887 86.944C48.6313 87.0747 48.0667 87.14 47.3947 87.14ZM59.4578 83.304C59.4578 83.8827 59.3738 84.4147 59.2058 84.9C59.0378 85.376 58.7952 85.7867 58.4778 86.132C58.1605 86.468 57.7778 86.7293 57.3298 86.916C56.8912 87.1027 56.3965 87.196 55.8458 87.196C55.3045 87.196 54.8098 87.1027 54.3618 86.916C53.9232 86.7293 53.5452 86.468 53.2278 86.132C52.9105 85.7867 52.6632 85.376 52.4858 84.9C52.3085 84.4147 52.2198 83.8827 52.2198 83.304C52.2198 82.7253 52.3085 82.198 52.4858 81.722C52.6725 81.246 52.9245 80.84 53.2418 80.504C53.5685 80.168 53.9512 79.9067 54.3898 79.72C54.8378 79.5333 55.3232 79.44 55.8458 79.44C56.3778 79.44 56.8632 79.5333 57.3018 79.72C57.7498 79.9067 58.1325 80.168 58.4498 80.504C58.7672 80.84 59.0145 81.246 59.1918 81.722C59.3692 82.198 59.4578 82.7253 59.4578 83.304ZM57.3298 83.304C57.3298 82.66 57.1992 82.156 56.9378 81.792C56.6858 81.4187 56.3218 81.232 55.8458 81.232C55.3698 81.232 55.0012 81.4187 54.7398 81.792C54.4785 82.156 54.3478 82.66 54.3478 83.304C54.3478 83.948 54.4785 84.4613 54.7398 84.844C55.0012 85.2173 55.3698 85.404 55.8458 85.404C56.3218 85.404 56.6858 85.2173 56.9378 84.844C57.1992 84.4613 57.3298 83.948 57.3298 83.304ZM67.1637 81.344H64.8118V87H62.7258V81.344H60.3738V79.636H67.1637V81.344ZM75.1352 79.636V87H73.0352C73.0352 86.5333 73.0399 86.0713 73.0492 85.614C73.0586 85.1473 73.0679 84.718 73.0772 84.326C73.0866 83.934 73.0959 83.5933 73.1052 83.304C73.1239 83.0053 73.1332 82.786 73.1332 82.646C72.8626 83.0287 72.5919 83.416 72.3212 83.808C72.0506 84.2 71.7892 84.5873 71.5372 84.97C71.2946 85.3433 71.0612 85.7027 70.8372 86.048C70.6226 86.3933 70.4312 86.7107 70.2632 87H68.4292V79.636H70.5152C70.5152 80.1027 70.5106 80.5507 70.5012 80.98C70.5012 81.4 70.4966 81.7827 70.4872 82.128C70.4779 82.4733 70.4686 82.7767 70.4592 83.038C70.4499 83.29 70.4452 83.486 70.4452 83.626C71.0052 82.8047 71.5186 82.0673 71.9852 81.414C72.4612 80.7607 72.9232 80.168 73.3712 79.636H75.1352ZM81.8152 83.374C81.8152 82.73 81.6705 82.2167 81.3812 81.834C81.0919 81.442 80.6625 81.246 80.0932 81.246C79.9065 81.246 79.7339 81.2553 79.5752 81.274C79.4165 81.2833 79.2859 81.2973 79.1832 81.316V85.082C79.3139 85.166 79.4819 85.236 79.6872 85.292C79.9019 85.348 80.1165 85.376 80.3312 85.376C81.3205 85.376 81.8152 84.7087 81.8152 83.374ZM83.9432 83.318C83.9432 83.8873 83.8732 84.4053 83.7332 84.872C83.5932 85.3387 83.3879 85.74 83.1172 86.076C82.8465 86.412 82.5105 86.6733 82.1092 86.86C81.7079 87.0467 81.2459 87.14 80.7232 87.14C80.4339 87.14 80.1632 87.112 79.9112 87.056C79.6592 87 79.4165 86.9207 79.1832 86.818V89.59H77.0972V79.888C77.2839 79.832 77.4985 79.7807 77.7412 79.734C77.9839 79.678 78.2359 79.6313 78.4972 79.594C78.7679 79.5567 79.0385 79.5287 79.3092 79.51C79.5892 79.482 79.8552 79.468 80.1072 79.468C80.7139 79.468 81.2552 79.5613 81.7312 79.748C82.2072 79.9253 82.6085 80.182 82.9352 80.518C83.2619 80.8447 83.5092 81.246 83.6772 81.722C83.8545 82.198 83.9432 82.73 83.9432 83.318ZM92.4344 83.304C92.4344 83.8827 92.3504 84.4147 92.1824 84.9C92.0144 85.376 91.7717 85.7867 91.4544 86.132C91.1371 86.468 90.7544 86.7293 90.3064 86.916C89.8677 87.1027 89.3731 87.196 88.8224 87.196C88.2811 87.196 87.7864 87.1027 87.3384 86.916C86.8997 86.7293 86.5217 86.468 86.2044 86.132C85.8871 85.7867 85.6397 85.376 85.4624 84.9C85.2851 84.4147 85.1964 83.8827 85.1964 83.304C85.1964 82.7253 85.2851 82.198 85.4624 81.722C85.6491 81.246 85.9011 80.84 86.2184 80.504C86.5451 80.168 86.9277 79.9067 87.3664 79.72C87.8144 79.5333 88.2997 79.44 88.8224 79.44C89.3544 79.44 89.8397 79.5333 90.2784 79.72C90.7264 79.9067 91.1091 80.168 91.4264 80.504C91.7437 80.84 91.9911 81.246 92.1684 81.722C92.3457 82.198 92.4344 82.7253 92.4344 83.304ZM90.3064 83.304C90.3064 82.66 90.1757 82.156 89.9144 81.792C89.6624 81.4187 89.2984 81.232 88.8224 81.232C88.3464 81.232 87.9777 81.4187 87.7164 81.792C87.4551 82.156 87.3244 82.66 87.3244 83.304C87.3244 83.948 87.4551 84.4613 87.7164 84.844C87.9777 85.2173 88.3464 85.404 88.8224 85.404C89.2984 85.404 89.6624 85.2173 89.9144 84.844C90.1757 84.4613 90.3064 83.948 90.3064 83.304ZM96.1363 82.212C96.3416 82.016 96.5563 81.8013 96.7803 81.568C97.0136 81.3347 97.2376 81.106 97.4523 80.882C97.667 80.6487 97.8723 80.4247 98.0683 80.21C98.2643 79.9953 98.437 79.804 98.5863 79.636H101.12C100.934 79.832 100.7 80.0747 100.42 80.364C100.15 80.6533 99.8603 80.9567 99.5523 81.274C99.2443 81.582 98.9316 81.89 98.6143 82.198C98.3063 82.506 98.0123 82.7813 97.7323 83.024C98.0123 83.2387 98.311 83.5047 98.6283 83.822C98.9456 84.1393 99.2536 84.48 99.5523 84.844C99.8603 85.208 100.15 85.5767 100.42 85.95C100.7 86.3233 100.938 86.6733 101.134 87H98.7543C98.5863 86.748 98.395 86.4867 98.1803 86.216C97.9656 85.936 97.7416 85.6653 97.5083 85.404C97.275 85.1333 97.037 84.8813 96.7943 84.648C96.561 84.4147 96.3416 84.214 96.1363 84.046V87H94.0503V79.636H96.1363V82.212ZM101.657 83.318C101.657 82.786 101.741 82.2867 101.909 81.82C102.087 81.344 102.339 80.9333 102.665 80.588C102.992 80.2333 103.389 79.9533 103.855 79.748C104.322 79.5427 104.854 79.44 105.451 79.44C105.843 79.44 106.203 79.4773 106.529 79.552C106.856 79.6173 107.173 79.7153 107.481 79.846L107.047 81.512C106.851 81.4373 106.637 81.372 106.403 81.316C106.17 81.26 105.909 81.232 105.619 81.232C105.003 81.232 104.541 81.4233 104.233 81.806C103.935 82.1887 103.785 82.6927 103.785 83.318C103.785 83.9807 103.925 84.494 104.205 84.858C104.495 85.222 104.994 85.404 105.703 85.404C105.955 85.404 106.226 85.3807 106.515 85.334C106.805 85.2873 107.071 85.2127 107.313 85.11L107.607 86.818C107.365 86.9207 107.061 87.0093 106.697 87.084C106.333 87.1587 105.932 87.196 105.493 87.196C104.821 87.196 104.243 87.098 103.757 86.902C103.272 86.6967 102.871 86.4213 102.553 86.076C102.245 85.7307 102.017 85.3247 101.867 84.858C101.727 84.382 101.657 83.8687 101.657 83.318ZM115.713 79.636V87H113.613C113.613 86.5333 113.618 86.0713 113.627 85.614C113.637 85.1473 113.646 84.718 113.655 84.326C113.665 83.934 113.674 83.5933 113.683 83.304C113.702 83.0053 113.711 82.786 113.711 82.646C113.441 83.0287 113.17 83.416 112.899 83.808C112.629 84.2 112.367 84.5873 112.115 84.97C111.873 85.3433 111.639 85.7027 111.415 86.048C111.201 86.3933 111.009 86.7107 110.841 87H109.007V79.636H111.093C111.093 80.1027 111.089 80.5507 111.079 80.98C111.079 81.4 111.075 81.7827 111.065 82.128C111.056 82.4733 111.047 82.7767 111.037 83.038C111.028 83.29 111.023 83.486 111.023 83.626C111.583 82.8047 112.097 82.0673 112.563 81.414C113.039 80.7607 113.501 80.168 113.949 79.636H115.713ZM124.017 87H121.931V84.088H119.761V87H117.675V79.636H119.761V82.38H121.931V79.636H124.017V87Z" fill="#151515"/>
<path d="M29.604 101.808C29.604 102.096 29.544 102.376 29.424 102.648C29.312 102.912 29.16 103.176 28.968 103.44C28.776 103.696 28.56 103.952 28.32 104.208C28.08 104.456 27.84 104.7 27.6 104.94C27.464 105.076 27.304 105.236 27.12 105.42C26.944 105.604 26.776 105.796 26.616 105.996C26.456 106.196 26.32 106.388 26.208 106.572C26.104 106.756 26.052 106.916 26.052 107.052H29.88V108H24.84C24.832 107.952 24.828 107.904 24.828 107.856C24.828 107.808 24.828 107.764 24.828 107.724C24.828 107.348 24.888 107 25.008 106.68C25.136 106.352 25.3 106.044 25.5 105.756C25.7 105.468 25.924 105.196 26.172 104.94C26.42 104.684 26.664 104.436 26.904 104.196C27.104 104.004 27.292 103.816 27.468 103.632C27.652 103.44 27.812 103.252 27.948 103.068C28.092 102.876 28.204 102.68 28.284 102.48C28.372 102.28 28.416 102.068 28.416 101.844C28.416 101.604 28.376 101.4 28.296 101.232C28.224 101.064 28.124 100.924 27.996 100.812C27.868 100.7 27.716 100.62 27.54 100.572C27.372 100.516 27.192 100.488 27 100.488C26.768 100.488 26.556 100.52 26.364 100.584C26.172 100.648 26 100.724 25.848 100.812C25.696 100.892 25.568 100.98 25.464 101.076C25.36 101.164 25.28 101.232 25.224 101.28L24.672 100.488C24.744 100.408 24.852 100.312 24.996 100.2C25.14 100.08 25.312 99.968 25.512 99.864C25.712 99.76 25.936 99.672 26.184 99.6C26.432 99.528 26.7 99.492 26.988 99.492C27.86 99.492 28.512 99.696 28.944 100.104C29.384 100.504 29.604 101.072 29.604 101.808ZM38.9148 101.76V102.696H36.8868V108H35.7708V102.696H33.7428V101.76H38.9148ZM42.1775 107.196C42.4415 107.196 42.6735 107.192 42.8735 107.184C43.0815 107.168 43.2535 107.144 43.3895 107.112V105.252C43.3095 105.212 43.1775 105.18 42.9935 105.156C42.8175 105.124 42.6015 105.108 42.3455 105.108C42.1775 105.108 41.9975 105.12 41.8055 105.144C41.6215 105.168 41.4495 105.22 41.2895 105.3C41.1375 105.372 41.0095 105.476 40.9055 105.612C40.8015 105.74 40.7495 105.912 40.7495 106.128C40.7495 106.528 40.8775 106.808 41.1335 106.968C41.3895 107.12 41.7375 107.196 42.1775 107.196ZM42.0815 101.604C42.5295 101.604 42.9055 101.664 43.2095 101.784C43.5215 101.896 43.7695 102.06 43.9535 102.276C44.1455 102.484 44.2815 102.736 44.3615 103.032C44.4415 103.32 44.4815 103.64 44.4815 103.992V107.892C44.3855 107.908 44.2495 107.932 44.0735 107.964C43.9055 107.988 43.7135 108.012 43.4975 108.036C43.2815 108.06 43.0455 108.08 42.7895 108.096C42.5415 108.12 42.2935 108.132 42.0455 108.132C41.6935 108.132 41.3695 108.096 41.0735 108.024C40.7775 107.952 40.5215 107.84 40.3055 107.688C40.0895 107.528 39.9215 107.32 39.8015 107.064C39.6815 106.808 39.6215 106.5 39.6215 106.14C39.6215 105.796 39.6895 105.5 39.8255 105.252C39.9695 105.004 40.1615 104.804 40.4015 104.652C40.6415 104.5 40.9215 104.388 41.2415 104.316C41.5615 104.244 41.8975 104.208 42.2495 104.208C42.3615 104.208 42.4775 104.216 42.5975 104.232C42.7175 104.24 42.8295 104.256 42.9335 104.28C43.0455 104.296 43.1415 104.312 43.2215 104.328C43.3015 104.344 43.3575 104.356 43.3895 104.364V104.052C43.3895 103.868 43.3695 103.688 43.3295 103.512C43.2895 103.328 43.2175 103.168 43.1135 103.032C43.0095 102.888 42.8655 102.776 42.6815 102.696C42.5055 102.608 42.2735 102.564 41.9855 102.564C41.6175 102.564 41.2935 102.592 41.0135 102.648C40.7415 102.696 40.5375 102.748 40.4015 102.804L40.2695 101.88C40.4135 101.816 40.6535 101.756 40.9895 101.7C41.3255 101.636 41.6895 101.604 42.0815 101.604ZM47.343 102.48C47.591 102.28 47.879 102.128 48.207 102.024C48.543 101.912 48.863 101.856 49.167 101.856C50.063 101.856 50.739 102.132 51.195 102.684C51.659 103.228 51.891 103.988 51.891 104.964C51.891 105.38 51.835 105.78 51.723 106.164C51.611 106.548 51.435 106.888 51.195 107.184C50.963 107.48 50.667 107.716 50.307 107.892C49.947 108.068 49.519 108.156 49.023 108.156C48.455 108.156 47.983 108.052 47.607 107.844C47.231 107.636 46.931 107.352 46.707 106.992C46.491 106.632 46.339 106.212 46.251 105.732C46.163 105.252 46.119 104.744 46.119 104.208C46.119 103.512 46.167 102.864 46.263 102.264C46.367 101.664 46.551 101.136 46.815 100.68C47.079 100.224 47.443 99.848 47.907 99.552C48.379 99.248 48.983 99.044 49.719 98.94C49.935 98.908 50.123 98.884 50.283 98.868C50.451 98.844 50.595 98.824 50.715 98.808C50.843 98.792 50.959 98.776 51.063 98.76C51.167 98.736 51.275 98.712 51.387 98.688L51.507 99.696C51.451 99.712 51.391 99.724 51.327 99.732C51.271 99.74 51.187 99.752 51.075 99.768C50.971 99.784 50.827 99.804 50.643 99.828C50.467 99.852 50.235 99.88 49.947 99.912C49.155 100 48.547 100.24 48.123 100.632C47.699 101.024 47.439 101.64 47.343 102.48ZM47.271 104.388C47.271 104.764 47.295 105.12 47.343 105.456C47.399 105.792 47.491 106.088 47.619 106.344C47.755 106.6 47.935 106.804 48.159 106.956C48.383 107.1 48.671 107.172 49.023 107.172C49.327 107.172 49.587 107.116 49.803 107.004C50.019 106.884 50.195 106.724 50.331 106.524C50.467 106.324 50.567 106.092 50.631 105.828C50.695 105.556 50.727 105.268 50.727 104.964C50.727 104.692 50.699 104.428 50.643 104.172C50.595 103.916 50.503 103.688 50.367 103.488C50.231 103.288 50.047 103.128 49.815 103.008C49.591 102.888 49.307 102.828 48.963 102.828C48.627 102.828 48.303 102.9 47.991 103.044C47.687 103.188 47.451 103.364 47.283 103.572C47.275 103.66 47.271 103.784 47.271 103.944C47.271 104.104 47.271 104.252 47.271 104.388ZM55.6437 102.696C55.6437 102.96 55.6357 103.244 55.6197 103.548C55.6117 103.844 55.5917 104.144 55.5597 104.448C55.5277 104.744 55.4837 105.04 55.4277 105.336C55.3717 105.624 55.2997 105.896 55.2117 106.152C55.1237 106.408 55.0117 106.648 54.8757 106.872C54.7477 107.096 54.5877 107.296 54.3957 107.472C54.2037 107.64 53.9797 107.784 53.7237 107.904C53.4677 108.016 53.1677 108.088 52.8237 108.12L52.6677 107.184C53.0597 107.104 53.3677 106.956 53.5917 106.74C53.8237 106.524 54.0077 106.26 54.1437 105.948C54.2637 105.676 54.3517 105.368 54.4077 105.024C54.4637 104.68 54.5037 104.324 54.5277 103.956C54.5517 103.58 54.5637 103.204 54.5637 102.828C54.5717 102.452 54.5757 102.096 54.5757 101.76H58.7277V108H57.6117V102.696H55.6437ZM60.2956 104.892C60.2956 104.34 60.3756 103.86 60.5356 103.452C60.6956 103.036 60.9076 102.692 61.1716 102.42C61.4356 102.148 61.7396 101.944 62.0836 101.808C62.4276 101.672 62.7796 101.604 63.1396 101.604C63.9796 101.604 64.6236 101.868 65.0716 102.396C65.5196 102.916 65.7436 103.712 65.7436 104.784C65.7436 104.832 65.7436 104.896 65.7436 104.976C65.7436 105.048 65.7396 105.116 65.7316 105.18H61.4596C61.5076 105.828 61.6956 106.32 62.0236 106.656C62.3516 106.992 62.8636 107.16 63.5596 107.16C63.9516 107.16 64.2796 107.128 64.5436 107.064C64.8156 106.992 65.0196 106.924 65.1556 106.86L65.3116 107.796C65.1756 107.868 64.9356 107.944 64.5916 108.024C64.2556 108.104 63.8716 108.144 63.4396 108.144C62.8956 108.144 62.4236 108.064 62.0236 107.904C61.6316 107.736 61.3076 107.508 61.0516 107.22C60.7956 106.932 60.6036 106.592 60.4756 106.2C60.3556 105.8 60.2956 105.364 60.2956 104.892ZM64.5796 104.28C64.5876 103.776 64.4596 103.364 64.1956 103.044C63.9396 102.716 63.5836 102.552 63.1276 102.552C62.8716 102.552 62.6436 102.604 62.4436 102.708C62.2516 102.804 62.0876 102.932 61.9516 103.092C61.8156 103.252 61.7076 103.436 61.6276 103.644C61.5556 103.852 61.5076 104.064 61.4836 104.28H64.5796ZM71.7507 101.76V102.696H69.7227V108H68.6067V102.696H66.5787V101.76H71.7507ZM75.1814 104.604C75.4294 104.78 75.6974 105.004 75.9854 105.276C76.2734 105.54 76.5534 105.828 76.8254 106.14C77.1054 106.452 77.3654 106.772 77.6054 107.1C77.8454 107.42 78.0494 107.72 78.2174 108H76.8974C76.7214 107.728 76.5134 107.452 76.2734 107.172C76.0414 106.884 75.7974 106.608 75.5414 106.344C75.2854 106.08 75.0254 105.836 74.7614 105.612C74.4974 105.388 74.2494 105.2 74.0174 105.048V108H72.9014V101.76H74.0174V104.436C74.2094 104.252 74.4294 104.04 74.6774 103.8C74.9254 103.552 75.1734 103.304 75.4214 103.056C75.6774 102.8 75.9134 102.56 76.1294 102.336C76.3454 102.104 76.5214 101.912 76.6574 101.76H77.9534C77.7774 101.952 77.5694 102.172 77.3294 102.42C77.0974 102.66 76.8534 102.908 76.5974 103.164C76.3494 103.42 76.1014 103.676 75.8534 103.932C75.6054 104.18 75.3814 104.404 75.1814 104.604ZM84.5907 101.76V108H83.5107V103.248C83.2707 103.552 83.0067 103.908 82.7187 104.316C82.4307 104.724 82.1427 105.148 81.8547 105.588C81.5667 106.02 81.2907 106.448 81.0267 106.872C80.7627 107.296 80.5347 107.672 80.3427 108H79.3467V101.76H80.4267V106.248C80.6347 105.904 80.8707 105.528 81.1347 105.12C81.3987 104.704 81.6707 104.296 81.9507 103.896C82.2387 103.488 82.5227 103.1 82.8027 102.732C83.0907 102.356 83.3587 102.032 83.6067 101.76H84.5907ZM90.3762 107.16C90.4242 107.168 90.4922 107.176 90.5802 107.184C90.6682 107.192 90.7682 107.2 90.8802 107.208C90.9922 107.208 91.1082 107.212 91.2282 107.22C91.3562 107.22 91.4762 107.22 91.5882 107.22C91.8202 107.22 92.0402 107.204 92.2482 107.172C92.4642 107.14 92.6482 107.084 92.8002 107.004C92.9602 106.924 93.0842 106.82 93.1722 106.692C93.2682 106.556 93.3162 106.384 93.3162 106.176C93.3162 105.976 93.2722 105.812 93.1842 105.684C93.1042 105.548 92.9922 105.44 92.8482 105.36C92.7042 105.28 92.5322 105.224 92.3322 105.192C92.1402 105.16 91.9322 105.144 91.7082 105.144H90.3762V107.16ZM91.5642 104.316C91.7802 104.316 91.9762 104.304 92.1522 104.28C92.3362 104.248 92.4922 104.196 92.6202 104.124C92.7562 104.052 92.8602 103.956 92.9322 103.836C93.0122 103.716 93.0522 103.564 93.0522 103.38C93.0522 103.188 93.0042 103.036 92.9082 102.924C92.8122 102.812 92.6842 102.728 92.5242 102.672C92.3722 102.608 92.1962 102.568 91.9962 102.552C91.8042 102.528 91.6082 102.516 91.4082 102.516C91.2242 102.516 91.0362 102.52 90.8442 102.528C90.6602 102.536 90.5042 102.544 90.3762 102.552V104.316H91.5642ZM91.5402 108.108C91.0682 108.108 90.6322 108.084 90.2322 108.036C89.8322 107.996 89.5162 107.948 89.2842 107.892V101.82C89.5162 101.764 89.8322 101.716 90.2322 101.676C90.6322 101.628 91.0682 101.604 91.5402 101.604C91.8682 101.604 92.1882 101.632 92.5002 101.688C92.8122 101.744 93.0882 101.84 93.3282 101.976C93.5682 102.104 93.7602 102.284 93.9042 102.516C94.0562 102.74 94.1322 103.02 94.1322 103.356C94.1322 103.66 94.0562 103.92 93.9042 104.136C93.7522 104.352 93.5482 104.52 93.2922 104.64C93.6362 104.76 93.9082 104.94 94.1082 105.18C94.3162 105.412 94.4202 105.74 94.4202 106.164C94.4202 106.54 94.3442 106.852 94.1922 107.1C94.0482 107.348 93.8442 107.548 93.5802 107.7C93.3242 107.852 93.0202 107.956 92.6682 108.012C92.3162 108.076 91.9402 108.108 91.5402 108.108ZM97.8678 107.088H98.5398C98.8038 106.704 99.0118 106.308 99.1638 105.9C99.3238 105.492 99.4438 105.072 99.5238 104.64C99.6038 104.2 99.6558 103.744 99.6798 103.272C99.7038 102.792 99.7198 102.288 99.7278 101.76H103.82V107.088H104.66V109.74H103.604V108H98.9238V109.74H97.8678V107.088ZM102.704 107.088V102.696H100.748C100.74 103.072 100.72 103.452 100.688 103.836C100.656 104.212 100.604 104.588 100.532 104.964C100.46 105.332 100.356 105.696 100.22 106.056C100.092 106.408 99.9278 106.752 99.7278 107.088H102.704ZM105.518 104.892C105.518 104.34 105.598 103.86 105.758 103.452C105.918 103.036 106.13 102.692 106.394 102.42C106.658 102.148 106.962 101.944 107.306 101.808C107.65 101.672 108.002 101.604 108.362 101.604C109.202 101.604 109.846 101.868 110.294 102.396C110.742 102.916 110.966 103.712 110.966 104.784C110.966 104.832 110.966 104.896 110.966 104.976C110.966 105.048 110.962 105.116 110.954 105.18H106.682C106.73 105.828 106.918 106.32 107.246 106.656C107.574 106.992 108.086 107.16 108.782 107.16C109.174 107.16 109.502 107.128 109.766 107.064C110.038 106.992 110.242 106.924 110.378 106.86L110.534 107.796C110.398 107.868 110.158 107.944 109.814 108.024C109.478 108.104 109.094 108.144 108.662 108.144C108.118 108.144 107.646 108.064 107.246 107.904C106.854 107.736 106.53 107.508 106.274 107.22C106.018 106.932 105.826 106.592 105.698 106.2C105.578 105.8 105.518 105.364 105.518 104.892ZM109.802 104.28C109.81 103.776 109.682 103.364 109.418 103.044C109.162 102.716 108.806 102.552 108.35 102.552C108.094 102.552 107.866 102.604 107.666 102.708C107.474 102.804 107.31 102.932 107.174 103.092C107.038 103.252 106.93 103.436 106.85 103.644C106.778 103.852 106.73 104.064 106.706 104.28H109.802ZM117.681 108H116.565V105.24H113.685V108H112.569V101.76H113.685V104.304H116.565V101.76H117.681V108ZM121.965 107.22C122.437 107.22 122.809 107.128 123.081 106.944C123.353 106.76 123.489 106.464 123.489 106.056C123.489 105.856 123.449 105.684 123.369 105.54C123.289 105.396 123.177 105.28 123.033 105.192C122.897 105.096 122.737 105.028 122.553 104.988C122.369 104.94 122.173 104.916 121.965 104.916C121.749 104.916 121.525 104.924 121.293 104.94C121.069 104.948 120.877 104.972 120.717 105.012V107.16C120.765 107.168 120.837 107.176 120.933 107.184C121.029 107.192 121.133 107.2 121.245 107.208C121.365 107.208 121.485 107.212 121.605 107.22C121.733 107.22 121.853 107.22 121.965 107.22ZM119.601 107.868V101.76H120.717V104.148C120.781 104.132 120.865 104.116 120.969 104.1C121.081 104.084 121.197 104.068 121.317 104.052C121.445 104.036 121.577 104.024 121.713 104.016C121.849 104.008 121.977 104.004 122.097 104.004C122.441 104.004 122.765 104.044 123.069 104.124C123.373 104.196 123.637 104.316 123.861 104.484C124.093 104.644 124.277 104.856 124.413 105.12C124.549 105.376 124.617 105.684 124.617 106.044C124.617 106.42 124.553 106.74 124.425 107.004C124.297 107.268 124.113 107.484 123.873 107.652C123.633 107.82 123.345 107.94 123.009 108.012C122.681 108.092 122.313 108.132 121.905 108.132C121.505 108.132 121.113 108.108 120.729 108.06C120.345 108.02 119.969 107.956 119.601 107.868Z" fill="#151515"/>
<path opacity="0.5" d="M28.728 123.456C28.568 123.824 28.4 124.172 28.224 124.5C28.056 124.82 27.852 125.1 27.612 125.34C27.38 125.58 27.096 125.768 26.76 125.904C26.432 126.04 26.024 126.108 25.536 126.108C25.44 126.108 25.34 126.1 25.236 126.084C25.132 126.076 25.032 126.06 24.936 126.036C24.84 126.02 24.756 126 24.684 125.976C24.612 125.952 24.56 125.928 24.528 125.904L24.732 124.92C24.836 124.96 24.96 125 25.104 125.04C25.256 125.08 25.412 125.1 25.572 125.1C25.812 125.1 26.02 125.072 26.196 125.016C26.38 124.952 26.544 124.868 26.688 124.764C26.832 124.652 26.96 124.52 27.072 124.368C27.184 124.208 27.292 124.032 27.396 123.84C27.044 123.272 26.712 122.708 26.4 122.148C26.088 121.58 25.8 121.032 25.536 120.504C25.272 119.976 25.032 119.476 24.816 119.004C24.6 118.524 24.408 118.084 24.24 117.684H25.56C25.824 118.38 26.16 119.156 26.568 120.012C26.984 120.868 27.444 121.764 27.948 122.7C28.268 121.972 28.572 121.172 28.86 120.3C29.156 119.42 29.432 118.548 29.688 117.684H30.948C30.764 118.26 30.58 118.804 30.396 119.316C30.212 119.82 30.028 120.308 29.844 120.78C29.66 121.244 29.476 121.7 29.292 122.148C29.108 122.588 28.92 123.024 28.728 123.456ZM36.407 119.76V120.696H34.379V126H33.263V120.696H31.235V119.76H36.407ZM41.8897 122.892C41.8897 122.164 41.7097 121.604 41.3497 121.212C40.9897 120.82 40.5097 120.624 39.9097 120.624C39.5737 120.624 39.3097 120.636 39.1177 120.66C38.9337 120.684 38.7857 120.712 38.6737 120.744V124.68C38.8097 124.792 39.0057 124.9 39.2617 125.004C39.5177 125.108 39.7977 125.16 40.1017 125.16C40.4217 125.16 40.6937 125.104 40.9177 124.992C41.1497 124.872 41.3377 124.712 41.4817 124.512C41.6257 124.304 41.7297 124.064 41.7937 123.792C41.8577 123.512 41.8897 123.212 41.8897 122.892ZM43.0537 122.892C43.0537 123.364 42.9897 123.8 42.8617 124.2C42.7417 124.6 42.5617 124.944 42.3217 125.232C42.0817 125.52 41.7857 125.744 41.4337 125.904C41.0897 126.064 40.6937 126.144 40.2457 126.144C39.8857 126.144 39.5657 126.096 39.2857 126C39.0137 125.904 38.8097 125.812 38.6737 125.724V128.22H37.5577V119.952C37.8217 119.888 38.1497 119.82 38.5417 119.748C38.9417 119.668 39.4017 119.628 39.9217 119.628C40.4017 119.628 40.8337 119.704 41.2177 119.856C41.6017 120.008 41.9297 120.224 42.2017 120.504C42.4737 120.784 42.6817 121.128 42.8257 121.536C42.9777 121.936 43.0537 122.388 43.0537 122.892ZM50.1321 122.88C50.1321 123.376 50.0601 123.824 49.9161 124.224C49.7721 124.624 49.5681 124.968 49.3041 125.256C49.0481 125.544 48.7401 125.768 48.3801 125.928C48.0201 126.08 47.6281 126.156 47.2041 126.156C46.7801 126.156 46.3881 126.08 46.0281 125.928C45.6681 125.768 45.3561 125.544 45.0921 125.256C44.8361 124.968 44.6361 124.624 44.4921 124.224C44.3481 123.824 44.2761 123.376 44.2761 122.88C44.2761 122.392 44.3481 121.948 44.4921 121.548C44.6361 121.14 44.8361 120.792 45.0921 120.504C45.3561 120.216 45.6681 119.996 46.0281 119.844C46.3881 119.684 46.7801 119.604 47.2041 119.604C47.6281 119.604 48.0201 119.684 48.3801 119.844C48.7401 119.996 49.0481 120.216 49.3041 120.504C49.5681 120.792 49.7721 121.14 49.9161 121.548C50.0601 121.948 50.1321 122.392 50.1321 122.88ZM48.9681 122.88C48.9681 122.176 48.8081 121.62 48.4881 121.212C48.1761 120.796 47.7481 120.588 47.2041 120.588C46.6601 120.588 46.2281 120.796 45.9081 121.212C45.5961 121.62 45.4401 122.176 45.4401 122.88C45.4401 123.584 45.5961 124.144 45.9081 124.56C46.2281 124.968 46.6601 125.172 47.2041 125.172C47.7481 125.172 48.1761 124.968 48.4881 124.56C48.8081 124.144 48.9681 123.584 48.9681 122.88Z" fill="#151515"/>
<rect x="166" y="60" width="142" height="82" rx="12" fill="#5FD98E" fill-opacity="0.5"/>
<path d="M182.354 87.126C181.822 87.126 181.29 87.1073 180.758 87.07C180.235 87.042 179.689 86.9673 179.12 86.846V77.438C179.568 77.354 180.058 77.2933 180.59 77.256C181.122 77.2093 181.617 77.186 182.074 77.186C182.69 77.186 183.255 77.2327 183.768 77.326C184.291 77.41 184.739 77.5593 185.112 77.774C185.485 77.9887 185.775 78.2733 185.98 78.628C186.195 78.9733 186.302 79.4027 186.302 79.916C186.302 80.6907 185.929 81.302 185.182 81.75C185.798 81.9833 186.218 82.3007 186.442 82.702C186.666 83.1033 186.778 83.556 186.778 84.06C186.778 85.0773 186.405 85.8427 185.658 86.356C184.921 86.8693 183.819 87.126 182.354 87.126ZM181.248 82.772V85.278C181.407 85.2967 181.579 85.3107 181.766 85.32C181.953 85.3293 182.158 85.334 182.382 85.334C183.035 85.334 183.563 85.2407 183.964 85.054C184.365 84.8673 184.566 84.522 184.566 84.018C184.566 83.57 184.398 83.2527 184.062 83.066C183.726 82.87 183.245 82.772 182.62 82.772H181.248ZM181.248 81.106H182.312C182.984 81.106 183.465 81.022 183.754 80.854C184.043 80.6767 184.188 80.3967 184.188 80.014C184.188 79.622 184.039 79.3467 183.74 79.188C183.441 79.0293 183.003 78.95 182.424 78.95C182.237 78.95 182.037 78.9547 181.822 78.964C181.607 78.964 181.416 78.9733 181.248 78.992V81.106ZM195.092 79.636V87H192.992C192.992 86.5333 192.997 86.0713 193.006 85.614C193.016 85.1473 193.025 84.718 193.034 84.326C193.044 83.934 193.053 83.5933 193.062 83.304C193.081 83.0053 193.09 82.786 193.09 82.646C192.82 83.0287 192.549 83.416 192.278 83.808C192.008 84.2 191.746 84.5873 191.494 84.97C191.252 85.3433 191.018 85.7027 190.794 86.048C190.58 86.3933 190.388 86.7107 190.22 87H188.386V79.636H190.472C190.472 80.1027 190.468 80.5507 190.458 80.98C190.458 81.4 190.454 81.7827 190.444 82.128C190.435 82.4733 190.426 82.7767 190.416 83.038C190.407 83.29 190.402 83.486 190.402 83.626C190.962 82.8047 191.476 82.0673 191.942 81.414C192.418 80.7607 192.88 80.168 193.328 79.636H195.092ZM203.144 81.344H200.792V87H198.706V81.344H196.354V79.636H203.144V81.344ZM207.224 85.544C207.429 85.544 207.625 85.5393 207.812 85.53C207.998 85.5207 208.148 85.5067 208.26 85.488V83.906C208.176 83.8873 208.05 83.8687 207.882 83.85C207.714 83.8313 207.56 83.822 207.42 83.822C207.224 83.822 207.037 83.836 206.86 83.864C206.692 83.8827 206.542 83.9247 206.412 83.99C206.281 84.0553 206.178 84.144 206.104 84.256C206.029 84.368 205.992 84.508 205.992 84.676C205.992 85.0027 206.099 85.2313 206.314 85.362C206.538 85.4833 206.841 85.544 207.224 85.544ZM207.056 79.44C207.672 79.44 208.185 79.51 208.596 79.65C209.006 79.79 209.333 79.9907 209.576 80.252C209.828 80.5133 210.005 80.8307 210.108 81.204C210.21 81.5773 210.262 81.9927 210.262 82.45V86.79C209.963 86.8553 209.548 86.93 209.016 87.014C208.484 87.1073 207.84 87.154 207.084 87.154C206.608 87.154 206.174 87.112 205.782 87.028C205.399 86.944 205.068 86.8087 204.788 86.622C204.508 86.426 204.293 86.174 204.144 85.866C203.994 85.558 203.92 85.18 203.92 84.732C203.92 84.3027 204.004 83.9387 204.172 83.64C204.349 83.3413 204.582 83.1033 204.872 82.926C205.161 82.7487 205.492 82.6227 205.866 82.548C206.239 82.464 206.626 82.422 207.028 82.422C207.298 82.422 207.536 82.436 207.742 82.464C207.956 82.4827 208.129 82.5107 208.26 82.548V82.352C208.26 81.9973 208.152 81.7127 207.938 81.498C207.723 81.2833 207.35 81.176 206.818 81.176C206.463 81.176 206.113 81.204 205.768 81.26C205.422 81.3067 205.124 81.3767 204.872 81.47L204.606 79.79C204.727 79.7527 204.876 79.7153 205.054 79.678C205.24 79.6313 205.441 79.594 205.656 79.566C205.87 79.5287 206.094 79.5007 206.328 79.482C206.57 79.454 206.813 79.44 207.056 79.44ZM214.22 82.758C214.201 83.0847 214.183 83.4393 214.164 83.822C214.145 84.2047 214.127 84.592 214.108 84.984C214.099 85.3667 214.085 85.7353 214.066 86.09C214.057 86.4353 214.047 86.7387 214.038 87H212.008C212.027 86.4867 212.055 85.908 212.092 85.264C212.139 84.62 212.185 83.9667 212.232 83.304C212.288 82.632 212.344 81.9787 212.4 81.344C212.465 80.7093 212.526 80.14 212.582 79.636H214.318C214.719 80.2893 215.088 80.966 215.424 81.666C215.76 82.366 216.115 83.136 216.488 83.976C216.88 83.08 217.263 82.254 217.636 81.498C218.009 80.7327 218.345 80.112 218.644 79.636H220.408C220.473 80.14 220.534 80.7093 220.59 81.344C220.655 81.9787 220.711 82.632 220.758 83.304C220.814 83.9667 220.861 84.62 220.898 85.264C220.935 85.908 220.963 86.4867 220.982 87H218.91C218.891 86.272 218.863 85.5487 218.826 84.83C218.798 84.1113 218.77 83.416 218.742 82.744L217.202 86.132H215.76L214.22 82.758ZM229.504 79.636V87H227.404C227.404 86.5333 227.409 86.0713 227.418 85.614C227.428 85.1473 227.437 84.718 227.446 84.326C227.456 83.934 227.465 83.5933 227.474 83.304C227.493 83.0053 227.502 82.786 227.502 82.646C227.232 83.0287 226.961 83.416 226.69 83.808C226.42 84.2 226.158 84.5873 225.906 84.97C225.664 85.3433 225.43 85.7027 225.206 86.048C224.992 86.3933 224.8 86.7107 224.632 87H222.798V79.636H224.884C224.884 80.1027 224.88 80.5507 224.87 80.98C224.87 81.4 224.866 81.7827 224.856 82.128C224.847 82.4733 224.838 82.7767 224.828 83.038C224.819 83.29 224.814 83.486 224.814 83.626C225.374 82.8047 225.888 82.0673 226.354 81.414C226.83 80.7607 227.292 80.168 227.74 79.636H229.504ZM237.808 87H235.722V84.088H233.552V87H231.466V79.636H233.552V82.38H235.722V79.636H237.808V87ZM247.692 87.196C246.115 87.196 244.911 86.7573 244.08 85.88C243.259 85.0027 242.848 83.7567 242.848 82.142C242.848 81.3393 242.974 80.6253 243.226 80C243.478 79.3653 243.824 78.8333 244.262 78.404C244.701 77.9653 245.224 77.634 245.83 77.41C246.437 77.186 247.095 77.074 247.804 77.074C248.215 77.074 248.588 77.1067 248.924 77.172C249.26 77.228 249.554 77.298 249.806 77.382C250.058 77.4567 250.268 77.536 250.436 77.62C250.604 77.704 250.726 77.7693 250.8 77.816L250.17 79.58C249.872 79.4213 249.522 79.286 249.12 79.174C248.728 79.062 248.28 79.006 247.776 79.006C247.44 79.006 247.109 79.062 246.782 79.174C246.465 79.286 246.18 79.468 245.928 79.72C245.686 79.9627 245.49 80.28 245.34 80.672C245.191 81.064 245.116 81.54 245.116 82.1C245.116 82.548 245.163 82.968 245.256 83.36C245.359 83.7427 245.518 84.074 245.732 84.354C245.956 84.634 246.246 84.858 246.6 85.026C246.955 85.1847 247.384 85.264 247.888 85.264C248.206 85.264 248.49 85.2453 248.742 85.208C248.994 85.1707 249.218 85.1287 249.414 85.082C249.61 85.026 249.783 84.9653 249.932 84.9C250.082 84.8347 250.217 84.774 250.338 84.718L250.94 86.468C250.632 86.6547 250.198 86.8227 249.638 86.972C249.078 87.1213 248.43 87.196 247.692 87.196Z" fill="#151515"/>
<path d="M179.116 101.4C179.572 101.224 180.016 101 180.448 100.728C180.88 100.448 181.276 100.1 181.636 99.684H182.428V108H181.312V101.232C181.216 101.32 181.096 101.412 180.952 101.508C180.816 101.604 180.664 101.696 180.496 101.784C180.336 101.872 180.164 101.956 179.98 102.036C179.804 102.116 179.632 102.184 179.464 102.24L179.116 101.4ZM192.915 101.76V102.696H190.887V108H189.771V102.696H187.743V101.76H192.915ZM196.177 107.196C196.441 107.196 196.673 107.192 196.873 107.184C197.081 107.168 197.253 107.144 197.389 107.112V105.252C197.309 105.212 197.177 105.18 196.993 105.156C196.817 105.124 196.601 105.108 196.345 105.108C196.177 105.108 195.997 105.12 195.805 105.144C195.621 105.168 195.449 105.22 195.289 105.3C195.137 105.372 195.009 105.476 194.905 105.612C194.801 105.74 194.749 105.912 194.749 106.128C194.749 106.528 194.877 106.808 195.133 106.968C195.389 107.12 195.737 107.196 196.177 107.196ZM196.081 101.604C196.529 101.604 196.905 101.664 197.209 101.784C197.521 101.896 197.769 102.06 197.953 102.276C198.145 102.484 198.281 102.736 198.361 103.032C198.441 103.32 198.481 103.64 198.481 103.992V107.892C198.385 107.908 198.249 107.932 198.073 107.964C197.905 107.988 197.713 108.012 197.497 108.036C197.281 108.06 197.045 108.08 196.789 108.096C196.541 108.12 196.293 108.132 196.045 108.132C195.693 108.132 195.369 108.096 195.073 108.024C194.777 107.952 194.521 107.84 194.305 107.688C194.089 107.528 193.921 107.32 193.801 107.064C193.681 106.808 193.621 106.5 193.621 106.14C193.621 105.796 193.689 105.5 193.825 105.252C193.969 105.004 194.161 104.804 194.401 104.652C194.641 104.5 194.921 104.388 195.241 104.316C195.561 104.244 195.897 104.208 196.249 104.208C196.361 104.208 196.477 104.216 196.597 104.232C196.717 104.24 196.829 104.256 196.933 104.28C197.045 104.296 197.141 104.312 197.221 104.328C197.301 104.344 197.357 104.356 197.389 104.364V104.052C197.389 103.868 197.369 103.688 197.329 103.512C197.289 103.328 197.217 103.168 197.113 103.032C197.009 102.888 196.865 102.776 196.681 102.696C196.505 102.608 196.273 102.564 195.985 102.564C195.617 102.564 195.293 102.592 195.013 102.648C194.741 102.696 194.537 102.748 194.401 102.804L194.269 101.88C194.413 101.816 194.653 101.756 194.989 101.7C195.325 101.636 195.689 101.604 196.081 101.604ZM201.343 102.48C201.591 102.28 201.879 102.128 202.207 102.024C202.543 101.912 202.863 101.856 203.167 101.856C204.063 101.856 204.739 102.132 205.195 102.684C205.659 103.228 205.891 103.988 205.891 104.964C205.891 105.38 205.835 105.78 205.723 106.164C205.611 106.548 205.435 106.888 205.195 107.184C204.963 107.48 204.667 107.716 204.307 107.892C203.947 108.068 203.519 108.156 203.023 108.156C202.455 108.156 201.983 108.052 201.607 107.844C201.231 107.636 200.931 107.352 200.707 106.992C200.491 106.632 200.339 106.212 200.251 105.732C200.163 105.252 200.119 104.744 200.119 104.208C200.119 103.512 200.167 102.864 200.263 102.264C200.367 101.664 200.551 101.136 200.815 100.68C201.079 100.224 201.443 99.848 201.907 99.552C202.379 99.248 202.983 99.044 203.719 98.94C203.935 98.908 204.123 98.884 204.283 98.868C204.451 98.844 204.595 98.824 204.715 98.808C204.843 98.792 204.959 98.776 205.063 98.76C205.167 98.736 205.275 98.712 205.387 98.688L205.507 99.696C205.451 99.712 205.391 99.724 205.327 99.732C205.271 99.74 205.187 99.752 205.075 99.768C204.971 99.784 204.827 99.804 204.643 99.828C204.467 99.852 204.235 99.88 203.947 99.912C203.155 100 202.547 100.24 202.123 100.632C201.699 101.024 201.439 101.64 201.343 102.48ZM201.271 104.388C201.271 104.764 201.295 105.12 201.343 105.456C201.399 105.792 201.491 106.088 201.619 106.344C201.755 106.6 201.935 106.804 202.159 106.956C202.383 107.1 202.671 107.172 203.023 107.172C203.327 107.172 203.587 107.116 203.803 107.004C204.019 106.884 204.195 106.724 204.331 106.524C204.467 106.324 204.567 106.092 204.631 105.828C204.695 105.556 204.727 105.268 204.727 104.964C204.727 104.692 204.699 104.428 204.643 104.172C204.595 103.916 204.503 103.688 204.367 103.488C204.231 103.288 204.047 103.128 203.815 103.008C203.591 102.888 203.307 102.828 202.963 102.828C202.627 102.828 202.303 102.9 201.991 103.044C201.687 103.188 201.451 103.364 201.283 103.572C201.275 103.66 201.271 103.784 201.271 103.944C201.271 104.104 201.271 104.252 201.271 104.388ZM209.644 102.696C209.644 102.96 209.636 103.244 209.62 103.548C209.612 103.844 209.592 104.144 209.56 104.448C209.528 104.744 209.484 105.04 209.428 105.336C209.372 105.624 209.3 105.896 209.212 106.152C209.124 106.408 209.012 106.648 208.876 106.872C208.748 107.096 208.588 107.296 208.396 107.472C208.204 107.64 207.98 107.784 207.724 107.904C207.468 108.016 207.168 108.088 206.824 108.12L206.668 107.184C207.06 107.104 207.368 106.956 207.592 106.74C207.824 106.524 208.008 106.26 208.144 105.948C208.264 105.676 208.352 105.368 208.408 105.024C208.464 104.68 208.504 104.324 208.528 103.956C208.552 103.58 208.564 103.204 208.564 102.828C208.572 102.452 208.576 102.096 208.576 101.76H212.728V108H211.612V102.696H209.644ZM214.296 104.892C214.296 104.34 214.376 103.86 214.536 103.452C214.696 103.036 214.908 102.692 215.172 102.42C215.436 102.148 215.74 101.944 216.084 101.808C216.428 101.672 216.78 101.604 217.14 101.604C217.98 101.604 218.624 101.868 219.072 102.396C219.52 102.916 219.744 103.712 219.744 104.784C219.744 104.832 219.744 104.896 219.744 104.976C219.744 105.048 219.74 105.116 219.732 105.18H215.46C215.508 105.828 215.696 106.32 216.024 106.656C216.352 106.992 216.864 107.16 217.56 107.16C217.952 107.16 218.28 107.128 218.544 107.064C218.816 106.992 219.02 106.924 219.156 106.86L219.312 107.796C219.176 107.868 218.936 107.944 218.592 108.024C218.256 108.104 217.872 108.144 217.44 108.144C216.896 108.144 216.424 108.064 216.024 107.904C215.632 107.736 215.308 107.508 215.052 107.22C214.796 106.932 214.604 106.592 214.476 106.2C214.356 105.8 214.296 105.364 214.296 104.892ZM218.58 104.28C218.588 103.776 218.46 103.364 218.196 103.044C217.94 102.716 217.584 102.552 217.128 102.552C216.872 102.552 216.644 102.604 216.444 102.708C216.252 102.804 216.088 102.932 215.952 103.092C215.816 103.252 215.708 103.436 215.628 103.644C215.556 103.852 215.508 104.064 215.484 104.28H218.58ZM225.751 101.76V102.696H223.723V108H222.607V102.696H220.579V101.76H225.751ZM229.181 104.604C229.429 104.78 229.697 105.004 229.985 105.276C230.273 105.54 230.553 105.828 230.825 106.14C231.105 106.452 231.365 106.772 231.605 107.1C231.845 107.42 232.049 107.72 232.217 108H230.897C230.721 107.728 230.513 107.452 230.273 107.172C230.041 106.884 229.797 106.608 229.541 106.344C229.285 106.08 229.025 105.836 228.761 105.612C228.497 105.388 228.249 105.2 228.017 105.048V108H226.901V101.76H228.017V104.436C228.209 104.252 228.429 104.04 228.677 103.8C228.925 103.552 229.173 103.304 229.421 103.056C229.677 102.8 229.913 102.56 230.129 102.336C230.345 102.104 230.521 101.912 230.657 101.76H231.953C231.777 101.952 231.569 102.172 231.329 102.42C231.097 102.66 230.853 102.908 230.597 103.164C230.349 103.42 230.101 103.676 229.853 103.932C229.605 104.18 229.381 104.404 229.181 104.604ZM235.459 107.196C235.723 107.196 235.955 107.192 236.155 107.184C236.363 107.168 236.535 107.144 236.671 107.112V105.252C236.591 105.212 236.459 105.18 236.275 105.156C236.099 105.124 235.883 105.108 235.627 105.108C235.459 105.108 235.279 105.12 235.087 105.144C234.903 105.168 234.731 105.22 234.571 105.3C234.419 105.372 234.291 105.476 234.187 105.612C234.083 105.74 234.031 105.912 234.031 106.128C234.031 106.528 234.159 106.808 234.415 106.968C234.671 107.12 235.019 107.196 235.459 107.196ZM235.363 101.604C235.811 101.604 236.187 101.664 236.491 101.784C236.803 101.896 237.051 102.06 237.235 102.276C237.427 102.484 237.563 102.736 237.643 103.032C237.723 103.32 237.763 103.64 237.763 103.992V107.892C237.667 107.908 237.531 107.932 237.355 107.964C237.187 107.988 236.995 108.012 236.779 108.036C236.563 108.06 236.327 108.08 236.071 108.096C235.823 108.12 235.575 108.132 235.327 108.132C234.975 108.132 234.651 108.096 234.355 108.024C234.059 107.952 233.803 107.84 233.587 107.688C233.371 107.528 233.203 107.32 233.083 107.064C232.963 106.808 232.903 106.5 232.903 106.14C232.903 105.796 232.971 105.5 233.107 105.252C233.251 105.004 233.443 104.804 233.683 104.652C233.923 104.5 234.203 104.388 234.523 104.316C234.843 104.244 235.179 104.208 235.531 104.208C235.643 104.208 235.759 104.216 235.879 104.232C235.999 104.24 236.111 104.256 236.215 104.28C236.327 104.296 236.423 104.312 236.503 104.328C236.583 104.344 236.639 104.356 236.671 104.364V104.052C236.671 103.868 236.651 103.688 236.611 103.512C236.571 103.328 236.499 103.168 236.395 103.032C236.291 102.888 236.147 102.776 235.963 102.696C235.787 102.608 235.555 102.564 235.267 102.564C234.899 102.564 234.575 102.592 234.295 102.648C234.023 102.696 233.819 102.748 233.683 102.804L233.551 101.88C233.695 101.816 233.935 101.756 234.271 101.7C234.607 101.636 234.971 101.604 235.363 101.604ZM243.486 107.16C243.534 107.168 243.602 107.176 243.69 107.184C243.778 107.192 243.878 107.2 243.99 107.208C244.102 107.208 244.218 107.212 244.338 107.22C244.466 107.22 244.586 107.22 244.698 107.22C244.93 107.22 245.15 107.204 245.358 107.172C245.574 107.14 245.758 107.084 245.91 107.004C246.07 106.924 246.194 106.82 246.282 106.692C246.378 106.556 246.426 106.384 246.426 106.176C246.426 105.976 246.382 105.812 246.294 105.684C246.214 105.548 246.102 105.44 245.958 105.36C245.814 105.28 245.642 105.224 245.442 105.192C245.25 105.16 245.042 105.144 244.818 105.144H243.486V107.16ZM244.674 104.316C244.89 104.316 245.086 104.304 245.262 104.28C245.446 104.248 245.602 104.196 245.73 104.124C245.866 104.052 245.97 103.956 246.042 103.836C246.122 103.716 246.162 103.564 246.162 103.38C246.162 103.188 246.114 103.036 246.018 102.924C245.922 102.812 245.794 102.728 245.634 102.672C245.482 102.608 245.306 102.568 245.106 102.552C244.914 102.528 244.718 102.516 244.518 102.516C244.334 102.516 244.146 102.52 243.954 102.528C243.77 102.536 243.614 102.544 243.486 102.552V104.316H244.674ZM244.65 108.108C244.178 108.108 243.742 108.084 243.342 108.036C242.942 107.996 242.626 107.948 242.394 107.892V101.82C242.626 101.764 242.942 101.716 243.342 101.676C243.742 101.628 244.178 101.604 244.65 101.604C244.978 101.604 245.298 101.632 245.61 101.688C245.922 101.744 246.198 101.84 246.438 101.976C246.678 102.104 246.87 102.284 247.014 102.516C247.166 102.74 247.242 103.02 247.242 103.356C247.242 103.66 247.166 103.92 247.014 104.136C246.862 104.352 246.658 104.52 246.402 104.64C246.746 104.76 247.018 104.94 247.218 105.18C247.426 105.412 247.53 105.74 247.53 106.164C247.53 106.54 247.454 106.852 247.302 107.1C247.158 107.348 246.954 107.548 246.69 107.7C246.434 107.852 246.13 107.956 245.778 108.012C245.426 108.076 245.05 108.108 244.65 108.108ZM250.977 107.088H251.649C251.913 106.704 252.121 106.308 252.273 105.9C252.433 105.492 252.553 105.072 252.633 104.64C252.713 104.2 252.765 103.744 252.789 103.272C252.813 102.792 252.829 102.288 252.837 101.76H256.929V107.088H257.769V109.74H256.713V108H252.033V109.74H250.977V107.088ZM255.813 107.088V102.696H253.857C253.849 103.072 253.829 103.452 253.797 103.836C253.765 104.212 253.713 104.588 253.641 104.964C253.569 105.332 253.465 105.696 253.329 106.056C253.201 106.408 253.037 106.752 252.837 107.088H255.813ZM258.628 104.892C258.628 104.34 258.708 103.86 258.868 103.452C259.028 103.036 259.24 102.692 259.504 102.42C259.768 102.148 260.072 101.944 260.416 101.808C260.76 101.672 261.112 101.604 261.472 101.604C262.312 101.604 262.956 101.868 263.404 102.396C263.852 102.916 264.076 103.712 264.076 104.784C264.076 104.832 264.076 104.896 264.076 104.976C264.076 105.048 264.072 105.116 264.064 105.18H259.792C259.84 105.828 260.028 106.32 260.356 106.656C260.684 106.992 261.196 107.16 261.892 107.16C262.284 107.16 262.612 107.128 262.876 107.064C263.148 106.992 263.352 106.924 263.488 106.86L263.644 107.796C263.508 107.868 263.268 107.944 262.924 108.024C262.588 108.104 262.204 108.144 261.772 108.144C261.228 108.144 260.756 108.064 260.356 107.904C259.964 107.736 259.64 107.508 259.384 107.22C259.128 106.932 258.936 106.592 258.808 106.2C258.688 105.8 258.628 105.364 258.628 104.892ZM262.912 104.28C262.92 103.776 262.792 103.364 262.528 103.044C262.272 102.716 261.916 102.552 261.46 102.552C261.204 102.552 260.976 102.604 260.776 102.708C260.584 102.804 260.42 102.932 260.284 103.092C260.148 103.252 260.04 103.436 259.96 103.644C259.888 103.852 259.84 104.064 259.816 104.28H262.912ZM270.791 108H269.675V105.24H266.795V108H265.679V101.76H266.795V104.304H269.675V101.76H270.791V108ZM275.074 107.22C275.546 107.22 275.918 107.128 276.19 106.944C276.462 106.76 276.598 106.464 276.598 106.056C276.598 105.856 276.558 105.684 276.478 105.54C276.398 105.396 276.286 105.28 276.142 105.192C276.006 105.096 275.846 105.028 275.662 104.988C275.478 104.94 275.282 104.916 275.074 104.916C274.858 104.916 274.634 104.924 274.402 104.94C274.178 104.948 273.986 104.972 273.826 105.012V107.16C273.874 107.168 273.946 107.176 274.042 107.184C274.138 107.192 274.242 107.2 274.354 107.208C274.474 107.208 274.594 107.212 274.714 107.22C274.842 107.22 274.962 107.22 275.074 107.22ZM272.71 107.868V101.76H273.826V104.148C273.89 104.132 273.974 104.116 274.078 104.1C274.19 104.084 274.306 104.068 274.426 104.052C274.554 104.036 274.686 104.024 274.822 104.016C274.958 104.008 275.086 104.004 275.206 104.004C275.55 104.004 275.874 104.044 276.178 104.124C276.482 104.196 276.746 104.316 276.97 104.484C277.202 104.644 277.386 104.856 277.522 105.12C277.658 105.376 277.726 105.684 277.726 106.044C277.726 106.42 277.662 106.74 277.534 107.004C277.406 107.268 277.222 107.484 276.982 107.652C276.742 107.82 276.454 107.94 276.118 108.012C275.79 108.092 275.422 108.132 275.014 108.132C274.614 108.132 274.222 108.108 273.838 108.06C273.454 108.02 273.078 107.956 272.71 107.868Z" fill="#151515"/>
<path opacity="0.5" d="M181.276 126.072C181.108 126.072 180.924 126.068 180.724 126.06C180.532 126.052 180.336 126.04 180.136 126.024C179.944 126.008 179.752 125.988 179.56 125.964C179.368 125.94 179.192 125.908 179.032 125.868V117.804C179.192 117.764 179.368 117.732 179.56 117.708C179.752 117.684 179.944 117.664 180.136 117.648C180.336 117.632 180.532 117.62 180.724 117.612C180.916 117.604 181.096 117.6 181.264 117.6C181.744 117.6 182.192 117.636 182.608 117.708C183.032 117.78 183.396 117.904 183.7 118.08C184.012 118.248 184.256 118.472 184.432 118.752C184.608 119.032 184.696 119.376 184.696 119.784C184.696 120.24 184.588 120.616 184.372 120.912C184.156 121.2 183.868 121.416 183.508 121.56C183.996 121.704 184.384 121.932 184.672 122.244C184.96 122.556 185.104 122.996 185.104 123.564C185.104 124.396 184.796 125.024 184.18 125.448C183.572 125.864 182.604 126.072 181.276 126.072ZM180.184 122.124V125.052C180.272 125.06 180.376 125.068 180.496 125.076C180.6 125.084 180.72 125.092 180.856 125.1C181 125.1 181.164 125.1 181.348 125.1C181.692 125.1 182.016 125.08 182.32 125.04C182.632 124.992 182.904 124.912 183.136 124.8C183.368 124.688 183.552 124.532 183.688 124.332C183.832 124.132 183.904 123.88 183.904 123.576C183.904 123.304 183.852 123.076 183.748 122.892C183.644 122.7 183.492 122.548 183.292 122.436C183.1 122.324 182.868 122.244 182.596 122.196C182.324 122.148 182.02 122.124 181.684 122.124H180.184ZM180.184 121.188H181.408C181.696 121.188 181.968 121.168 182.224 121.128C182.48 121.088 182.7 121.016 182.884 120.912C183.076 120.808 183.224 120.672 183.328 120.504C183.44 120.336 183.496 120.124 183.496 119.868C183.496 119.628 183.44 119.428 183.328 119.268C183.216 119.1 183.06 118.968 182.86 118.872C182.668 118.768 182.44 118.692 182.176 118.644C181.912 118.596 181.632 118.572 181.336 118.572C181.04 118.572 180.808 118.576 180.64 118.584C180.472 118.592 180.32 118.604 180.184 118.62V121.188ZM186.323 122.892C186.323 122.34 186.403 121.86 186.563 121.452C186.723 121.036 186.935 120.692 187.199 120.42C187.463 120.148 187.767 119.944 188.111 119.808C188.455 119.672 188.807 119.604 189.167 119.604C190.007 119.604 190.651 119.868 191.099 120.396C191.547 120.916 191.771 121.712 191.771 122.784C191.771 122.832 191.771 122.896 191.771 122.976C191.771 123.048 191.767 123.116 191.759 123.18H187.487C187.535 123.828 187.723 124.32 188.051 124.656C188.379 124.992 188.891 125.16 189.587 125.16C189.979 125.16 190.307 125.128 190.571 125.064C190.843 124.992 191.047 124.924 191.183 124.86L191.339 125.796C191.203 125.868 190.963 125.944 190.619 126.024C190.283 126.104 189.899 126.144 189.467 126.144C188.923 126.144 188.451 126.064 188.051 125.904C187.659 125.736 187.335 125.508 187.079 125.22C186.823 124.932 186.631 124.592 186.503 124.2C186.383 123.8 186.323 123.364 186.323 122.892ZM190.607 122.28C190.615 121.776 190.487 121.364 190.223 121.044C189.967 120.716 189.611 120.552 189.155 120.552C188.899 120.552 188.671 120.604 188.471 120.708C188.279 120.804 188.115 120.932 187.979 121.092C187.843 121.252 187.735 121.436 187.655 121.644C187.583 121.852 187.535 122.064 187.511 122.28H190.607ZM194.082 119.76V121.596C194.082 122.068 194.202 122.4 194.442 122.592C194.682 122.776 195.01 122.868 195.426 122.868C195.73 122.868 195.982 122.852 196.182 122.82C196.39 122.788 196.574 122.752 196.734 122.712V119.76H197.85V126H196.734V123.576C196.67 123.592 196.586 123.612 196.482 123.636C196.378 123.66 196.258 123.684 196.122 123.708C195.994 123.724 195.858 123.74 195.714 123.756C195.57 123.772 195.43 123.78 195.294 123.78C194.95 123.78 194.634 123.744 194.346 123.672C194.066 123.6 193.822 123.48 193.614 123.312C193.414 123.144 193.254 122.924 193.134 122.652C193.022 122.372 192.966 122.024 192.966 121.608V119.76H194.082ZM199.425 122.892C199.425 122.34 199.505 121.86 199.665 121.452C199.825 121.036 200.037 120.692 200.301 120.42C200.565 120.148 200.869 119.944 201.213 119.808C201.557 119.672 201.909 119.604 202.269 119.604C203.109 119.604 203.753 119.868 204.201 120.396C204.649 120.916 204.872 121.712 204.872 122.784C204.872 122.832 204.872 122.896 204.872 122.976C204.872 123.048 204.868 123.116 204.861 123.18H200.589C200.637 123.828 200.825 124.32 201.153 124.656C201.481 124.992 201.993 125.16 202.689 125.16C203.081 125.16 203.409 125.128 203.673 125.064C203.945 124.992 204.149 124.924 204.285 124.86L204.441 125.796C204.305 125.868 204.065 125.944 203.721 126.024C203.385 126.104 203.001 126.144 202.569 126.144C202.025 126.144 201.553 126.064 201.153 125.904C200.761 125.736 200.437 125.508 200.181 125.22C199.925 124.932 199.733 124.592 199.604 124.2C199.485 123.8 199.425 123.364 199.425 122.892ZM203.709 122.28C203.717 121.776 203.589 121.364 203.325 121.044C203.069 120.716 202.713 120.552 202.257 120.552C202.001 120.552 201.773 120.604 201.573 120.708C201.381 120.804 201.217 120.932 201.081 121.092C200.945 121.252 200.837 121.436 200.757 121.644C200.685 121.852 200.637 122.064 200.613 122.28H203.709ZM210.808 122.892C210.808 122.164 210.628 121.604 210.268 121.212C209.908 120.82 209.428 120.624 208.828 120.624C208.492 120.624 208.228 120.636 208.036 120.66C207.852 120.684 207.704 120.712 207.592 120.744V124.68C207.728 124.792 207.924 124.9 208.18 125.004C208.436 125.108 208.716 125.16 209.02 125.16C209.34 125.16 209.612 125.104 209.836 124.992C210.068 124.872 210.256 124.712 210.4 124.512C210.544 124.304 210.648 124.064 210.712 123.792C210.776 123.512 210.808 123.212 210.808 122.892ZM211.972 122.892C211.972 123.364 211.908 123.8 211.78 124.2C211.66 124.6 211.48 124.944 211.24 125.232C211 125.52 210.704 125.744 210.352 125.904C210.008 126.064 209.612 126.144 209.164 126.144C208.804 126.144 208.484 126.096 208.204 126C207.932 125.904 207.728 125.812 207.592 125.724V128.22H206.476V119.952C206.74 119.888 207.068 119.82 207.46 119.748C207.86 119.668 208.32 119.628 208.84 119.628C209.32 119.628 209.752 119.704 210.136 119.856C210.52 120.008 210.848 120.224 211.12 120.504C211.392 120.784 211.6 121.128 211.744 121.536C211.896 121.936 211.972 122.388 211.972 122.892Z" fill="#151515"/>
<rect x="12" y="154" width="296" height="82" rx="12" fill="#2C9AEE" fill-opacity="0.24"/>
<path d="M31.616 181C31.5133 180.664 31.3967 180.319 31.266 179.964C31.1447 179.609 31.0233 179.255 30.902 178.9H27.122C27.0007 179.255 26.8747 179.609 26.744 179.964C26.6227 180.319 26.5107 180.664 26.408 181H24.14C24.504 179.955 24.8493 178.989 25.176 178.102C25.5027 177.215 25.82 176.38 26.128 175.596C26.4453 174.812 26.7533 174.07 27.052 173.37C27.36 172.661 27.6773 171.97 28.004 171.298H30.09C30.4073 171.97 30.72 172.661 31.028 173.37C31.336 174.07 31.644 174.812 31.952 175.596C32.2693 176.38 32.5913 177.215 32.918 178.102C33.2447 178.989 33.59 179.955 33.954 181H31.616ZM28.998 173.496C28.9513 173.636 28.8813 173.827 28.788 174.07C28.6947 174.313 28.5873 174.593 28.466 174.91C28.3447 175.227 28.2093 175.577 28.06 175.96C27.92 176.343 27.7753 176.744 27.626 177.164H30.384C30.2347 176.744 30.09 176.343 29.95 175.96C29.81 175.577 29.6747 175.227 29.544 174.91C29.4227 174.593 29.3153 174.313 29.222 174.07C29.1287 173.827 29.054 173.636 28.998 173.496ZM37.1418 176.758C37.1232 177.085 37.1045 177.439 37.0858 177.822C37.0672 178.205 37.0485 178.592 37.0298 178.984C37.0205 179.367 37.0065 179.735 36.9878 180.09C36.9785 180.435 36.9692 180.739 36.9598 181H34.9298C34.9485 180.487 34.9765 179.908 35.0138 179.264C35.0605 178.62 35.1072 177.967 35.1538 177.304C35.2098 176.632 35.2658 175.979 35.3218 175.344C35.3872 174.709 35.4478 174.14 35.5038 173.636H37.2398C37.6412 174.289 38.0098 174.966 38.3458 175.666C38.6818 176.366 39.0365 177.136 39.4098 177.976C39.8018 177.08 40.1845 176.254 40.5578 175.498C40.9312 174.733 41.2672 174.112 41.5658 173.636H43.3298C43.3952 174.14 43.4558 174.709 43.5118 175.344C43.5772 175.979 43.6332 176.632 43.6798 177.304C43.7358 177.967 43.7825 178.62 43.8198 179.264C43.8572 179.908 43.8852 180.487 43.9038 181H41.8318C41.8132 180.272 41.7852 179.549 41.7478 178.83C41.7198 178.111 41.6918 177.416 41.6638 176.744L40.1238 180.132H38.6818L37.1418 176.758ZM52.6082 177.304C52.6082 177.883 52.5242 178.415 52.3562 178.9C52.1882 179.376 51.9456 179.787 51.6282 180.132C51.3109 180.468 50.9282 180.729 50.4802 180.916C50.0416 181.103 49.5469 181.196 48.9962 181.196C48.4549 181.196 47.9602 181.103 47.5122 180.916C47.0736 180.729 46.6956 180.468 46.3782 180.132C46.0609 179.787 45.8136 179.376 45.6362 178.9C45.4589 178.415 45.3702 177.883 45.3702 177.304C45.3702 176.725 45.4589 176.198 45.6362 175.722C45.8229 175.246 46.0749 174.84 46.3922 174.504C46.7189 174.168 47.1016 173.907 47.5402 173.72C47.9882 173.533 48.4736 173.44 48.9962 173.44C49.5282 173.44 50.0136 173.533 50.4522 173.72C50.9002 173.907 51.2829 174.168 51.6002 174.504C51.9176 174.84 52.1649 175.246 52.3422 175.722C52.5196 176.198 52.6082 176.725 52.6082 177.304ZM50.4802 177.304C50.4802 176.66 50.3496 176.156 50.0882 175.792C49.8362 175.419 49.4722 175.232 48.9962 175.232C48.5202 175.232 48.1516 175.419 47.8902 175.792C47.6289 176.156 47.4982 176.66 47.4982 177.304C47.4982 177.948 47.6289 178.461 47.8902 178.844C48.1516 179.217 48.5202 179.404 48.9962 179.404C49.4722 179.404 49.8362 179.217 50.0882 178.844C50.3496 178.461 50.4802 177.948 50.4802 177.304ZM56.3101 176.212C56.5155 176.016 56.7301 175.801 56.9541 175.568C57.1875 175.335 57.4115 175.106 57.6261 174.882C57.8408 174.649 58.0461 174.425 58.2421 174.21C58.4381 173.995 58.6108 173.804 58.7601 173.636H61.2941C61.1075 173.832 60.8741 174.075 60.5941 174.364C60.3235 174.653 60.0341 174.957 59.7261 175.274C59.4181 175.582 59.1055 175.89 58.7881 176.198C58.4801 176.506 58.1861 176.781 57.9061 177.024C58.1861 177.239 58.4848 177.505 58.8021 177.822C59.1195 178.139 59.4275 178.48 59.7261 178.844C60.0341 179.208 60.3235 179.577 60.5941 179.95C60.8741 180.323 61.1121 180.673 61.3081 181H58.9281C58.7601 180.748 58.5688 180.487 58.3541 180.216C58.1395 179.936 57.9155 179.665 57.6821 179.404C57.4488 179.133 57.2108 178.881 56.9681 178.648C56.7348 178.415 56.5155 178.214 56.3101 178.046V181H54.2241V173.636H56.3101V176.212ZM61.8312 177.318C61.8312 176.786 61.9152 176.287 62.0832 175.82C62.2605 175.344 62.5125 174.933 62.8392 174.588C63.1658 174.233 63.5625 173.953 64.0292 173.748C64.4958 173.543 65.0278 173.44 65.6252 173.44C66.0172 173.44 66.3765 173.477 66.7032 173.552C67.0298 173.617 67.3472 173.715 67.6552 173.846L67.2212 175.512C67.0252 175.437 66.8105 175.372 66.5772 175.316C66.3438 175.26 66.0825 175.232 65.7932 175.232C65.1772 175.232 64.7152 175.423 64.4072 175.806C64.1085 176.189 63.9592 176.693 63.9592 177.318C63.9592 177.981 64.0992 178.494 64.3792 178.858C64.6685 179.222 65.1678 179.404 65.8772 179.404C66.1292 179.404 66.3998 179.381 66.6892 179.334C66.9785 179.287 67.2445 179.213 67.4872 179.11L67.7812 180.818C67.5385 180.921 67.2352 181.009 66.8712 181.084C66.5072 181.159 66.1058 181.196 65.6672 181.196C64.9952 181.196 64.4165 181.098 63.9312 180.902C63.4458 180.697 63.0445 180.421 62.7272 180.076C62.4192 179.731 62.1905 179.325 62.0412 178.858C61.9012 178.382 61.8312 177.869 61.8312 177.318ZM75.8872 173.636V181H73.7872C73.7872 180.533 73.7918 180.071 73.8012 179.614C73.8105 179.147 73.8198 178.718 73.8292 178.326C73.8385 177.934 73.8478 177.593 73.8572 177.304C73.8758 177.005 73.8852 176.786 73.8852 176.646C73.6145 177.029 73.3438 177.416 73.0732 177.808C72.8025 178.2 72.5412 178.587 72.2892 178.97C72.0465 179.343 71.8132 179.703 71.5892 180.048C71.3745 180.393 71.1832 180.711 71.0152 181H69.1812V173.636H71.2672C71.2672 174.103 71.2625 174.551 71.2532 174.98C71.2532 175.4 71.2485 175.783 71.2392 176.128C71.2298 176.473 71.2205 176.777 71.2112 177.038C71.2018 177.29 71.1972 177.486 71.1972 177.626C71.7572 176.805 72.2705 176.067 72.7372 175.414C73.2132 174.761 73.6752 174.168 74.1232 173.636H75.8872ZM79.9351 176.212C80.1405 176.016 80.3551 175.801 80.5791 175.568C80.8125 175.335 81.0365 175.106 81.2511 174.882C81.4658 174.649 81.6711 174.425 81.8671 174.21C82.0631 173.995 82.2358 173.804 82.3851 173.636H84.9191C84.7325 173.832 84.4991 174.075 84.2191 174.364C83.9485 174.653 83.6591 174.957 83.3511 175.274C83.0431 175.582 82.7305 175.89 82.4131 176.198C82.1051 176.506 81.8111 176.781 81.5311 177.024C81.8111 177.239 82.1098 177.505 82.4271 177.822C82.7445 178.139 83.0525 178.48 83.3511 178.844C83.6591 179.208 83.9485 179.577 84.2191 179.95C84.4991 180.323 84.7371 180.673 84.9331 181H82.5531C82.3851 180.748 82.1938 180.487 81.9791 180.216C81.7645 179.936 81.5405 179.665 81.3071 179.404C81.0738 179.133 80.8358 178.881 80.5931 178.648C80.3598 178.415 80.1405 178.214 79.9351 178.046V181H77.8491V173.636H79.9351V176.212ZM89.5887 175.344C89.5794 175.615 89.5654 175.904 89.5467 176.212C89.5374 176.511 89.514 176.814 89.4767 177.122C89.4394 177.421 89.388 177.715 89.3227 178.004C89.2667 178.293 89.192 178.564 89.0987 178.816C88.9867 179.115 88.842 179.395 88.6647 179.656C88.4967 179.908 88.2774 180.137 88.0067 180.342C87.7454 180.547 87.4234 180.72 87.0407 180.86C86.6674 180.991 86.2287 181.079 85.7247 181.126L85.4447 179.39C85.9207 179.297 86.2894 179.166 86.5507 178.998C86.812 178.821 87.008 178.597 87.1387 178.326C87.2414 178.093 87.3207 177.822 87.3767 177.514C87.442 177.206 87.4887 176.884 87.5167 176.548C87.5447 176.203 87.5587 175.853 87.5587 175.498C87.568 175.143 87.5727 174.803 87.5727 174.476V173.636H93.1027V181H91.0167V175.344H89.5887ZM97.876 179.544C98.0814 179.544 98.2774 179.539 98.464 179.53C98.6507 179.521 98.8 179.507 98.912 179.488V177.906C98.828 177.887 98.702 177.869 98.534 177.85C98.366 177.831 98.212 177.822 98.072 177.822C97.876 177.822 97.6894 177.836 97.512 177.864C97.344 177.883 97.1947 177.925 97.064 177.99C96.9334 178.055 96.8307 178.144 96.756 178.256C96.6814 178.368 96.644 178.508 96.644 178.676C96.644 179.003 96.7514 179.231 96.966 179.362C97.19 179.483 97.4934 179.544 97.876 179.544ZM97.708 173.44C98.324 173.44 98.8374 173.51 99.248 173.65C99.6587 173.79 99.9854 173.991 100.228 174.252C100.48 174.513 100.657 174.831 100.76 175.204C100.863 175.577 100.914 175.993 100.914 176.45V180.79C100.615 180.855 100.2 180.93 99.668 181.014C99.136 181.107 98.492 181.154 97.736 181.154C97.26 181.154 96.826 181.112 96.434 181.028C96.0514 180.944 95.72 180.809 95.44 180.622C95.16 180.426 94.9454 180.174 94.796 179.866C94.6467 179.558 94.572 179.18 94.572 178.732C94.572 178.303 94.656 177.939 94.824 177.64C95.0014 177.341 95.2347 177.103 95.524 176.926C95.8134 176.749 96.1447 176.623 96.518 176.548C96.8914 176.464 97.2787 176.422 97.68 176.422C97.9507 176.422 98.1887 176.436 98.394 176.464C98.6087 176.483 98.7814 176.511 98.912 176.548V176.352C98.912 175.997 98.8047 175.713 98.59 175.498C98.3754 175.283 98.002 175.176 97.47 175.176C97.1154 175.176 96.7654 175.204 96.42 175.26C96.0747 175.307 95.776 175.377 95.524 175.47L95.258 173.79C95.3794 173.753 95.5287 173.715 95.706 173.678C95.8927 173.631 96.0934 173.594 96.308 173.566C96.5227 173.529 96.7467 173.501 96.98 173.482C97.2227 173.454 97.4654 173.44 97.708 173.44ZM104.886 179.46C105.017 179.479 105.19 179.497 105.404 179.516C105.628 179.525 105.834 179.53 106.02 179.53C106.487 179.53 106.851 179.474 107.112 179.362C107.374 179.241 107.504 179.026 107.504 178.718C107.504 178.419 107.383 178.214 107.14 178.102C106.907 177.981 106.562 177.92 106.104 177.92H104.886V179.46ZM106.062 176.52C106.408 176.52 106.688 176.478 106.902 176.394C107.117 176.301 107.224 176.105 107.224 175.806C107.224 175.526 107.103 175.335 106.86 175.232C106.618 175.129 106.3 175.078 105.908 175.078C105.778 175.078 105.605 175.087 105.39 175.106C105.185 175.115 105.017 175.129 104.886 175.148V176.52H106.062ZM105.992 181.14C105.731 181.14 105.451 181.131 105.152 181.112C104.854 181.093 104.56 181.065 104.27 181.028C103.981 181 103.706 180.967 103.444 180.93C103.192 180.883 102.978 180.841 102.8 180.804V173.748C102.978 173.711 103.192 173.678 103.444 173.65C103.706 173.613 103.981 173.58 104.27 173.552C104.56 173.524 104.854 173.505 105.152 173.496C105.451 173.477 105.731 173.468 105.992 173.468C106.599 173.468 107.108 173.529 107.518 173.65C107.938 173.771 108.274 173.93 108.526 174.126C108.788 174.322 108.974 174.541 109.086 174.784C109.198 175.027 109.254 175.269 109.254 175.512C109.254 175.839 109.175 176.137 109.016 176.408C108.858 176.679 108.657 176.875 108.414 176.996C108.545 177.052 108.676 177.131 108.806 177.234C108.946 177.337 109.072 177.463 109.184 177.612C109.296 177.752 109.385 177.925 109.45 178.13C109.525 178.326 109.562 178.555 109.562 178.816C109.562 179.115 109.502 179.404 109.38 179.684C109.268 179.964 109.072 180.211 108.792 180.426C108.512 180.641 108.144 180.813 107.686 180.944C107.229 181.075 106.664 181.14 105.992 181.14Z" fill="#151515"/>
<path d="M25.116 195.4C25.572 195.224 26.016 195 26.448 194.728C26.88 194.448 27.276 194.1 27.636 193.684H28.428V202H27.312V195.232C27.216 195.32 27.096 195.412 26.952 195.508C26.816 195.604 26.664 195.696 26.496 195.784C26.336 195.872 26.164 195.956 25.98 196.036C25.804 196.116 25.632 196.184 25.464 196.24L25.116 195.4ZM38.9148 195.76V196.696H36.8868V202H35.7708V196.696H33.7428V195.76H38.9148ZM42.1775 201.196C42.4415 201.196 42.6735 201.192 42.8735 201.184C43.0815 201.168 43.2535 201.144 43.3895 201.112V199.252C43.3095 199.212 43.1775 199.18 42.9935 199.156C42.8175 199.124 42.6015 199.108 42.3455 199.108C42.1775 199.108 41.9975 199.12 41.8055 199.144C41.6215 199.168 41.4495 199.22 41.2895 199.3C41.1375 199.372 41.0095 199.476 40.9055 199.612C40.8015 199.74 40.7495 199.912 40.7495 200.128C40.7495 200.528 40.8775 200.808 41.1335 200.968C41.3895 201.12 41.7375 201.196 42.1775 201.196ZM42.0815 195.604C42.5295 195.604 42.9055 195.664 43.2095 195.784C43.5215 195.896 43.7695 196.06 43.9535 196.276C44.1455 196.484 44.2815 196.736 44.3615 197.032C44.4415 197.32 44.4815 197.64 44.4815 197.992V201.892C44.3855 201.908 44.2495 201.932 44.0735 201.964C43.9055 201.988 43.7135 202.012 43.4975 202.036C43.2815 202.06 43.0455 202.08 42.7895 202.096C42.5415 202.12 42.2935 202.132 42.0455 202.132C41.6935 202.132 41.3695 202.096 41.0735 202.024C40.7775 201.952 40.5215 201.84 40.3055 201.688C40.0895 201.528 39.9215 201.32 39.8015 201.064C39.6815 200.808 39.6215 200.5 39.6215 200.14C39.6215 199.796 39.6895 199.5 39.8255 199.252C39.9695 199.004 40.1615 198.804 40.4015 198.652C40.6415 198.5 40.9215 198.388 41.2415 198.316C41.5615 198.244 41.8975 198.208 42.2495 198.208C42.3615 198.208 42.4775 198.216 42.5975 198.232C42.7175 198.24 42.8295 198.256 42.9335 198.28C43.0455 198.296 43.1415 198.312 43.2215 198.328C43.3015 198.344 43.3575 198.356 43.3895 198.364V198.052C43.3895 197.868 43.3695 197.688 43.3295 197.512C43.2895 197.328 43.2175 197.168 43.1135 197.032C43.0095 196.888 42.8655 196.776 42.6815 196.696C42.5055 196.608 42.2735 196.564 41.9855 196.564C41.6175 196.564 41.2935 196.592 41.0135 196.648C40.7415 196.696 40.5375 196.748 40.4015 196.804L40.2695 195.88C40.4135 195.816 40.6535 195.756 40.9895 195.7C41.3255 195.636 41.6895 195.604 42.0815 195.604ZM47.343 196.48C47.591 196.28 47.879 196.128 48.207 196.024C48.543 195.912 48.863 195.856 49.167 195.856C50.063 195.856 50.739 196.132 51.195 196.684C51.659 197.228 51.891 197.988 51.891 198.964C51.891 199.38 51.835 199.78 51.723 200.164C51.611 200.548 51.435 200.888 51.195 201.184C50.963 201.48 50.667 201.716 50.307 201.892C49.947 202.068 49.519 202.156 49.023 202.156C48.455 202.156 47.983 202.052 47.607 201.844C47.231 201.636 46.931 201.352 46.707 200.992C46.491 200.632 46.339 200.212 46.251 199.732C46.163 199.252 46.119 198.744 46.119 198.208C46.119 197.512 46.167 196.864 46.263 196.264C46.367 195.664 46.551 195.136 46.815 194.68C47.079 194.224 47.443 193.848 47.907 193.552C48.379 193.248 48.983 193.044 49.719 192.94C49.935 192.908 50.123 192.884 50.283 192.868C50.451 192.844 50.595 192.824 50.715 192.808C50.843 192.792 50.959 192.776 51.063 192.76C51.167 192.736 51.275 192.712 51.387 192.688L51.507 193.696C51.451 193.712 51.391 193.724 51.327 193.732C51.271 193.74 51.187 193.752 51.075 193.768C50.971 193.784 50.827 193.804 50.643 193.828C50.467 193.852 50.235 193.88 49.947 193.912C49.155 194 48.547 194.24 48.123 194.632C47.699 195.024 47.439 195.64 47.343 196.48ZM47.271 198.388C47.271 198.764 47.295 199.12 47.343 199.456C47.399 199.792 47.491 200.088 47.619 200.344C47.755 200.6 47.935 200.804 48.159 200.956C48.383 201.1 48.671 201.172 49.023 201.172C49.327 201.172 49.587 201.116 49.803 201.004C50.019 200.884 50.195 200.724 50.331 200.524C50.467 200.324 50.567 200.092 50.631 199.828C50.695 199.556 50.727 199.268 50.727 198.964C50.727 198.692 50.699 198.428 50.643 198.172C50.595 197.916 50.503 197.688 50.367 197.488C50.231 197.288 50.047 197.128 49.815 197.008C49.591 196.888 49.307 196.828 48.963 196.828C48.627 196.828 48.303 196.9 47.991 197.044C47.687 197.188 47.451 197.364 47.283 197.572C47.275 197.66 47.271 197.784 47.271 197.944C47.271 198.104 47.271 198.252 47.271 198.388ZM55.6437 196.696C55.6437 196.96 55.6357 197.244 55.6197 197.548C55.6117 197.844 55.5917 198.144 55.5597 198.448C55.5277 198.744 55.4837 199.04 55.4277 199.336C55.3717 199.624 55.2997 199.896 55.2117 200.152C55.1237 200.408 55.0117 200.648 54.8757 200.872C54.7477 201.096 54.5877 201.296 54.3957 201.472C54.2037 201.64 53.9797 201.784 53.7237 201.904C53.4677 202.016 53.1677 202.088 52.8237 202.12L52.6677 201.184C53.0597 201.104 53.3677 200.956 53.5917 200.74C53.8237 200.524 54.0077 200.26 54.1437 199.948C54.2637 199.676 54.3517 199.368 54.4077 199.024C54.4637 198.68 54.5037 198.324 54.5277 197.956C54.5517 197.58 54.5637 197.204 54.5637 196.828C54.5717 196.452 54.5757 196.096 54.5757 195.76H58.7277V202H57.6117V196.696H55.6437ZM60.2956 198.892C60.2956 198.34 60.3756 197.86 60.5356 197.452C60.6956 197.036 60.9076 196.692 61.1716 196.42C61.4356 196.148 61.7396 195.944 62.0836 195.808C62.4276 195.672 62.7796 195.604 63.1396 195.604C63.9796 195.604 64.6236 195.868 65.0716 196.396C65.5196 196.916 65.7436 197.712 65.7436 198.784C65.7436 198.832 65.7436 198.896 65.7436 198.976C65.7436 199.048 65.7396 199.116 65.7316 199.18H61.4596C61.5076 199.828 61.6956 200.32 62.0236 200.656C62.3516 200.992 62.8636 201.16 63.5596 201.16C63.9516 201.16 64.2796 201.128 64.5436 201.064C64.8156 200.992 65.0196 200.924 65.1556 200.86L65.3116 201.796C65.1756 201.868 64.9356 201.944 64.5916 202.024C64.2556 202.104 63.8716 202.144 63.4396 202.144C62.8956 202.144 62.4236 202.064 62.0236 201.904C61.6316 201.736 61.3076 201.508 61.0516 201.22C60.7956 200.932 60.6036 200.592 60.4756 200.2C60.3556 199.8 60.2956 199.364 60.2956 198.892ZM64.5796 198.28C64.5876 197.776 64.4596 197.364 64.1956 197.044C63.9396 196.716 63.5836 196.552 63.1276 196.552C62.8716 196.552 62.6436 196.604 62.4436 196.708C62.2516 196.804 62.0876 196.932 61.9516 197.092C61.8156 197.252 61.7076 197.436 61.6276 197.644C61.5556 197.852 61.5076 198.064 61.4836 198.28H64.5796ZM71.7507 195.76V196.696H69.7227V202H68.6067V196.696H66.5787V195.76H71.7507ZM75.1814 198.604C75.4294 198.78 75.6974 199.004 75.9854 199.276C76.2734 199.54 76.5534 199.828 76.8254 200.14C77.1054 200.452 77.3654 200.772 77.6054 201.1C77.8454 201.42 78.0494 201.72 78.2174 202H76.8974C76.7214 201.728 76.5134 201.452 76.2734 201.172C76.0414 200.884 75.7974 200.608 75.5414 200.344C75.2854 200.08 75.0254 199.836 74.7614 199.612C74.4974 199.388 74.2494 199.2 74.0174 199.048V202H72.9014V195.76H74.0174V198.436C74.2094 198.252 74.4294 198.04 74.6774 197.8C74.9254 197.552 75.1734 197.304 75.4214 197.056C75.6774 196.8 75.9134 196.56 76.1294 196.336C76.3454 196.104 76.5214 195.912 76.6574 195.76H77.9534C77.7774 195.952 77.5694 196.172 77.3294 196.42C77.0974 196.66 76.8534 196.908 76.5974 197.164C76.3494 197.42 76.1014 197.676 75.8534 197.932C75.6054 198.18 75.3814 198.404 75.1814 198.604ZM81.4587 201.196C81.7227 201.196 81.9547 201.192 82.1547 201.184C82.3627 201.168 82.5347 201.144 82.6707 201.112V199.252C82.5907 199.212 82.4587 199.18 82.2747 199.156C82.0987 199.124 81.8827 199.108 81.6267 199.108C81.4587 199.108 81.2787 199.12 81.0867 199.144C80.9027 199.168 80.7307 199.22 80.5707 199.3C80.4187 199.372 80.2907 199.476 80.1867 199.612C80.0827 199.74 80.0307 199.912 80.0307 200.128C80.0307 200.528 80.1587 200.808 80.4147 200.968C80.6707 201.12 81.0187 201.196 81.4587 201.196ZM81.3627 195.604C81.8107 195.604 82.1867 195.664 82.4907 195.784C82.8027 195.896 83.0507 196.06 83.2347 196.276C83.4267 196.484 83.5627 196.736 83.6427 197.032C83.7227 197.32 83.7627 197.64 83.7627 197.992V201.892C83.6667 201.908 83.5307 201.932 83.3547 201.964C83.1867 201.988 82.9947 202.012 82.7787 202.036C82.5627 202.06 82.3267 202.08 82.0707 202.096C81.8227 202.12 81.5747 202.132 81.3267 202.132C80.9747 202.132 80.6507 202.096 80.3547 202.024C80.0587 201.952 79.8027 201.84 79.5867 201.688C79.3707 201.528 79.2027 201.32 79.0827 201.064C78.9627 200.808 78.9027 200.5 78.9027 200.14C78.9027 199.796 78.9707 199.5 79.1067 199.252C79.2507 199.004 79.4427 198.804 79.6827 198.652C79.9227 198.5 80.2027 198.388 80.5227 198.316C80.8427 198.244 81.1787 198.208 81.5307 198.208C81.6427 198.208 81.7587 198.216 81.8787 198.232C81.9987 198.24 82.1107 198.256 82.2147 198.28C82.3267 198.296 82.4227 198.312 82.5027 198.328C82.5827 198.344 82.6387 198.356 82.6707 198.364V198.052C82.6707 197.868 82.6507 197.688 82.6107 197.512C82.5707 197.328 82.4987 197.168 82.3947 197.032C82.2907 196.888 82.1467 196.776 81.9627 196.696C81.7867 196.608 81.5547 196.564 81.2667 196.564C80.8987 196.564 80.5747 196.592 80.2947 196.648C80.0227 196.696 79.8187 196.748 79.6827 196.804L79.5507 195.88C79.6947 195.816 79.9347 195.756 80.2707 195.7C80.6067 195.636 80.9707 195.604 81.3627 195.604ZM89.4856 201.16C89.5336 201.168 89.6016 201.176 89.6896 201.184C89.7776 201.192 89.8776 201.2 89.9896 201.208C90.1016 201.208 90.2176 201.212 90.3376 201.22C90.4656 201.22 90.5856 201.22 90.6976 201.22C90.9296 201.22 91.1496 201.204 91.3576 201.172C91.5736 201.14 91.7576 201.084 91.9096 201.004C92.0696 200.924 92.1936 200.82 92.2816 200.692C92.3776 200.556 92.4256 200.384 92.4256 200.176C92.4256 199.976 92.3816 199.812 92.2936 199.684C92.2136 199.548 92.1016 199.44 91.9576 199.36C91.8136 199.28 91.6416 199.224 91.4416 199.192C91.2496 199.16 91.0416 199.144 90.8176 199.144H89.4856V201.16ZM90.6736 198.316C90.8896 198.316 91.0856 198.304 91.2616 198.28C91.4456 198.248 91.6016 198.196 91.7296 198.124C91.8656 198.052 91.9696 197.956 92.0416 197.836C92.1216 197.716 92.1616 197.564 92.1616 197.38C92.1616 197.188 92.1136 197.036 92.0176 196.924C91.9216 196.812 91.7936 196.728 91.6336 196.672C91.4816 196.608 91.3056 196.568 91.1056 196.552C90.9136 196.528 90.7176 196.516 90.5176 196.516C90.3336 196.516 90.1456 196.52 89.9536 196.528C89.7696 196.536 89.6136 196.544 89.4856 196.552V198.316H90.6736ZM90.6496 202.108C90.1776 202.108 89.7416 202.084 89.3416 202.036C88.9416 201.996 88.6256 201.948 88.3936 201.892V195.82C88.6256 195.764 88.9416 195.716 89.3416 195.676C89.7416 195.628 90.1776 195.604 90.6496 195.604C90.9776 195.604 91.2976 195.632 91.6096 195.688C91.9216 195.744 92.1976 195.84 92.4376 195.976C92.6776 196.104 92.8696 196.284 93.0136 196.516C93.1656 196.74 93.2416 197.02 93.2416 197.356C93.2416 197.66 93.1656 197.92 93.0136 198.136C92.8616 198.352 92.6576 198.52 92.4016 198.64C92.7456 198.76 93.0176 198.94 93.2176 199.18C93.4256 199.412 93.5296 199.74 93.5296 200.164C93.5296 200.54 93.4536 200.852 93.3016 201.1C93.1576 201.348 92.9536 201.548 92.6896 201.7C92.4336 201.852 92.1296 201.956 91.7776 202.012C91.4256 202.076 91.0496 202.108 90.6496 202.108ZM96.9772 201.088H97.6492C97.9132 200.704 98.1212 200.308 98.2732 199.9C98.4332 199.492 98.5532 199.072 98.6332 198.64C98.7132 198.2 98.7652 197.744 98.7892 197.272C98.8132 196.792 98.8292 196.288 98.8372 195.76H102.929V201.088H103.769V203.74H102.713V202H98.0332V203.74H96.9772V201.088ZM101.813 201.088V196.696H99.8572C99.8492 197.072 99.8292 197.452 99.7972 197.836C99.7652 198.212 99.7132 198.588 99.6412 198.964C99.5692 199.332 99.4652 199.696 99.3292 200.056C99.2012 200.408 99.0372 200.752 98.8372 201.088H101.813ZM104.628 198.892C104.628 198.34 104.708 197.86 104.868 197.452C105.028 197.036 105.24 196.692 105.504 196.42C105.768 196.148 106.072 195.944 106.416 195.808C106.76 195.672 107.112 195.604 107.472 195.604C108.312 195.604 108.956 195.868 109.404 196.396C109.852 196.916 110.076 197.712 110.076 198.784C110.076 198.832 110.076 198.896 110.076 198.976C110.076 199.048 110.072 199.116 110.064 199.18H105.792C105.84 199.828 106.028 200.32 106.356 200.656C106.684 200.992 107.196 201.16 107.892 201.16C108.284 201.16 108.612 201.128 108.876 201.064C109.148 200.992 109.352 200.924 109.488 200.86L109.644 201.796C109.508 201.868 109.268 201.944 108.924 202.024C108.588 202.104 108.204 202.144 107.772 202.144C107.228 202.144 106.756 202.064 106.356 201.904C105.964 201.736 105.64 201.508 105.384 201.22C105.128 200.932 104.936 200.592 104.808 200.2C104.688 199.8 104.628 199.364 104.628 198.892ZM108.912 198.28C108.92 197.776 108.792 197.364 108.528 197.044C108.272 196.716 107.916 196.552 107.46 196.552C107.204 196.552 106.976 196.604 106.776 196.708C106.584 196.804 106.42 196.932 106.284 197.092C106.148 197.252 106.04 197.436 105.96 197.644C105.888 197.852 105.84 198.064 105.816 198.28H108.912ZM116.791 202H115.675V199.24H112.795V202H111.679V195.76H112.795V198.304H115.675V195.76H116.791V202ZM121.074 201.22C121.546 201.22 121.918 201.128 122.19 200.944C122.462 200.76 122.598 200.464 122.598 200.056C122.598 199.856 122.558 199.684 122.478 199.54C122.398 199.396 122.286 199.28 122.142 199.192C122.006 199.096 121.846 199.028 121.662 198.988C121.478 198.94 121.282 198.916 121.074 198.916C120.858 198.916 120.634 198.924 120.402 198.94C120.178 198.948 119.986 198.972 119.826 199.012V201.16C119.874 201.168 119.946 201.176 120.042 201.184C120.138 201.192 120.242 201.2 120.354 201.208C120.474 201.208 120.594 201.212 120.714 201.22C120.842 201.22 120.962 201.22 121.074 201.22ZM118.71 201.868V195.76H119.826V198.148C119.89 198.132 119.974 198.116 120.078 198.1C120.19 198.084 120.306 198.068 120.426 198.052C120.554 198.036 120.686 198.024 120.822 198.016C120.958 198.008 121.086 198.004 121.206 198.004C121.55 198.004 121.874 198.044 122.178 198.124C122.482 198.196 122.746 198.316 122.97 198.484C123.202 198.644 123.386 198.856 123.522 199.12C123.658 199.376 123.726 199.684 123.726 200.044C123.726 200.42 123.662 200.74 123.534 201.004C123.406 201.268 123.222 201.484 122.982 201.652C122.742 201.82 122.454 201.94 122.118 202.012C121.79 202.092 121.422 202.132 121.014 202.132C120.614 202.132 120.222 202.108 119.838 202.06C119.454 202.02 119.078 201.956 118.71 201.868Z" fill="#151515"/>
<path opacity="0.5" d="M28.728 217.456C28.568 217.824 28.4 218.172 28.224 218.5C28.056 218.82 27.852 219.1 27.612 219.34C27.38 219.58 27.096 219.768 26.76 219.904C26.432 220.04 26.024 220.108 25.536 220.108C25.44 220.108 25.34 220.1 25.236 220.084C25.132 220.076 25.032 220.06 24.936 220.036C24.84 220.02 24.756 220 24.684 219.976C24.612 219.952 24.56 219.928 24.528 219.904L24.732 218.92C24.836 218.96 24.96 219 25.104 219.04C25.256 219.08 25.412 219.1 25.572 219.1C25.812 219.1 26.02 219.072 26.196 219.016C26.38 218.952 26.544 218.868 26.688 218.764C26.832 218.652 26.96 218.52 27.072 218.368C27.184 218.208 27.292 218.032 27.396 217.84C27.044 217.272 26.712 216.708 26.4 216.148C26.088 215.58 25.8 215.032 25.536 214.504C25.272 213.976 25.032 213.476 24.816 213.004C24.6 212.524 24.408 212.084 24.24 211.684H25.56C25.824 212.38 26.16 213.156 26.568 214.012C26.984 214.868 27.444 215.764 27.948 216.7C28.268 215.972 28.572 215.172 28.86 214.3C29.156 213.42 29.432 212.548 29.688 211.684H30.948C30.764 212.26 30.58 212.804 30.396 213.316C30.212 213.82 30.028 214.308 29.844 214.78C29.66 215.244 29.476 215.7 29.292 216.148C29.108 216.588 28.92 217.024 28.728 217.456ZM36.407 213.76V214.696H34.379V220H33.263V214.696H31.235V213.76H36.407ZM41.8897 216.892C41.8897 216.164 41.7097 215.604 41.3497 215.212C40.9897 214.82 40.5097 214.624 39.9097 214.624C39.5737 214.624 39.3097 214.636 39.1177 214.66C38.9337 214.684 38.7857 214.712 38.6737 214.744V218.68C38.8097 218.792 39.0057 218.9 39.2617 219.004C39.5177 219.108 39.7977 219.16 40.1017 219.16C40.4217 219.16 40.6937 219.104 40.9177 218.992C41.1497 218.872 41.3377 218.712 41.4817 218.512C41.6257 218.304 41.7297 218.064 41.7937 217.792C41.8577 217.512 41.8897 217.212 41.8897 216.892ZM43.0537 216.892C43.0537 217.364 42.9897 217.8 42.8617 218.2C42.7417 218.6 42.5617 218.944 42.3217 219.232C42.0817 219.52 41.7857 219.744 41.4337 219.904C41.0897 220.064 40.6937 220.144 40.2457 220.144C39.8857 220.144 39.5657 220.096 39.2857 220C39.0137 219.904 38.8097 219.812 38.6737 219.724V222.22H37.5577V213.952C37.8217 213.888 38.1497 213.82 38.5417 213.748C38.9417 213.668 39.4017 213.628 39.9217 213.628C40.4017 213.628 40.8337 213.704 41.2177 213.856C41.6017 214.008 41.9297 214.224 42.2017 214.504C42.4737 214.784 42.6817 215.128 42.8257 215.536C42.9777 215.936 43.0537 216.388 43.0537 216.892ZM50.1321 216.88C50.1321 217.376 50.0601 217.824 49.9161 218.224C49.7721 218.624 49.5681 218.968 49.3041 219.256C49.0481 219.544 48.7401 219.768 48.3801 219.928C48.0201 220.08 47.6281 220.156 47.2041 220.156C46.7801 220.156 46.3881 220.08 46.0281 219.928C45.6681 219.768 45.3561 219.544 45.0921 219.256C44.8361 218.968 44.6361 218.624 44.4921 218.224C44.3481 217.824 44.2761 217.376 44.2761 216.88C44.2761 216.392 44.3481 215.948 44.4921 215.548C44.6361 215.14 44.8361 214.792 45.0921 214.504C45.3561 214.216 45.6681 213.996 46.0281 213.844C46.3881 213.684 46.7801 213.604 47.2041 213.604C47.6281 213.604 48.0201 213.684 48.3801 213.844C48.7401 213.996 49.0481 214.216 49.3041 214.504C49.5681 214.792 49.7721 215.14 49.9161 215.548C50.0601 215.948 50.1321 216.392 50.1321 216.88ZM48.9681 216.88C48.9681 216.176 48.8081 215.62 48.4881 215.212C48.1761 214.796 47.7481 214.588 47.2041 214.588C46.6601 214.588 46.2281 214.796 45.9081 215.212C45.5961 215.62 45.4401 216.176 45.4401 216.88C45.4401 217.584 45.5961 218.144 45.9081 218.56C46.2281 218.968 46.6601 219.172 47.2041 219.172C47.7481 219.172 48.1761 218.968 48.4881 218.56C48.8081 218.144 48.9681 217.584 48.9681 216.88Z" fill="#151515"/>
</svg>
