<svg width="44" height="44" viewBox="0 0 44 44" fill="none" xmlns="http://www.w3.org/2000/svg">
<path d="M22 0C34.1503 0 44 9.84974 44 22C44 34.1503 34.1503 44 22 44C9.84974 44 0 34.1503 0 22C0 9.84974 9.84974 0 22 0ZM12.9814 12.8779V16.1826C12.9814 17.1798 13.1482 18.0958 13.4814 18.9307C13.8385 19.7655 14.3501 20.5308 15.0166 21.2266C15.683 21.899 16.5037 22.4908 17.4795 23.001L11.8027 30.793H18.9434L22.9785 24.6709C23.4543 24.7173 23.8944 24.8911 24.2988 25.1924C24.7034 25.4706 25.0247 25.8419 25.2627 26.3057C25.5245 26.7463 25.6562 27.2452 25.6562 27.8018V30.793H31.832V27.4541C31.832 26.4105 31.6426 25.4357 31.2617 24.5312C30.9047 23.6268 30.357 22.8266 29.6191 22.1309C28.9052 21.412 28.0123 20.8212 26.9414 20.3574L32.2607 12.8779H25.1201L21.2998 18.6875C20.919 18.5484 20.5617 18.3398 20.2285 18.0615C19.9191 17.7601 19.6576 17.3998 19.4434 16.9824C19.2531 16.5652 19.1583 16.1017 19.1582 15.5918V12.8779H12.9814Z" fill="#0788F1"/>
</svg>
