<svg width="592" height="280" viewBox="0 0 592 280" fill="none" xmlns="http://www.w3.org/2000/svg">
<rect x="91" y="59" width="84" height="162" rx="42" fill="white"/>
<rect x="115" y="98" width="36" height="36" rx="18" fill="#151518"/>
<path d="M139.25 109.125H126.75C126.405 109.125 126.125 109.405 126.125 109.75V122.25C126.125 122.595 126.405 122.875 126.75 122.875H139.25C139.595 122.875 139.875 122.595 139.875 122.25V109.75C139.875 109.405 139.595 109.125 139.25 109.125Z" stroke="white" stroke-width="1.6" stroke-linecap="round" stroke-linejoin="round"/>
<path d="M136.75 107.875V110.375" stroke="white" stroke-width="1.6" stroke-linecap="round" stroke-linejoin="round"/>
<path d="M129.25 107.875V110.375" stroke="white" stroke-width="1.6" stroke-linecap="round" stroke-linejoin="round"/>
<path d="M126.125 112.875H139.875" stroke="white" stroke-width="1.6" stroke-linecap="round" stroke-linejoin="round"/>
<path opacity="0.5" d="M108.797 150.098C108.797 150.49 108.829 150.835 108.895 151.134C108.969 151.423 109.091 151.666 109.259 151.862C109.436 152.049 109.669 152.189 109.959 152.282C110.257 152.375 110.631 152.422 111.079 152.422C111.256 152.422 111.433 152.417 111.611 152.408C111.797 152.389 111.975 152.371 112.143 152.352C112.311 152.333 112.46 152.31 112.591 152.282C112.721 152.254 112.829 152.231 112.913 152.212V147.298H114.271V157H112.913V153.388C112.735 153.435 112.46 153.481 112.087 153.528C111.723 153.575 111.331 153.598 110.911 153.598C110.201 153.598 109.623 153.519 109.175 153.36C108.727 153.192 108.372 152.959 108.111 152.66C107.859 152.352 107.686 151.983 107.593 151.554C107.499 151.115 107.453 150.63 107.453 150.098V147.298H108.797V150.098ZM116.187 153.374C116.187 152.73 116.28 152.17 116.467 151.694C116.653 151.209 116.901 150.807 117.209 150.49C117.517 150.173 117.871 149.935 118.273 149.776C118.674 149.617 119.085 149.538 119.505 149.538C120.485 149.538 121.236 149.846 121.759 150.462C122.281 151.069 122.543 151.997 122.543 153.248C122.543 153.304 122.543 153.379 122.543 153.472C122.543 153.556 122.538 153.635 122.529 153.71H117.545C117.601 154.466 117.82 155.04 118.203 155.432C118.585 155.824 119.183 156.02 119.995 156.02C120.452 156.02 120.835 155.983 121.143 155.908C121.46 155.824 121.698 155.745 121.857 155.67L122.039 156.762C121.88 156.846 121.6 156.935 121.199 157.028C120.807 157.121 120.359 157.168 119.855 157.168C119.22 157.168 118.669 157.075 118.203 156.888C117.745 156.692 117.367 156.426 117.069 156.09C116.77 155.754 116.546 155.357 116.397 154.9C116.257 154.433 116.187 153.925 116.187 153.374ZM121.185 152.66C121.194 152.072 121.045 151.591 120.737 151.218C120.438 150.835 120.023 150.644 119.491 150.644C119.192 150.644 118.926 150.705 118.693 150.826C118.469 150.938 118.277 151.087 118.119 151.274C117.96 151.461 117.834 151.675 117.741 151.918C117.657 152.161 117.601 152.408 117.573 152.66H121.185ZM129.551 149.72V150.812H127.185V157H125.883V150.812H123.517V149.72H129.551ZM132.167 156.02C132.223 156.029 132.303 156.039 132.405 156.048C132.508 156.057 132.625 156.067 132.755 156.076C132.886 156.076 133.021 156.081 133.161 156.09C133.311 156.09 133.451 156.09 133.581 156.09C133.852 156.09 134.109 156.071 134.351 156.034C134.603 155.997 134.818 155.931 134.995 155.838C135.182 155.745 135.327 155.623 135.429 155.474C135.541 155.315 135.597 155.115 135.597 154.872C135.597 154.639 135.546 154.447 135.443 154.298C135.35 154.139 135.219 154.013 135.051 153.92C134.883 153.827 134.683 153.761 134.449 153.724C134.225 153.687 133.983 153.668 133.721 153.668H132.167V156.02ZM133.553 152.702C133.805 152.702 134.034 152.688 134.239 152.66C134.454 152.623 134.636 152.562 134.785 152.478C134.944 152.394 135.065 152.282 135.149 152.142C135.243 152.002 135.289 151.825 135.289 151.61C135.289 151.386 135.233 151.209 135.121 151.078C135.009 150.947 134.86 150.849 134.673 150.784C134.496 150.709 134.291 150.663 134.057 150.644C133.833 150.616 133.605 150.602 133.371 150.602C133.157 150.602 132.937 150.607 132.713 150.616C132.499 150.625 132.317 150.635 132.167 150.644V152.702H133.553ZM133.525 157.126C132.975 157.126 132.466 157.098 131.999 157.042C131.533 156.995 131.164 156.939 130.893 156.874V149.79C131.164 149.725 131.533 149.669 131.999 149.622C132.466 149.566 132.975 149.538 133.525 149.538C133.908 149.538 134.281 149.571 134.645 149.636C135.009 149.701 135.331 149.813 135.611 149.972C135.891 150.121 136.115 150.331 136.283 150.602C136.461 150.863 136.549 151.19 136.549 151.582C136.549 151.937 136.461 152.24 136.283 152.492C136.106 152.744 135.868 152.94 135.569 153.08C135.971 153.22 136.288 153.43 136.521 153.71C136.764 153.981 136.885 154.363 136.885 154.858C136.885 155.297 136.797 155.661 136.619 155.95C136.451 156.239 136.213 156.473 135.905 156.65C135.607 156.827 135.252 156.949 134.841 157.014C134.431 157.089 133.992 157.126 133.525 157.126ZM138.157 153.374C138.157 152.73 138.251 152.17 138.437 151.694C138.624 151.209 138.871 150.807 139.179 150.49C139.487 150.173 139.842 149.935 140.243 149.776C140.645 149.617 141.055 149.538 141.475 149.538C142.455 149.538 143.207 149.846 143.729 150.462C144.252 151.069 144.513 151.997 144.513 153.248C144.513 153.304 144.513 153.379 144.513 153.472C144.513 153.556 144.509 153.635 144.499 153.71H139.515C139.571 154.466 139.791 155.04 140.173 155.432C140.556 155.824 141.153 156.02 141.965 156.02C142.423 156.02 142.805 155.983 143.113 155.908C143.431 155.824 143.669 155.745 143.827 155.67L144.009 156.762C143.851 156.846 143.571 156.935 143.169 157.028C142.777 157.121 142.329 157.168 141.825 157.168C141.191 157.168 140.64 157.075 140.173 156.888C139.716 156.692 139.338 156.426 139.039 156.09C138.741 155.754 138.517 155.357 138.367 154.9C138.227 154.433 138.157 153.925 138.157 153.374ZM143.155 152.66C143.165 152.072 143.015 151.591 142.707 151.218C142.409 150.835 141.993 150.644 141.461 150.644C141.163 150.644 140.897 150.705 140.663 150.826C140.439 150.938 140.248 151.087 140.089 151.274C139.931 151.461 139.805 151.675 139.711 151.918C139.627 152.161 139.571 152.408 139.543 152.66H143.155ZM151.438 153.374C151.438 152.525 151.228 151.871 150.808 151.414C150.388 150.957 149.828 150.728 149.128 150.728C148.736 150.728 148.428 150.742 148.204 150.77C147.989 150.798 147.816 150.831 147.686 150.868V155.46C147.844 155.591 148.073 155.717 148.372 155.838C148.67 155.959 148.997 156.02 149.352 156.02C149.725 156.02 150.042 155.955 150.304 155.824C150.574 155.684 150.794 155.497 150.962 155.264C151.13 155.021 151.251 154.741 151.326 154.424C151.4 154.097 151.438 153.747 151.438 153.374ZM152.796 153.374C152.796 153.925 152.721 154.433 152.572 154.9C152.432 155.367 152.222 155.768 151.942 156.104C151.662 156.44 151.316 156.701 150.906 156.888C150.504 157.075 150.042 157.168 149.52 157.168C149.1 157.168 148.726 157.112 148.4 157C148.082 156.888 147.844 156.781 147.686 156.678V159.59H146.384V149.944C146.692 149.869 147.074 149.79 147.532 149.706C147.998 149.613 148.535 149.566 149.142 149.566C149.702 149.566 150.206 149.655 150.654 149.832C151.102 150.009 151.484 150.261 151.802 150.588C152.119 150.915 152.362 151.316 152.53 151.792C152.707 152.259 152.796 152.786 152.796 153.374ZM159.136 150.812H155.93V157H154.628V149.72H159.136V150.812ZM118.128 169.776C118.128 170.112 118.058 170.439 117.918 170.756C117.787 171.064 117.61 171.372 117.386 171.68C117.162 171.979 116.91 172.277 116.63 172.576C116.35 172.865 116.07 173.15 115.79 173.43C115.631 173.589 115.445 173.775 115.23 173.99C115.025 174.205 114.829 174.429 114.642 174.662C114.455 174.895 114.297 175.119 114.166 175.334C114.045 175.549 113.984 175.735 113.984 175.894H118.45V177H112.57C112.561 176.944 112.556 176.888 112.556 176.832C112.556 176.776 112.556 176.725 112.556 176.678C112.556 176.239 112.626 175.833 112.766 175.46C112.915 175.077 113.107 174.718 113.34 174.382C113.573 174.046 113.835 173.729 114.124 173.43C114.413 173.131 114.698 172.842 114.978 172.562C115.211 172.338 115.431 172.119 115.636 171.904C115.851 171.68 116.037 171.461 116.196 171.246C116.364 171.022 116.495 170.793 116.588 170.56C116.691 170.327 116.742 170.079 116.742 169.818C116.742 169.538 116.695 169.3 116.602 169.104C116.518 168.908 116.401 168.745 116.252 168.614C116.103 168.483 115.925 168.39 115.72 168.334C115.524 168.269 115.314 168.236 115.09 168.236C114.819 168.236 114.572 168.273 114.348 168.348C114.124 168.423 113.923 168.511 113.746 168.614C113.569 168.707 113.419 168.81 113.298 168.922C113.177 169.025 113.083 169.104 113.018 169.16L112.374 168.236C112.458 168.143 112.584 168.031 112.752 167.9C112.92 167.76 113.121 167.629 113.354 167.508C113.587 167.387 113.849 167.284 114.138 167.2C114.427 167.116 114.74 167.074 115.076 167.074C116.093 167.074 116.854 167.312 117.358 167.788C117.871 168.255 118.128 168.917 118.128 169.776ZM122.278 171.036C123.688 171.092 124.719 171.4 125.372 171.96C126.035 172.52 126.366 173.281 126.366 174.242C126.366 174.671 126.292 175.068 126.142 175.432C126.002 175.796 125.783 176.109 125.484 176.37C125.195 176.631 124.826 176.837 124.378 176.986C123.93 177.135 123.398 177.21 122.782 177.21C122.54 177.21 122.292 177.191 122.04 177.154C121.788 177.117 121.555 177.07 121.34 177.014C121.126 176.958 120.934 176.902 120.766 176.846C120.598 176.79 120.477 176.743 120.402 176.706L120.654 175.572C120.813 175.647 121.07 175.745 121.424 175.866C121.788 175.987 122.232 176.048 122.754 176.048C123.174 176.048 123.524 176.001 123.804 175.908C124.094 175.815 124.327 175.689 124.504 175.53C124.682 175.371 124.808 175.189 124.882 174.984C124.966 174.769 125.008 174.545 125.008 174.312C125.008 173.957 124.948 173.645 124.826 173.374C124.705 173.094 124.49 172.861 124.182 172.674C123.874 172.487 123.464 172.347 122.95 172.254C122.437 172.151 121.788 172.1 121.004 172.1C121.06 171.643 121.102 171.213 121.13 170.812C121.168 170.411 121.2 170.019 121.228 169.636C121.256 169.253 121.28 168.875 121.298 168.502C121.317 168.119 121.336 167.718 121.354 167.298H126.03V168.404H122.488C122.479 168.544 122.465 168.735 122.446 168.978C122.428 169.211 122.409 169.459 122.39 169.72C122.372 169.972 122.353 170.219 122.334 170.462C122.316 170.705 122.297 170.896 122.278 171.036ZM130.859 175.936H131.643C131.951 175.488 132.193 175.026 132.371 174.55C132.557 174.074 132.697 173.584 132.791 173.08C132.884 172.567 132.945 172.035 132.973 171.484C133.001 170.924 133.019 170.336 133.029 169.72H137.803V175.936H138.783V179.03H137.551V177H132.091V179.03H130.859V175.936ZM136.501 175.936V170.812H134.219C134.209 171.251 134.186 171.694 134.149 172.142C134.111 172.581 134.051 173.019 133.967 173.458C133.883 173.887 133.761 174.312 133.603 174.732C133.453 175.143 133.262 175.544 133.029 175.936H136.501ZM139.784 173.374C139.784 172.73 139.878 172.17 140.064 171.694C140.251 171.209 140.498 170.807 140.806 170.49C141.114 170.173 141.469 169.935 141.87 169.776C142.272 169.617 142.682 169.538 143.102 169.538C144.082 169.538 144.834 169.846 145.356 170.462C145.879 171.069 146.14 171.997 146.14 173.248C146.14 173.304 146.14 173.379 146.14 173.472C146.14 173.556 146.136 173.635 146.126 173.71H141.142C141.198 174.466 141.418 175.04 141.8 175.432C142.183 175.824 142.78 176.02 143.592 176.02C144.05 176.02 144.432 175.983 144.74 175.908C145.058 175.824 145.296 175.745 145.454 175.67L145.636 176.762C145.478 176.846 145.198 176.935 144.796 177.028C144.404 177.121 143.956 177.168 143.452 177.168C142.818 177.168 142.267 177.075 141.8 176.888C141.343 176.692 140.965 176.426 140.666 176.09C140.368 175.754 140.144 175.357 139.994 174.9C139.854 174.433 139.784 173.925 139.784 173.374ZM144.782 172.66C144.792 172.072 144.642 171.591 144.334 171.218C144.036 170.835 143.62 170.644 143.088 170.644C142.79 170.644 142.524 170.705 142.29 170.826C142.066 170.938 141.875 171.087 141.716 171.274C141.558 171.461 141.432 171.675 141.338 171.918C141.254 172.161 141.198 172.408 141.17 172.66H144.782ZM150.671 173.038C150.96 173.243 151.273 173.505 151.609 173.822C151.945 174.13 152.271 174.466 152.589 174.83C152.915 175.194 153.219 175.567 153.499 175.95C153.779 176.323 154.017 176.673 154.213 177H152.673C152.467 176.683 152.225 176.361 151.945 176.034C151.674 175.698 151.389 175.376 151.091 175.068C150.792 174.76 150.489 174.475 150.181 174.214C149.873 173.953 149.583 173.733 149.313 173.556V177H148.011V169.72H149.313V172.842C149.537 172.627 149.793 172.38 150.083 172.1C150.372 171.811 150.661 171.521 150.951 171.232C151.249 170.933 151.525 170.653 151.777 170.392C152.029 170.121 152.234 169.897 152.393 169.72H153.905C153.699 169.944 153.457 170.201 153.177 170.49C152.906 170.77 152.621 171.059 152.323 171.358C152.033 171.657 151.744 171.955 151.455 172.254C151.165 172.543 150.904 172.805 150.671 173.038Z" fill="#151515"/>
<path d="M187 83C187 69.7452 197.745 59 211 59H465C478.255 59 489 69.7452 489 83V133C489 146.255 478.255 157 465 157H211C197.745 157 187 146.255 187 133V83Z" fill="white"/>
<path d="M187 83C187 69.1929 198.193 58 212 58H464C477.807 58 489 69.1929 489 83C489 70.2975 478.255 60 465 60H211C197.745 60 187 70.2975 187 83ZM489 157H187H489ZM187 157V59V157ZM489 59V157V59Z" fill="#0788F1"/>
<path d="M216.774 94C216.606 93.508 216.432 93.022 216.252 92.542C216.072 92.062 215.898 91.57 215.73 91.066H210.474C210.306 91.57 210.132 92.068 209.952 92.56C209.784 93.04 209.616 93.52 209.448 94H207.09C207.558 92.668 208.002 91.438 208.422 90.31C208.842 89.182 209.25 88.114 209.646 87.106C210.054 86.098 210.456 85.138 210.852 84.226C211.248 83.314 211.656 82.414 212.076 81.526H214.218C214.638 82.414 215.046 83.314 215.442 84.226C215.838 85.138 216.234 86.098 216.63 87.106C217.038 88.114 217.452 89.182 217.872 90.31C218.304 91.438 218.754 92.668 219.222 94H216.774ZM213.102 83.938C212.826 84.574 212.508 85.348 212.148 86.26C211.8 87.172 211.434 88.162 211.05 89.23H215.154C214.77 88.162 214.398 87.166 214.038 86.242C213.678 85.318 213.366 84.55 213.102 83.938ZM228.593 94H226.415V90.058H222.869V94H220.691V84.586H222.869V88.258H226.415V84.586H228.593V94ZM238.453 86.404H235.411V94H233.233V86.404H230.209V84.586H238.453V86.404ZM248.323 84.586V94H246.163C246.163 93.316 246.163 92.638 246.163 91.966C246.175 91.294 246.181 90.67 246.181 90.094C246.193 89.518 246.199 89.02 246.199 88.6C246.211 88.168 246.217 87.85 246.217 87.646C245.857 88.114 245.485 88.63 245.101 89.194C244.717 89.758 244.333 90.322 243.949 90.886C243.577 91.45 243.223 92.002 242.887 92.542C242.551 93.082 242.257 93.568 242.005 94H240.079V84.586H242.221C242.221 85.282 242.215 85.948 242.203 86.584C242.203 87.208 242.203 87.778 242.203 88.294C242.203 88.81 242.197 89.26 242.185 89.644C242.185 90.028 242.185 90.322 242.185 90.526C242.521 90.01 242.869 89.482 243.229 88.942C243.589 88.39 243.949 87.856 244.309 87.34C244.681 86.812 245.047 86.314 245.407 85.846C245.767 85.378 246.115 84.958 246.451 84.586H248.323ZM259.183 81.94C259.063 81.964 258.931 81.988 258.787 82.012C258.655 82.036 258.493 82.06 258.301 82.084C258.109 82.108 257.881 82.138 257.617 82.174C257.365 82.198 257.071 82.228 256.735 82.264C256.219 82.324 255.757 82.426 255.349 82.57C254.941 82.702 254.587 82.9 254.287 83.164C253.987 83.416 253.741 83.74 253.549 84.136C253.357 84.532 253.219 85.012 253.135 85.576C253.507 85.336 253.909 85.15 254.341 85.018C254.785 84.886 255.217 84.82 255.637 84.82C256.885 84.82 257.875 85.216 258.607 86.008C259.339 86.8 259.705 87.946 259.705 89.446C259.705 90.166 259.603 90.82 259.399 91.408C259.195 91.996 258.901 92.5 258.517 92.92C258.133 93.34 257.671 93.67 257.131 93.91C256.591 94.138 255.979 94.252 255.295 94.252C254.443 94.252 253.729 94.114 253.153 93.838C252.577 93.55 252.115 93.148 251.767 92.632C251.419 92.104 251.167 91.474 251.011 90.742C250.855 90.01 250.777 89.194 250.777 88.294C250.777 87.118 250.873 86.08 251.065 85.18C251.269 84.268 251.593 83.488 252.037 82.84C252.493 82.192 253.081 81.67 253.801 81.274C254.533 80.866 255.421 80.584 256.465 80.428C257.005 80.344 257.455 80.278 257.815 80.23C258.187 80.182 258.559 80.116 258.931 80.032L259.183 81.94ZM253.063 87.484C253.039 87.64 253.027 87.832 253.027 88.06C253.027 88.276 253.027 88.48 253.027 88.672C253.027 89.212 253.063 89.71 253.135 90.166C253.207 90.622 253.333 91.012 253.513 91.336C253.693 91.66 253.927 91.912 254.215 92.092C254.503 92.272 254.863 92.362 255.295 92.362C255.667 92.362 255.991 92.29 256.267 92.146C256.543 92.002 256.771 91.798 256.951 91.534C257.131 91.27 257.263 90.964 257.347 90.616C257.443 90.256 257.491 89.866 257.491 89.446C257.491 89.086 257.449 88.744 257.365 88.42C257.293 88.084 257.167 87.79 256.987 87.538C256.819 87.274 256.591 87.064 256.303 86.908C256.015 86.752 255.661 86.674 255.241 86.674C254.833 86.674 254.425 86.746 254.017 86.89C253.621 87.034 253.303 87.232 253.063 87.484ZM270.208 84.586V94H268.048C268.048 93.316 268.048 92.638 268.048 91.966C268.06 91.294 268.066 90.67 268.066 90.094C268.078 89.518 268.084 89.02 268.084 88.6C268.096 88.168 268.102 87.85 268.102 87.646C267.742 88.114 267.37 88.63 266.986 89.194C266.602 89.758 266.218 90.322 265.834 90.886C265.462 91.45 265.108 92.002 264.772 92.542C264.436 93.082 264.142 93.568 263.89 94H261.964V84.586H264.106C264.106 85.282 264.1 85.948 264.088 86.584C264.088 87.208 264.088 87.778 264.088 88.294C264.088 88.81 264.082 89.26 264.07 89.644C264.07 90.028 264.07 90.322 264.07 90.526C264.406 90.01 264.754 89.482 265.114 88.942C265.474 88.39 265.834 87.856 266.194 87.34C266.566 86.812 266.932 86.314 267.292 85.846C267.652 85.378 268 84.958 268.336 84.586H270.208ZM281.5 89.284C281.5 90.028 281.392 90.706 281.176 91.318C280.96 91.93 280.654 92.452 280.258 92.884C279.862 93.316 279.382 93.652 278.818 93.892C278.266 94.132 277.654 94.252 276.982 94.252C276.31 94.252 275.698 94.132 275.146 93.892C274.594 93.652 274.12 93.316 273.724 92.884C273.328 92.452 273.016 91.93 272.788 91.318C272.572 90.706 272.464 90.028 272.464 89.284C272.464 88.54 272.572 87.868 272.788 87.268C273.016 86.656 273.328 86.134 273.724 85.702C274.132 85.27 274.612 84.94 275.164 84.712C275.716 84.472 276.322 84.352 276.982 84.352C277.642 84.352 278.248 84.472 278.8 84.712C279.364 84.94 279.844 85.27 280.24 85.702C280.636 86.134 280.942 86.656 281.158 87.268C281.386 87.868 281.5 88.54 281.5 89.284ZM279.268 89.284C279.268 88.348 279.064 87.61 278.656 87.07C278.26 86.518 277.702 86.242 276.982 86.242C276.262 86.242 275.698 86.518 275.29 87.07C274.894 87.61 274.696 88.348 274.696 89.284C274.696 90.232 274.894 90.982 275.29 91.534C275.698 92.086 276.262 92.362 276.982 92.362C277.702 92.362 278.26 92.086 278.656 91.534C279.064 90.982 279.268 90.232 279.268 89.284ZM290.835 86.404H287.793V94H285.615V86.404H282.591V84.586H290.835V86.404ZM300.706 84.586V94H298.546C298.546 93.316 298.546 92.638 298.546 91.966C298.558 91.294 298.564 90.67 298.564 90.094C298.576 89.518 298.582 89.02 298.582 88.6C298.594 88.168 298.6 87.85 298.6 87.646C298.24 88.114 297.868 88.63 297.484 89.194C297.1 89.758 296.716 90.322 296.332 90.886C295.96 91.45 295.606 92.002 295.27 92.542C294.934 93.082 294.64 93.568 294.388 94H292.462V84.586H294.604C294.604 85.282 294.598 85.948 294.586 86.584C294.586 87.208 294.586 87.778 294.586 88.294C294.586 88.81 294.58 89.26 294.568 89.644C294.568 90.028 294.568 90.322 294.568 90.526C294.904 90.01 295.252 89.482 295.612 88.942C295.972 88.39 296.332 87.856 296.692 87.34C297.064 86.812 297.43 86.314 297.79 85.846C298.15 85.378 298.498 84.958 298.834 84.586H300.706ZM305.662 88.366C305.938 88.09 306.238 87.784 306.562 87.448C306.886 87.1 307.204 86.752 307.516 86.404C307.84 86.056 308.146 85.726 308.434 85.414C308.722 85.09 308.962 84.814 309.154 84.586H311.71C311.446 84.898 311.14 85.24 310.792 85.612C310.456 85.984 310.102 86.368 309.73 86.764C309.37 87.148 309.01 87.526 308.65 87.898C308.302 88.258 307.984 88.582 307.696 88.87C308.068 89.182 308.452 89.548 308.848 89.968C309.256 90.376 309.652 90.814 310.036 91.282C310.432 91.738 310.798 92.206 311.134 92.686C311.47 93.154 311.752 93.592 311.98 94H309.46C309.232 93.64 308.962 93.262 308.65 92.866C308.35 92.47 308.032 92.086 307.696 91.714C307.36 91.33 307.018 90.97 306.67 90.634C306.322 90.298 305.986 90.01 305.662 89.77V94H303.484V84.586H305.662V88.366Z" fill="#151515"/>
<g opacity="0.2" filter="url(#filter0_f_15_158)">
<path d="M183.92 124.807C207.668 99.9321 284.283 98.4365 319.622 100.798C369.569 100.798 473.702 104.734 490.664 120.477C511.868 140.156 453.912 177.153 347.187 175.972C240.463 174.792 154.235 155.9 183.92 124.807Z" fill="#A5B7C7"/>
</g>
<mask id="path-12-inside-1_15_158" fill="white">
<path d="M199 139C199 125.745 209.745 115 223 115H477C490.255 115 501 125.745 501 139V197C501 210.255 490.255 221 477 221H223C209.745 221 199 210.255 199 197V139Z"/>
</mask>
<path d="M199 139C199 125.745 209.745 115 223 115H477C490.255 115 501 125.745 501 139V197C501 210.255 490.255 221 477 221H223C209.745 221 199 210.255 199 197V139Z" fill="white"/>
<path d="M199 139C199 124.641 210.641 113 225 113H475C489.359 113 501 124.641 501 139C501 126.85 490.255 117 477 117H223C209.745 117 199 126.85 199 139ZM501 221H199H501ZM199 221V115V221ZM501 115V221V115Z" fill="#C561FF" mask="url(#path-12-inside-1_15_158)"/>
<path d="M224.256 150.144C223.596 150.144 222.93 150.12 222.258 150.072C221.586 150.036 220.998 149.952 220.494 149.82V137.706C220.758 137.658 221.04 137.616 221.34 137.58C221.64 137.532 221.946 137.496 222.258 137.472C222.57 137.448 222.876 137.43 223.176 137.418C223.488 137.406 223.782 137.4 224.058 137.4C224.814 137.4 225.516 137.46 226.164 137.58C226.812 137.688 227.37 137.874 227.838 138.138C228.318 138.402 228.69 138.75 228.954 139.182C229.218 139.614 229.35 140.148 229.35 140.784C229.35 141.372 229.206 141.876 228.918 142.296C228.642 142.716 228.252 143.052 227.748 143.304C228.504 143.556 229.062 143.928 229.422 144.42C229.782 144.912 229.962 145.536 229.962 146.292C229.962 147.576 229.494 148.542 228.558 149.19C227.622 149.826 226.188 150.144 224.256 150.144ZM222.726 144.384V148.182C222.978 148.206 223.248 148.224 223.536 148.236C223.824 148.248 224.088 148.254 224.328 148.254C224.796 148.254 225.228 148.224 225.624 148.164C226.032 148.104 226.38 148.002 226.668 147.858C226.968 147.702 227.202 147.498 227.37 147.246C227.55 146.994 227.64 146.67 227.64 146.274C227.64 145.566 227.382 145.074 226.866 144.798C226.35 144.522 225.636 144.384 224.724 144.384H222.726ZM222.726 142.602H224.328C225.192 142.602 225.87 142.482 226.362 142.242C226.854 141.99 227.1 141.546 227.1 140.91C227.1 140.31 226.842 139.884 226.326 139.632C225.822 139.38 225.162 139.254 224.346 139.254C223.998 139.254 223.686 139.26 223.41 139.272C223.146 139.284 222.918 139.302 222.726 139.326V142.602ZM240.46 140.586V150H238.3C238.3 149.316 238.3 148.638 238.3 147.966C238.312 147.294 238.318 146.67 238.318 146.094C238.33 145.518 238.336 145.02 238.336 144.6C238.348 144.168 238.354 143.85 238.354 143.646C237.994 144.114 237.622 144.63 237.238 145.194C236.854 145.758 236.47 146.322 236.086 146.886C235.714 147.45 235.36 148.002 235.024 148.542C234.688 149.082 234.394 149.568 234.142 150H232.216V140.586H234.358C234.358 141.282 234.352 141.948 234.34 142.584C234.34 143.208 234.34 143.778 234.34 144.294C234.34 144.81 234.334 145.26 234.322 145.644C234.322 146.028 234.322 146.322 234.322 146.526C234.658 146.01 235.006 145.482 235.366 144.942C235.726 144.39 236.086 143.856 236.446 143.34C236.818 142.812 237.184 142.314 237.544 141.846C237.904 141.378 238.252 140.958 238.588 140.586H240.46ZM250.33 142.404H247.288V150H245.11V142.404H242.086V140.586H250.33V142.404ZM255.268 148.47C255.94 148.47 256.45 148.434 256.798 148.362V145.95C256.678 145.914 256.504 145.878 256.276 145.842C256.048 145.806 255.796 145.788 255.52 145.788C255.28 145.788 255.034 145.806 254.782 145.842C254.542 145.878 254.32 145.944 254.116 146.04C253.924 146.136 253.768 146.274 253.648 146.454C253.528 146.622 253.468 146.838 253.468 147.102C253.468 147.618 253.63 147.978 253.954 148.182C254.278 148.374 254.716 148.47 255.268 148.47ZM255.088 140.352C255.808 140.352 256.414 140.442 256.906 140.622C257.398 140.802 257.788 141.054 258.076 141.378C258.376 141.702 258.586 142.098 258.706 142.566C258.838 143.022 258.904 143.526 258.904 144.078V149.784C258.568 149.856 258.058 149.94 257.374 150.036C256.702 150.144 255.94 150.198 255.088 150.198C254.524 150.198 254.008 150.144 253.54 150.036C253.072 149.928 252.67 149.754 252.334 149.514C252.01 149.274 251.752 148.962 251.56 148.578C251.38 148.194 251.29 147.72 251.29 147.156C251.29 146.616 251.392 146.16 251.596 145.788C251.812 145.416 252.1 145.116 252.46 144.888C252.82 144.648 253.234 144.48 253.702 144.384C254.182 144.276 254.68 144.222 255.196 144.222C255.436 144.222 255.688 144.24 255.952 144.276C256.216 144.3 256.498 144.348 256.798 144.42V144.06C256.798 143.808 256.768 143.568 256.708 143.34C256.648 143.112 256.54 142.914 256.384 142.746C256.24 142.566 256.042 142.428 255.79 142.332C255.55 142.236 255.244 142.188 254.872 142.188C254.368 142.188 253.906 142.224 253.486 142.296C253.066 142.368 252.724 142.452 252.46 142.548L252.19 140.784C252.466 140.688 252.868 140.592 253.396 140.496C253.924 140.4 254.488 140.352 255.088 140.352ZM263.768 143.826C263.732 144.33 263.696 144.858 263.66 145.41C263.624 145.95 263.594 146.49 263.57 147.03C263.546 147.57 263.522 148.092 263.498 148.596C263.474 149.1 263.456 149.568 263.444 150H261.338C261.362 149.304 261.398 148.554 261.446 147.75C261.494 146.934 261.548 146.112 261.608 145.284C261.68 144.444 261.752 143.622 261.824 142.818C261.896 142.014 261.974 141.27 262.058 140.586H263.948C264.404 141.318 264.866 142.182 265.334 143.178C265.802 144.162 266.324 145.284 266.9 146.544C267.5 145.26 268.046 144.102 268.538 143.07C269.03 142.026 269.468 141.198 269.852 140.586H271.76C271.844 141.27 271.922 142.014 271.994 142.818C272.078 143.622 272.15 144.444 272.21 145.284C272.27 146.112 272.324 146.934 272.372 147.75C272.42 148.554 272.456 149.304 272.48 150H270.32C270.296 149.016 270.254 148.002 270.194 146.958C270.146 145.902 270.086 144.858 270.014 143.826C269.834 144.186 269.636 144.588 269.42 145.032C269.216 145.476 269.012 145.926 268.808 146.382C268.604 146.838 268.406 147.282 268.214 147.714C268.022 148.134 267.854 148.506 267.71 148.83H266.09C265.946 148.506 265.772 148.128 265.568 147.696C265.376 147.264 265.178 146.82 264.974 146.364C264.77 145.908 264.56 145.464 264.344 145.032C264.14 144.588 263.948 144.186 263.768 143.826ZM283.263 140.586V150H281.103C281.103 149.316 281.103 148.638 281.103 147.966C281.115 147.294 281.121 146.67 281.121 146.094C281.133 145.518 281.139 145.02 281.139 144.6C281.151 144.168 281.157 143.85 281.157 143.646C280.797 144.114 280.425 144.63 280.041 145.194C279.657 145.758 279.273 146.322 278.889 146.886C278.517 147.45 278.163 148.002 277.827 148.542C277.491 149.082 277.197 149.568 276.945 150H275.019V140.586H277.161C277.161 141.282 277.155 141.948 277.143 142.584C277.143 143.208 277.143 143.778 277.143 144.294C277.143 144.81 277.137 145.26 277.125 145.644C277.125 146.028 277.125 146.322 277.125 146.526C277.461 146.01 277.809 145.482 278.169 144.942C278.529 144.39 278.889 143.856 279.249 143.34C279.621 142.812 279.987 142.314 280.347 141.846C280.707 141.378 281.055 140.958 281.391 140.586H283.263ZM293.942 150H291.764V146.058H288.218V150H286.04V140.586H288.218V144.258H291.764V140.586H293.942V150ZM304.781 150.144C304.121 150.144 303.455 150.12 302.783 150.072C302.111 150.036 301.523 149.952 301.019 149.82V137.706C301.283 137.658 301.565 137.616 301.865 137.58C302.165 137.532 302.471 137.496 302.783 137.472C303.095 137.448 303.401 137.43 303.701 137.418C304.013 137.406 304.307 137.4 304.583 137.4C305.339 137.4 306.041 137.46 306.689 137.58C307.337 137.688 307.895 137.874 308.363 138.138C308.843 138.402 309.215 138.75 309.479 139.182C309.743 139.614 309.875 140.148 309.875 140.784C309.875 141.372 309.731 141.876 309.443 142.296C309.167 142.716 308.777 143.052 308.273 143.304C309.029 143.556 309.587 143.928 309.947 144.42C310.307 144.912 310.487 145.536 310.487 146.292C310.487 147.576 310.019 148.542 309.083 149.19C308.147 149.826 306.713 150.144 304.781 150.144ZM303.251 144.384V148.182C303.503 148.206 303.773 148.224 304.061 148.236C304.349 148.248 304.613 148.254 304.853 148.254C305.321 148.254 305.753 148.224 306.149 148.164C306.557 148.104 306.905 148.002 307.193 147.858C307.493 147.702 307.727 147.498 307.895 147.246C308.075 146.994 308.165 146.67 308.165 146.274C308.165 145.566 307.907 145.074 307.391 144.798C306.875 144.522 306.161 144.384 305.249 144.384H303.251ZM303.251 142.602H304.853C305.717 142.602 306.395 142.482 306.887 142.242C307.379 141.99 307.625 141.546 307.625 140.91C307.625 140.31 307.367 139.884 306.851 139.632C306.347 139.38 305.687 139.254 304.871 139.254C304.523 139.254 304.211 139.26 303.935 139.272C303.671 139.284 303.443 139.302 303.251 139.326V142.602Z" fill="#151515"/>
<path d="M220.302 170.3C220.834 170.095 221.352 169.833 221.856 169.516C222.36 169.189 222.822 168.783 223.242 168.298H224.166V178H222.864V170.104C222.752 170.207 222.612 170.314 222.444 170.426C222.285 170.538 222.108 170.645 221.912 170.748C221.725 170.851 221.525 170.949 221.31 171.042C221.105 171.135 220.904 171.215 220.708 171.28L220.302 170.3ZM236.401 170.72V171.812H234.035V178H232.733V171.812H230.367V170.72H236.401ZM240.207 177.062C240.515 177.062 240.786 177.057 241.019 177.048C241.262 177.029 241.462 177.001 241.621 176.964V174.794C241.528 174.747 241.374 174.71 241.159 174.682C240.954 174.645 240.702 174.626 240.403 174.626C240.207 174.626 239.997 174.64 239.773 174.668C239.558 174.696 239.358 174.757 239.171 174.85C238.994 174.934 238.844 175.055 238.723 175.214C238.602 175.363 238.541 175.564 238.541 175.816C238.541 176.283 238.69 176.609 238.989 176.796C239.288 176.973 239.694 177.062 240.207 177.062ZM240.095 170.538C240.618 170.538 241.056 170.608 241.411 170.748C241.775 170.879 242.064 171.07 242.279 171.322C242.503 171.565 242.662 171.859 242.755 172.204C242.848 172.54 242.895 172.913 242.895 173.324V177.874C242.783 177.893 242.624 177.921 242.419 177.958C242.223 177.986 241.999 178.014 241.747 178.042C241.495 178.07 241.22 178.093 240.921 178.112C240.632 178.14 240.342 178.154 240.053 178.154C239.642 178.154 239.264 178.112 238.919 178.028C238.574 177.944 238.275 177.813 238.023 177.636C237.771 177.449 237.575 177.207 237.435 176.908C237.295 176.609 237.225 176.25 237.225 175.83C237.225 175.429 237.304 175.083 237.463 174.794C237.631 174.505 237.855 174.271 238.135 174.094C238.415 173.917 238.742 173.786 239.115 173.702C239.488 173.618 239.88 173.576 240.291 173.576C240.422 173.576 240.557 173.585 240.697 173.604C240.837 173.613 240.968 173.632 241.089 173.66C241.22 173.679 241.332 173.697 241.425 173.716C241.518 173.735 241.584 173.749 241.621 173.758V173.394C241.621 173.179 241.598 172.969 241.551 172.764C241.504 172.549 241.42 172.363 241.299 172.204C241.178 172.036 241.01 171.905 240.795 171.812C240.59 171.709 240.319 171.658 239.983 171.658C239.554 171.658 239.176 171.691 238.849 171.756C238.532 171.812 238.294 171.873 238.135 171.938L237.981 170.86C238.149 170.785 238.429 170.715 238.821 170.65C239.213 170.575 239.638 170.538 240.095 170.538ZM246.234 171.56C246.523 171.327 246.859 171.149 247.242 171.028C247.634 170.897 248.007 170.832 248.362 170.832C249.407 170.832 250.196 171.154 250.728 171.798C251.269 172.433 251.54 173.319 251.54 174.458C251.54 174.943 251.474 175.41 251.344 175.858C251.213 176.306 251.008 176.703 250.728 177.048C250.457 177.393 250.112 177.669 249.692 177.874C249.272 178.079 248.772 178.182 248.194 178.182C247.531 178.182 246.98 178.061 246.542 177.818C246.103 177.575 245.753 177.244 245.492 176.824C245.24 176.404 245.062 175.914 244.96 175.354C244.857 174.794 244.806 174.201 244.806 173.576C244.806 172.764 244.862 172.008 244.974 171.308C245.095 170.608 245.31 169.992 245.618 169.46C245.926 168.928 246.35 168.489 246.892 168.144C247.442 167.789 248.147 167.551 249.006 167.43C249.258 167.393 249.477 167.365 249.664 167.346C249.86 167.318 250.028 167.295 250.168 167.276C250.317 167.257 250.452 167.239 250.574 167.22C250.695 167.192 250.821 167.164 250.952 167.136L251.092 168.312C251.026 168.331 250.956 168.345 250.882 168.354C250.816 168.363 250.718 168.377 250.588 168.396C250.466 168.415 250.298 168.438 250.084 168.466C249.878 168.494 249.608 168.527 249.272 168.564C248.348 168.667 247.638 168.947 247.144 169.404C246.649 169.861 246.346 170.58 246.234 171.56ZM246.15 173.786C246.15 174.225 246.178 174.64 246.234 175.032C246.299 175.424 246.406 175.769 246.556 176.068C246.714 176.367 246.924 176.605 247.186 176.782C247.447 176.95 247.783 177.034 248.194 177.034C248.548 177.034 248.852 176.969 249.104 176.838C249.356 176.698 249.561 176.511 249.72 176.278C249.878 176.045 249.995 175.774 250.07 175.466C250.144 175.149 250.182 174.813 250.182 174.458C250.182 174.141 250.149 173.833 250.084 173.534C250.028 173.235 249.92 172.969 249.762 172.736C249.603 172.503 249.388 172.316 249.118 172.176C248.856 172.036 248.525 171.966 248.124 171.966C247.732 171.966 247.354 172.05 246.99 172.218C246.635 172.386 246.36 172.591 246.164 172.834C246.154 172.937 246.15 173.081 246.15 173.268C246.15 173.455 246.15 173.627 246.15 173.786ZM255.918 171.812C255.918 172.12 255.908 172.451 255.89 172.806C255.88 173.151 255.857 173.501 255.82 173.856C255.782 174.201 255.731 174.547 255.666 174.892C255.6 175.228 255.516 175.545 255.414 175.844C255.311 176.143 255.18 176.423 255.022 176.684C254.872 176.945 254.686 177.179 254.462 177.384C254.238 177.58 253.976 177.748 253.678 177.888C253.379 178.019 253.029 178.103 252.628 178.14L252.446 177.048C252.903 176.955 253.262 176.782 253.524 176.53C253.794 176.278 254.009 175.97 254.168 175.606C254.308 175.289 254.41 174.929 254.476 174.528C254.541 174.127 254.588 173.711 254.616 173.282C254.644 172.843 254.658 172.405 254.658 171.966C254.667 171.527 254.672 171.112 254.672 170.72H259.516V178H258.214V171.812H255.918ZM261.345 174.374C261.345 173.73 261.438 173.17 261.625 172.694C261.812 172.209 262.059 171.807 262.367 171.49C262.675 171.173 263.03 170.935 263.431 170.776C263.832 170.617 264.243 170.538 264.663 170.538C265.643 170.538 266.394 170.846 266.917 171.462C267.44 172.069 267.701 172.997 267.701 174.248C267.701 174.304 267.701 174.379 267.701 174.472C267.701 174.556 267.696 174.635 267.687 174.71H262.703C262.759 175.466 262.978 176.04 263.361 176.432C263.744 176.824 264.341 177.02 265.153 177.02C265.61 177.02 265.993 176.983 266.301 176.908C266.618 176.824 266.856 176.745 267.015 176.67L267.197 177.762C267.038 177.846 266.758 177.935 266.357 178.028C265.965 178.121 265.517 178.168 265.013 178.168C264.378 178.168 263.828 178.075 263.361 177.888C262.904 177.692 262.526 177.426 262.227 177.09C261.928 176.754 261.704 176.357 261.555 175.9C261.415 175.433 261.345 174.925 261.345 174.374ZM266.343 173.66C266.352 173.072 266.203 172.591 265.895 172.218C265.596 171.835 265.181 171.644 264.649 171.644C264.35 171.644 264.084 171.705 263.851 171.826C263.627 171.938 263.436 172.087 263.277 172.274C263.118 172.461 262.992 172.675 262.899 172.918C262.815 173.161 262.759 173.408 262.731 173.66H266.343ZM274.709 170.72V171.812H272.343V178H271.041V171.812H268.675V170.72H274.709ZM278.712 174.038C279.001 174.243 279.314 174.505 279.65 174.822C279.986 175.13 280.312 175.466 280.63 175.83C280.956 176.194 281.26 176.567 281.54 176.95C281.82 177.323 282.058 177.673 282.254 178H280.714C280.508 177.683 280.266 177.361 279.986 177.034C279.715 176.698 279.43 176.376 279.132 176.068C278.833 175.76 278.53 175.475 278.222 175.214C277.914 174.953 277.624 174.733 277.354 174.556V178H276.052V170.72H277.354V173.842C277.578 173.627 277.834 173.38 278.124 173.1C278.413 172.811 278.702 172.521 278.992 172.232C279.29 171.933 279.566 171.653 279.818 171.392C280.07 171.121 280.275 170.897 280.434 170.72H281.946C281.74 170.944 281.498 171.201 281.218 171.49C280.947 171.77 280.662 172.059 280.364 172.358C280.074 172.657 279.785 172.955 279.496 173.254C279.206 173.543 278.945 173.805 278.712 174.038ZM286.035 177.062C286.343 177.062 286.614 177.057 286.847 177.048C287.09 177.029 287.291 177.001 287.449 176.964V174.794C287.356 174.747 287.202 174.71 286.987 174.682C286.782 174.645 286.53 174.626 286.231 174.626C286.035 174.626 285.825 174.64 285.601 174.668C285.387 174.696 285.186 174.757 284.999 174.85C284.822 174.934 284.673 175.055 284.551 175.214C284.43 175.363 284.369 175.564 284.369 175.816C284.369 176.283 284.519 176.609 284.817 176.796C285.116 176.973 285.522 177.062 286.035 177.062ZM285.923 170.538C286.446 170.538 286.885 170.608 287.239 170.748C287.603 170.879 287.893 171.07 288.107 171.322C288.331 171.565 288.49 171.859 288.583 172.204C288.677 172.54 288.723 172.913 288.723 173.324V177.874C288.611 177.893 288.453 177.921 288.247 177.958C288.051 177.986 287.827 178.014 287.575 178.042C287.323 178.07 287.048 178.093 286.749 178.112C286.46 178.14 286.171 178.154 285.881 178.154C285.471 178.154 285.093 178.112 284.747 178.028C284.402 177.944 284.103 177.813 283.851 177.636C283.599 177.449 283.403 177.207 283.263 176.908C283.123 176.609 283.053 176.25 283.053 175.83C283.053 175.429 283.133 175.083 283.291 174.794C283.459 174.505 283.683 174.271 283.963 174.094C284.243 173.917 284.57 173.786 284.943 173.702C285.317 173.618 285.709 173.576 286.119 173.576C286.25 173.576 286.385 173.585 286.525 173.604C286.665 173.613 286.796 173.632 286.917 173.66C287.048 173.679 287.16 173.697 287.253 173.716C287.347 173.735 287.412 173.749 287.449 173.758V173.394C287.449 173.179 287.426 172.969 287.379 172.764C287.333 172.549 287.249 172.363 287.127 172.204C287.006 172.036 286.838 171.905 286.623 171.812C286.418 171.709 286.147 171.658 285.811 171.658C285.382 171.658 285.004 171.691 284.677 171.756C284.36 171.812 284.122 171.873 283.963 171.938L283.809 170.86C283.977 170.785 284.257 170.715 284.649 170.65C285.041 170.575 285.466 170.538 285.923 170.538ZM295.4 177.02C295.456 177.029 295.535 177.039 295.638 177.048C295.741 177.057 295.857 177.067 295.988 177.076C296.119 177.076 296.254 177.081 296.394 177.09C296.543 177.09 296.683 177.09 296.814 177.09C297.085 177.09 297.341 177.071 297.584 177.034C297.836 176.997 298.051 176.931 298.228 176.838C298.415 176.745 298.559 176.623 298.662 176.474C298.774 176.315 298.83 176.115 298.83 175.872C298.83 175.639 298.779 175.447 298.676 175.298C298.583 175.139 298.452 175.013 298.284 174.92C298.116 174.827 297.915 174.761 297.682 174.724C297.458 174.687 297.215 174.668 296.954 174.668H295.4V177.02ZM296.786 173.702C297.038 173.702 297.267 173.688 297.472 173.66C297.687 173.623 297.869 173.562 298.018 173.478C298.177 173.394 298.298 173.282 298.382 173.142C298.475 173.002 298.522 172.825 298.522 172.61C298.522 172.386 298.466 172.209 298.354 172.078C298.242 171.947 298.093 171.849 297.906 171.784C297.729 171.709 297.523 171.663 297.29 171.644C297.066 171.616 296.837 171.602 296.604 171.602C296.389 171.602 296.17 171.607 295.946 171.616C295.731 171.625 295.549 171.635 295.4 171.644V173.702H296.786ZM296.758 178.126C296.207 178.126 295.699 178.098 295.232 178.042C294.765 177.995 294.397 177.939 294.126 177.874V170.79C294.397 170.725 294.765 170.669 295.232 170.622C295.699 170.566 296.207 170.538 296.758 170.538C297.141 170.538 297.514 170.571 297.878 170.636C298.242 170.701 298.564 170.813 298.844 170.972C299.124 171.121 299.348 171.331 299.516 171.602C299.693 171.863 299.782 172.19 299.782 172.582C299.782 172.937 299.693 173.24 299.516 173.492C299.339 173.744 299.101 173.94 298.802 174.08C299.203 174.22 299.521 174.43 299.754 174.71C299.997 174.981 300.118 175.363 300.118 175.858C300.118 176.297 300.029 176.661 299.852 176.95C299.684 177.239 299.446 177.473 299.138 177.65C298.839 177.827 298.485 177.949 298.074 178.014C297.663 178.089 297.225 178.126 296.758 178.126ZM304.14 176.936H304.924C305.232 176.488 305.475 176.026 305.652 175.55C305.839 175.074 305.979 174.584 306.072 174.08C306.165 173.567 306.226 173.035 306.254 172.484C306.282 171.924 306.301 171.336 306.31 170.72H311.084V176.936H312.064V180.03H310.832V178H305.372V180.03H304.14V176.936ZM309.782 176.936V171.812H307.5C307.491 172.251 307.467 172.694 307.43 173.142C307.393 173.581 307.332 174.019 307.248 174.458C307.164 174.887 307.043 175.312 306.884 175.732C306.735 176.143 306.543 176.544 306.31 176.936H309.782ZM313.066 174.374C313.066 173.73 313.159 173.17 313.346 172.694C313.532 172.209 313.78 171.807 314.088 171.49C314.396 171.173 314.75 170.935 315.152 170.776C315.553 170.617 315.964 170.538 316.384 170.538C317.364 170.538 318.115 170.846 318.638 171.462C319.16 172.069 319.422 172.997 319.422 174.248C319.422 174.304 319.422 174.379 319.422 174.472C319.422 174.556 319.417 174.635 319.408 174.71H314.424C314.48 175.466 314.699 176.04 315.082 176.432C315.464 176.824 316.062 177.02 316.874 177.02C317.331 177.02 317.714 176.983 318.022 176.908C318.339 176.824 318.577 176.745 318.736 176.67L318.918 177.762C318.759 177.846 318.479 177.935 318.078 178.028C317.686 178.121 317.238 178.168 316.734 178.168C316.099 178.168 315.548 178.075 315.082 177.888C314.624 177.692 314.246 177.426 313.948 177.09C313.649 176.754 313.425 176.357 313.276 175.9C313.136 175.433 313.066 174.925 313.066 174.374ZM318.064 173.66C318.073 173.072 317.924 172.591 317.616 172.218C317.317 171.835 316.902 171.644 316.37 171.644C316.071 171.644 315.805 171.705 315.572 171.826C315.348 171.938 315.156 172.087 314.998 172.274C314.839 172.461 314.713 172.675 314.62 172.918C314.536 173.161 314.48 173.408 314.452 173.66H318.064ZM327.256 178H325.954V174.78H322.594V178H321.292V170.72H322.594V173.688H325.954V170.72H327.256V178ZM332.253 177.09C332.804 177.09 333.238 176.983 333.555 176.768C333.872 176.553 334.031 176.208 334.031 175.732C334.031 175.499 333.984 175.298 333.891 175.13C333.798 174.962 333.667 174.827 333.499 174.724C333.34 174.612 333.154 174.533 332.939 174.486C332.724 174.43 332.496 174.402 332.253 174.402C332.001 174.402 331.74 174.411 331.469 174.43C331.208 174.439 330.984 174.467 330.797 174.514V177.02C330.853 177.029 330.937 177.039 331.049 177.048C331.161 177.057 331.282 177.067 331.413 177.076C331.553 177.076 331.693 177.081 331.833 177.09C331.982 177.09 332.122 177.09 332.253 177.09ZM329.495 177.846V170.72H330.797V173.506C330.872 173.487 330.97 173.469 331.091 173.45C331.222 173.431 331.357 173.413 331.497 173.394C331.646 173.375 331.8 173.361 331.959 173.352C332.118 173.343 332.267 173.338 332.407 173.338C332.808 173.338 333.186 173.385 333.541 173.478C333.896 173.562 334.204 173.702 334.465 173.898C334.736 174.085 334.95 174.332 335.109 174.64C335.268 174.939 335.347 175.298 335.347 175.718C335.347 176.157 335.272 176.53 335.123 176.838C334.974 177.146 334.759 177.398 334.479 177.594C334.199 177.79 333.863 177.93 333.471 178.014C333.088 178.107 332.659 178.154 332.183 178.154C331.716 178.154 331.259 178.126 330.811 178.07C330.363 178.023 329.924 177.949 329.495 177.846Z" fill="#151515"/>
<path opacity="0.5" d="M224.516 197.032C224.329 197.461 224.133 197.867 223.928 198.25C223.732 198.623 223.494 198.95 223.214 199.23C222.943 199.51 222.612 199.729 222.22 199.888C221.837 200.047 221.361 200.126 220.792 200.126C220.68 200.126 220.563 200.117 220.442 200.098C220.321 200.089 220.204 200.07 220.092 200.042C219.98 200.023 219.882 200 219.798 199.972C219.714 199.944 219.653 199.916 219.616 199.888L219.854 198.74C219.975 198.787 220.12 198.833 220.288 198.88C220.465 198.927 220.647 198.95 220.834 198.95C221.114 198.95 221.357 198.917 221.562 198.852C221.777 198.777 221.968 198.679 222.136 198.558C222.304 198.427 222.453 198.273 222.584 198.096C222.715 197.909 222.841 197.704 222.962 197.48C222.551 196.817 222.164 196.159 221.8 195.506C221.436 194.843 221.1 194.204 220.792 193.588C220.484 192.972 220.204 192.389 219.952 191.838C219.7 191.278 219.476 190.765 219.28 190.298H220.82C221.128 191.11 221.52 192.015 221.996 193.014C222.481 194.013 223.018 195.058 223.606 196.15C223.979 195.301 224.334 194.367 224.67 193.35C225.015 192.323 225.337 191.306 225.636 190.298H227.106C226.891 190.97 226.677 191.605 226.462 192.202C226.247 192.79 226.033 193.359 225.818 193.91C225.603 194.451 225.389 194.983 225.174 195.506C224.959 196.019 224.74 196.528 224.516 197.032ZM233.475 192.72V193.812H231.109V200H229.807V193.812H227.441V192.72H233.475ZM239.871 196.374C239.871 195.525 239.661 194.871 239.241 194.414C238.821 193.957 238.261 193.728 237.561 193.728C237.169 193.728 236.861 193.742 236.637 193.77C236.423 193.798 236.25 193.831 236.119 193.868V198.46C236.278 198.591 236.507 198.717 236.805 198.838C237.104 198.959 237.431 199.02 237.785 199.02C238.159 199.02 238.476 198.955 238.737 198.824C239.008 198.684 239.227 198.497 239.395 198.264C239.563 198.021 239.685 197.741 239.759 197.424C239.834 197.097 239.871 196.747 239.871 196.374ZM241.229 196.374C241.229 196.925 241.155 197.433 241.005 197.9C240.865 198.367 240.655 198.768 240.375 199.104C240.095 199.44 239.75 199.701 239.339 199.888C238.938 200.075 238.476 200.168 237.953 200.168C237.533 200.168 237.16 200.112 236.833 200C236.516 199.888 236.278 199.781 236.119 199.678V202.59H234.817V192.944C235.125 192.869 235.508 192.79 235.965 192.706C236.432 192.613 236.969 192.566 237.575 192.566C238.135 192.566 238.639 192.655 239.087 192.832C239.535 193.009 239.918 193.261 240.235 193.588C240.553 193.915 240.795 194.316 240.963 194.792C241.141 195.259 241.229 195.786 241.229 196.374ZM249.487 196.36C249.487 196.939 249.403 197.461 249.235 197.928C249.067 198.395 248.829 198.796 248.521 199.132C248.223 199.468 247.863 199.729 247.443 199.916C247.023 200.093 246.566 200.182 246.071 200.182C245.577 200.182 245.119 200.093 244.699 199.916C244.279 199.729 243.915 199.468 243.607 199.132C243.309 198.796 243.075 198.395 242.907 197.928C242.739 197.461 242.655 196.939 242.655 196.36C242.655 195.791 242.739 195.273 242.907 194.806C243.075 194.33 243.309 193.924 243.607 193.588C243.915 193.252 244.279 192.995 244.699 192.818C245.119 192.631 245.577 192.538 246.071 192.538C246.566 192.538 247.023 192.631 247.443 192.818C247.863 192.995 248.223 193.252 248.521 193.588C248.829 193.924 249.067 194.33 249.235 194.806C249.403 195.273 249.487 195.791 249.487 196.36ZM248.129 196.36C248.129 195.539 247.943 194.89 247.569 194.414C247.205 193.929 246.706 193.686 246.071 193.686C245.437 193.686 244.933 193.929 244.559 194.414C244.195 194.89 244.013 195.539 244.013 196.36C244.013 197.181 244.195 197.835 244.559 198.32C244.933 198.796 245.437 199.034 246.071 199.034C246.706 199.034 247.205 198.796 247.569 198.32C247.943 197.835 248.129 197.181 248.129 196.36Z" fill="#151515"/>
<defs>
<filter id="filter0_f_15_158" x="128" y="50" width="417" height="176" filterUnits="userSpaceOnUse" color-interpolation-filters="sRGB">
<feFlood flood-opacity="0" result="BackgroundImageFix"/>
<feBlend mode="normal" in="SourceGraphic" in2="BackgroundImageFix" result="shape"/>
<feGaussianBlur stdDeviation="25" result="effect1_foregroundBlur_15_158"/>
</filter>
</defs>
</svg>
